<svg xmlns="http://www.w3.org/2000/svg" width="32" height="32" fill="none" viewBox="0 0 32 32"><g filter="url(#a)"><path fill="url(#b)" d="m28.05 9.04-1.25-.62c-.2-.11-.13-.42.1-.42h.58a2.5 2.5 0 0 0 0-5h-2.03a4.47 4.47 0 0 0-2.3 8.3l1.88 1.13c.59.35.95.99.95 1.67V25a1 1 0 0 1-1 1H21.5v4h4.48a4 4 0 0 0 4-4V12.16c0-1.33-.75-2.53-1.93-3.12"/><path fill="url(#c)" d="m28.05 9.04-1.25-.62c-.2-.11-.13-.42.1-.42h.58a2.5 2.5 0 0 0 0-5h-2.03a4.47 4.47 0 0 0-2.3 8.3l1.88 1.13c.59.35.95.99.95 1.67V25a1 1 0 0 1-1 1H21.5v4h4.48a4 4 0 0 0 4-4V12.16c0-1.33-.75-2.53-1.93-3.12"/><path fill="url(#d)" d="m28.05 9.04-1.25-.62c-.2-.11-.13-.42.1-.42h.58a2.5 2.5 0 0 0 0-5h-2.03a4.47 4.47 0 0 0-2.3 8.3l1.88 1.13c.59.35.95.99.95 1.67V25a1 1 0 0 1-1 1H21.5v4h4.48a4 4 0 0 0 4-4V12.16c0-1.33-.75-2.53-1.93-3.12"/><path fill="url(#e)" d="m28.05 9.04-1.25-.62c-.2-.11-.13-.42.1-.42h.58a2.5 2.5 0 0 0 0-5h-2.03a4.47 4.47 0 0 0-2.3 8.3l1.88 1.13c.59.35.95.99.95 1.67V25a1 1 0 0 1-1 1H21.5v4h4.48a4 4 0 0 0 4-4V12.16c0-1.33-.75-2.53-1.93-3.12"/><path fill="url(#f)" d="m28.05 9.04-1.25-.62c-.2-.11-.13-.42.1-.42h.58a2.5 2.5 0 0 0 0-5h-2.03a4.47 4.47 0 0 0-2.3 8.3l1.88 1.13c.59.35.95.99.95 1.67V25a1 1 0 0 1-1 1H21.5v4h4.48a4 4 0 0 0 4-4V12.16c0-1.33-.75-2.53-1.93-3.12"/><path fill="url(#g)" d="m28.05 9.04-1.25-.62c-.2-.11-.13-.42.1-.42h.58a2.5 2.5 0 0 0 0-5h-2.03a4.47 4.47 0 0 0-2.3 8.3l1.88 1.13c.59.35.95.99.95 1.67V25a1 1 0 0 1-1 1H21.5v4h4.48a4 4 0 0 0 4-4V12.16c0-1.33-.75-2.53-1.93-3.12"/><path fill="url(#h)" d="m28.05 9.04-1.25-.62c-.2-.11-.13-.42.1-.42h.58a2.5 2.5 0 0 0 0-5h-2.03a4.47 4.47 0 0 0-2.3 8.3l1.88 1.13c.59.35.95.99.95 1.67V25a1 1 0 0 1-1 1H21.5v4h4.48a4 4 0 0 0 4-4V12.16c0-1.33-.75-2.53-1.93-3.12"/></g><g filter="url(#i)"><path stroke="url(#j)" stroke-linecap="round" stroke-width=".75" d="m25.6 9.03 1.8.86a2 2 0 0 1 1.14 1.8V25.5a2 2 0 0 1-2 2h-2.19"/></g><path fill="url(#k)" d="M3.84 16.99v1.99c0 .69.39 1.32 1 1.62l.7.33a.7.7 0 0 0 .6 0l.69-.33a1.8 1.8 0 0 0 1-1.62v-1.99z"/><path fill="url(#l)" d="M3.84 16.99v1.99c0 .69.39 1.32 1 1.62l.7.33a.7.7 0 0 0 .6 0l.69-.33a1.8 1.8 0 0 0 1-1.62v-1.99z"/><path fill="url(#m)" d="M16.53 11a2.5 2.5 0 0 1-2.24-1.38l-.71-1.43a5.4 5.4 0 0 1-.6-2.48A2.7 2.7 0 0 0 10.32 3a.33.33 0 0 0-.33.33v2.08S9.38 5 8.28 5c-1.3 0-2.73.84-3.56 2.1-.74 1.33-1.63 2.6-2.43 3.9q-.3.39-.31.88A3.1 3.1 0 0 0 5.1 15h3.88v3H7.52c-.85 0-1.56.69-1.54 1.53A1.5 1.5 0 0 0 7.48 21l1.5.04v2.9A6.06 6.06 0 0 0 15.04 30h6.89a3.05 3.05 0 0 0 3.05-3.05v-7.49A8.45 8.45 0 0 0 16.53 11"/><path fill="url(#n)" d="M16.53 11a2.5 2.5 0 0 1-2.24-1.38l-.71-1.43a5.4 5.4 0 0 1-.6-2.48A2.7 2.7 0 0 0 10.32 3a.33.33 0 0 0-.33.33v2.08S9.38 5 8.28 5c-1.3 0-2.73.84-3.56 2.1-.74 1.33-1.63 2.6-2.43 3.9q-.3.39-.31.88A3.1 3.1 0 0 0 5.1 15h3.88v3H7.52c-.85 0-1.56.69-1.54 1.53A1.5 1.5 0 0 0 7.48 21l1.5.04v2.9A6.06 6.06 0 0 0 15.04 30h6.89a3.05 3.05 0 0 0 3.05-3.05v-7.49A8.45 8.45 0 0 0 16.53 11"/><path fill="url(#o)" d="M16.53 11a2.5 2.5 0 0 1-2.24-1.38l-.71-1.43a5.4 5.4 0 0 1-.6-2.48A2.7 2.7 0 0 0 10.32 3a.33.33 0 0 0-.33.33v2.08S9.38 5 8.28 5c-1.3 0-2.73.84-3.56 2.1-.74 1.33-1.63 2.6-2.43 3.9q-.3.39-.31.88A3.1 3.1 0 0 0 5.1 15h3.88v3H7.52c-.85 0-1.56.69-1.54 1.53A1.5 1.5 0 0 0 7.48 21l1.5.04v2.9A6.06 6.06 0 0 0 15.04 30h6.89a3.05 3.05 0 0 0 3.05-3.05v-7.49A8.45 8.45 0 0 0 16.53 11"/><path fill="url(#p)" d="M16.53 11a2.5 2.5 0 0 1-2.24-1.38l-.71-1.43a5.4 5.4 0 0 1-.6-2.48A2.7 2.7 0 0 0 10.32 3a.33.33 0 0 0-.33.33v2.08S9.38 5 8.28 5c-1.3 0-2.73.84-3.56 2.1-.74 1.33-1.63 2.6-2.43 3.9q-.3.39-.31.88A3.1 3.1 0 0 0 5.1 15h3.88v3H7.52c-.85 0-1.56.69-1.54 1.53A1.5 1.5 0 0 0 7.48 21l1.5.04v2.9A6.06 6.06 0 0 0 15.04 30h6.89a3.05 3.05 0 0 0 3.05-3.05v-7.49A8.45 8.45 0 0 0 16.53 11"/><path fill="url(#q)" d="M16.53 11a2.5 2.5 0 0 1-2.24-1.38l-.71-1.43a5.4 5.4 0 0 1-.6-2.48A2.7 2.7 0 0 0 10.32 3a.33.33 0 0 0-.33.33v2.08S9.38 5 8.28 5c-1.3 0-2.73.84-3.56 2.1-.74 1.33-1.63 2.6-2.43 3.9q-.3.39-.31.88A3.1 3.1 0 0 0 5.1 15h3.88v3H7.52c-.85 0-1.56.69-1.54 1.53A1.5 1.5 0 0 0 7.48 21l1.5.04v2.9A6.06 6.06 0 0 0 15.04 30h6.89a3.05 3.05 0 0 0 3.05-3.05v-7.49A8.45 8.45 0 0 0 16.53 11"/><path fill="url(#r)" d="M16.53 11a2.5 2.5 0 0 1-2.24-1.38l-.71-1.43a5.4 5.4 0 0 1-.6-2.48A2.7 2.7 0 0 0 10.32 3a.33.33 0 0 0-.33.33v2.08S9.38 5 8.28 5c-1.3 0-2.73.84-3.56 2.1-.74 1.33-1.63 2.6-2.43 3.9q-.3.39-.31.88A3.1 3.1 0 0 0 5.1 15h3.88v3H7.52c-.85 0-1.56.69-1.54 1.53A1.5 1.5 0 0 0 7.48 21l1.5.04v2.9A6.06 6.06 0 0 0 15.04 30h6.89a3.05 3.05 0 0 0 3.05-3.05v-7.49A8.45 8.45 0 0 0 16.53 11"/><path fill="url(#s)" fill-opacity=".75" d="M16.53 11a2.5 2.5 0 0 1-2.24-1.38l-.71-1.43a5.4 5.4 0 0 1-.6-2.48A2.7 2.7 0 0 0 10.32 3a.33.33 0 0 0-.33.33v2.08S9.38 5 8.28 5c-1.3 0-2.73.84-3.56 2.1-.74 1.33-1.63 2.6-2.43 3.9q-.3.39-.31.88A3.1 3.1 0 0 0 5.1 15h3.88v3H7.52c-.85 0-1.56.69-1.54 1.53A1.5 1.5 0 0 0 7.48 21l1.5.04v2.9A6.06 6.06 0 0 0 15.04 30h6.89a3.05 3.05 0 0 0 3.05-3.05v-7.49A8.45 8.45 0 0 0 16.53 11"/><path fill="url(#t)" d="M16.53 11a2.5 2.5 0 0 1-2.24-1.38l-.71-1.43a5.4 5.4 0 0 1-.6-2.48A2.7 2.7 0 0 0 10.32 3a.33.33 0 0 0-.33.33v2.08S9.38 5 8.28 5c-1.3 0-2.73.84-3.56 2.1-.74 1.33-1.63 2.6-2.43 3.9q-.3.39-.31.88A3.1 3.1 0 0 0 5.1 15h3.88v3H7.52c-.85 0-1.56.69-1.54 1.53A1.5 1.5 0 0 0 7.48 21l1.5.04v2.9A6.06 6.06 0 0 0 15.04 30h6.89a3.05 3.05 0 0 0 3.05-3.05v-7.49A8.45 8.45 0 0 0 16.53 11"/><path fill="url(#u)" d="M7.26 8c-.74 0-1.4.46-1.63 1.15l-.23.65A1.8 1.8 0 0 1 3.7 11H2.29q-.3.39-.31.88A3.1 3.1 0 0 0 5.1 15h5.88v-2.25c0-.97-.78-1.75-1.75-1.75a.25.25 0 0 1-.25-.25V9.72C8.98 8.77 8.2 8 7.26 8"/><path fill="url(#v)" d="M7.26 8c-.74 0-1.4.46-1.63 1.15l-.23.65A1.8 1.8 0 0 1 3.7 11H2.29q-.3.39-.31.88A3.1 3.1 0 0 0 5.1 15h5.88v-2.25c0-.97-.78-1.75-1.75-1.75a.25.25 0 0 1-.25-.25V9.72C8.98 8.77 8.2 8 7.26 8"/><path fill="url(#w)" d="M7.26 8c-.74 0-1.4.46-1.63 1.15l-.23.65A1.8 1.8 0 0 1 3.7 11H2.29q-.3.39-.31.88A3.1 3.1 0 0 0 5.1 15h5.88v-2.25c0-.97-.78-1.75-1.75-1.75a.25.25 0 0 1-.25-.25V9.72C8.98 8.77 8.2 8 7.26 8"/><path fill="url(#x)" d="M3.24 11.96a.95.95 0 0 0-.95-.96c-.2.25-.37.68-.37.99q.02.56.23.92l.13.01c.53 0 .96-.43.96-.96"/><path fill="url(#y)" d="m9.63 17.74 1.35-1.36V15h-2v3q.37-.02.65-.26"/><path fill="url(#z)" d="M13.69 19.74a4.6 4.6 0 0 1-3.18 1.3H8.98v2.9c0 3.31 1.7 6 5 6.06V19.4z"/><path fill="url(#A)" d="M13.69 19.74a4.6 4.6 0 0 1-3.18 1.3H8.98v2.9c0 3.31 1.7 6 5 6.06V19.4z"/><path fill="url(#B)" d="M13.69 19.74a4.6 4.6 0 0 1-3.18 1.3H8.98v2.9c0 3.31 1.7 6 5 6.06V19.4z"/><path fill="url(#C)" d="M13.69 19.74a4.6 4.6 0 0 1-3.18 1.3H8.98v2.9c0 3.31 1.7 6 5 6.06V19.4z"/><path fill="url(#D)" d="M7.27 10.02a.54.54 0 1 0 0-1.08.54.54 0 0 0 0 1.08"/><path fill="url(#E)" d="M7.27 10.02a.54.54 0 1 0 0-1.08.54.54 0 0 0 0 1.08"/><path fill="url(#F)" d="M21.7 19a7.7 7.7 0 0 0-7.72 7.72V28h-5a2 2 0 0 0-1.94 1.51.4.4 0 0 0 .38.49h14.51a3.05 3.05 0 0 0 3.05-3.05V19z"/><path fill="url(#G)" d="M21.7 19a7.7 7.7 0 0 0-7.72 7.72V28h-5a2 2 0 0 0-1.94 1.51.4.4 0 0 0 .38.49h14.51a3.05 3.05 0 0 0 3.05-3.05V19z"/><path fill="url(#H)" d="M21.7 19a7.7 7.7 0 0 0-7.72 7.72V28h-5a2 2 0 0 0-1.94 1.51.4.4 0 0 0 .38.49h14.51a3.05 3.05 0 0 0 3.05-3.05V19z"/><path fill="url(#I)" d="M21.7 19a7.7 7.7 0 0 0-7.72 7.72V28h-5a2 2 0 0 0-1.94 1.51.4.4 0 0 0 .38.49h14.51a3.05 3.05 0 0 0 3.05-3.05V19z"/><path fill="url(#J)" d="M21.7 19a7.7 7.7 0 0 0-7.72 7.72V28h-5a2 2 0 0 0-1.94 1.51.4.4 0 0 0 .38.49h14.51a3.05 3.05 0 0 0 3.05-3.05V19z"/><path fill="url(#K)" d="M21.7 19a7.7 7.7 0 0 0-7.72 7.72V28h-5a2 2 0 0 0-1.94 1.51.4.4 0 0 0 .38.49h14.51a3.05 3.05 0 0 0 3.05-3.05V19z"/><path fill="url(#L)" d="M21.7 19a7.7 7.7 0 0 0-7.72 7.72V28h-5a2 2 0 0 0-1.94 1.51.4.4 0 0 0 .38.49h14.51a3.05 3.05 0 0 0 3.05-3.05V19z"/><path fill="url(#M)" d="M21.7 19a7.7 7.7 0 0 0-7.72 7.72V28h-5a2 2 0 0 0-1.94 1.51.4.4 0 0 0 .38.49h14.51a3.05 3.05 0 0 0 3.05-3.05V19z"/><path fill="url(#N)" d="M21.7 19a7.7 7.7 0 0 0-7.72 7.72V28h-5a2 2 0 0 0-1.94 1.51.4.4 0 0 0 .38.49h14.51a3.05 3.05 0 0 0 3.05-3.05V19z"/><path fill="url(#O)" d="M21.7 19a7.7 7.7 0 0 0-7.72 7.72V28h-5a2 2 0 0 0-1.94 1.51.4.4 0 0 0 .38.49h14.51a3.05 3.05 0 0 0 3.05-3.05V19z"/><g filter="url(#P)"><path fill="#bd948f" d="M4.24 19v-1.24h.79v1.36q0 .16.05.31l.35 1.1-.39-.21a1.5 1.5 0 0 1-.8-1.33"/></g><path fill="url(#Q)" d="M7.58 16.49H4.1a.76.76 0 0 0-.75.75c0 .41.34.75.75.75h3.48c.4 0 .75-.34.75-.75a.75.75 0 0 0-.75-.75"/><path fill="url(#R)" d="M7.58 16.49H4.1a.76.76 0 0 0-.75.75c0 .41.34.75.75.75h3.48c.4 0 .75-.34.75-.75a.75.75 0 0 0-.75-.75"/><path fill="url(#S)" d="M7.58 16.49H4.1a.76.76 0 0 0-.75.75c0 .41.34.75.75.75h3.48c.4 0 .75-.34.75-.75a.75.75 0 0 0-.75-.75"/><path fill="url(#T)" d="M21.98 19.45v5.8c0 .41.34.75.75.75s.75-.34.75-.75v-5.8c0-2.96-1.86-5.5-4.48-6.5a.76.76 0 0 0-1.02.71c0 .31.19.59.48.7a5.45 5.45 0 0 1 3.52 5.09"/><path fill="#f2a85c" d="m9.63 17.74 4.35-4.4 1.57 2.11.96 1.8-2.82 2.49a4.6 4.6 0 0 1-3.18 1.3H8.98L7.48 21a1.5 1.5 0 0 1-1.5-1.47A1.53 1.53 0 0 1 7.52 18h1.46q.37-.02.65-.26"/><path fill="url(#U)" d="m9.63 17.74 4.35-4.4 1.57 2.11.96 1.8-2.82 2.49a4.6 4.6 0 0 1-3.18 1.3H8.98L7.48 21a1.5 1.5 0 0 1-1.5-1.47A1.53 1.53 0 0 1 7.52 18h1.46q.37-.02.65-.26"/><path fill="url(#V)" d="m9.63 17.74 4.35-4.4 1.57 2.11.96 1.8-2.82 2.49a4.6 4.6 0 0 1-3.18 1.3H8.98L7.48 21a1.5 1.5 0 0 1-1.5-1.47A1.53 1.53 0 0 1 7.52 18h1.46q.37-.02.65-.26"/><path fill="url(#W)" d="m9.63 17.74 4.35-4.4 1.57 2.11.96 1.8-2.82 2.49a4.6 4.6 0 0 1-3.18 1.3H8.98L7.48 21a1.5 1.5 0 0 1-1.5-1.47A1.53 1.53 0 0 1 7.52 18h1.46q.37-.02.65-.26"/><path fill="url(#X)" d="m9.63 17.74 4.35-4.4 1.57 2.11.96 1.8-2.82 2.49a4.6 4.6 0 0 1-3.18 1.3H8.98L7.48 21a1.5 1.5 0 0 1-1.5-1.47A1.53 1.53 0 0 1 7.52 18h1.46q.37-.02.65-.26"/><path fill="url(#Y)" d="m9.63 17.74 4.35-4.4 1.57 2.11.96 1.8-2.82 2.49a4.6 4.6 0 0 1-3.18 1.3H8.98L7.48 21a1.5 1.5 0 0 1-1.5-1.47A1.53 1.53 0 0 1 7.52 18h1.46q.37-.02.65-.26"/><path fill="url(#Z)" d="m9.63 17.74 4.35-4.4 1.57 2.11.96 1.8-2.82 2.49a4.6 4.6 0 0 1-3.18 1.3H8.98L7.48 21a1.5 1.5 0 0 1-1.5-1.47A1.53 1.53 0 0 1 7.52 18h1.46q.37-.02.65-.26"/><g filter="url(#aa)"><path fill="url(#ab)" d="m15.3 17.84-1.58 1.35c-.76.63-1.87.58-2.56-.13l2.9-2.53z"/></g><g filter="url(#ac)"><path fill="url(#ad)" d="m14.47 11.01-2.1-4.53a.5.5 0 0 0-.67-.23L9.38 7.4a.5.5 0 0 0-.23.66l2.13 4.59a.5.5 0 0 0 .7.23l2.27-1.23a.5.5 0 0 0 .22-.65"/></g><g filter="url(#ae)"><path fill="url(#af)" d="M12.28 5.69a2.8 2.8 0 0 0-.73-1.7c-.24-.23-.56-.02-.56.31v1.4c0 .27.23.5.5.5h.31c.28 0 .5-.23.48-.5"/></g><g filter="url(#ag)"><ellipse cx="28.2" cy="4.96" fill="url(#ah)" rx="1.19" ry="1.56" transform="rotate(-38.22 28.2 4.96)"/></g><g filter="url(#ai)" opacity=".3"><path stroke="url(#aj)" stroke-linecap="round" stroke-width=".5" d="M23.04 4.75c-.93.9-2.2 3.29.15 5.69"/></g><g filter="url(#ak)"><path stroke="url(#al)" stroke-linecap="round" stroke-width=".4" d="m25.96 8.45-1.83.8"/></g><defs><radialGradient id="e" cx="0" cy="0" r="1" gradientTransform="rotate(202.5 15.6 1.38)scale(4.73559 1.76193)" gradientUnits="userSpaceOnUse"><stop stop-color="#843977"/><stop offset=".99" stop-color="#843977" stop-opacity="0"/></radialGradient><radialGradient id="f" cx="0" cy="0" r="1" gradientTransform="matrix(5.1875 -.0625 .06678 5.54297 22.29 7.5)" gradientUnits="userSpaceOnUse"><stop stop-color="#9d5f57"/><stop offset="1" stop-color="#9d5f57" stop-opacity="0"/></radialGradient><radialGradient id="g" cx="0" cy="0" r="1" gradientTransform="rotate(-40.66 31.17 -25.87)scale(3.50139 4.25361)" gradientUnits="userSpaceOnUse"><stop stop-color="#894144"/><stop offset="1" stop-color="#894144" stop-opacity="0"/></radialGradient><radialGradient id="h" cx="0" cy="0" r="1" gradientTransform="rotate(19.52 -63.3 77.67)scale(4.67509 9.51915)" gradientUnits="userSpaceOnUse"><stop stop-color="#602b2e"/><stop offset=".9" stop-color="#602b2e" stop-opacity="0"/></radialGradient><radialGradient id="l" cx="0" cy="0" r="1" gradientTransform="rotate(161.56 1.56 10.56)scale(.89161 .98077)" gradientUnits="userSpaceOnUse"><stop stop-color="#8b4267"/><stop offset="1" stop-color="#8b4267" stop-opacity="0"/></radialGradient><radialGradient id="n" cx="0" cy="0" r="1" gradientTransform="rotate(-39.46 38.44 -5.45)scale(5.26161 4.73933)" gradientUnits="userSpaceOnUse"><stop stop-color="#f4718b"/><stop offset=".85" stop-color="#f37890" stop-opacity="0"/></radialGradient><radialGradient id="o" cx="0" cy="0" r="1" gradientTransform="rotate(241 16.47 2.76)scale(5.93092 5.61267)" gradientUnits="userSpaceOnUse"><stop stop-color="#ffc881"/><stop offset="1" stop-color="#ffc881" stop-opacity="0"/></radialGradient><radialGradient id="p" cx="0" cy="0" r="1" gradientTransform="rotate(246.48 11.48 4.27)scale(2.89699 3.55364)" gradientUnits="userSpaceOnUse"><stop stop-color="#d58653"/><stop offset="0" stop-color="#c56f38" stop-opacity=".97"/><stop offset="1" stop-color="#d58653" stop-opacity="0"/></radialGradient><radialGradient id="q" cx="0" cy="0" r="1" gradientTransform="rotate(92.27 -3.06 15.6)scale(3.9406 3.57085)" gradientUnits="userSpaceOnUse"><stop stop-color="#e58463"/><stop offset="0" stop-color="#c56f38" stop-opacity=".97"/><stop offset="1" stop-color="#e58463" stop-opacity="0"/></radialGradient><radialGradient id="r" cx="0" cy="0" r="1" gradientTransform="rotate(212.1 11.67 10.21)scale(6.23412 6.21438)" gradientUnits="userSpaceOnUse"><stop stop-color="#e58463"/><stop offset="0" stop-color="#c56f38" stop-opacity=".97"/><stop offset="1" stop-color="#e58463" stop-opacity="0"/></radialGradient><radialGradient id="s" cx="0" cy="0" r="1" gradientTransform="rotate(-38.84 17.07 -5.38)scale(3.20846 2.73313)" gradientUnits="userSpaceOnUse"><stop stop-color="#f16c42"/><stop offset="1" stop-color="#ffb179" stop-opacity="0"/></radialGradient><radialGradient id="v" cx="0" cy="0" r="1" gradientTransform="rotate(-40.43 27.22 2.25)scale(6.09611 3.09167)" gradientUnits="userSpaceOnUse"><stop stop-color="#f4718b"/><stop offset="1" stop-color="#f37890" stop-opacity="0"/></radialGradient><radialGradient id="w" cx="0" cy="0" r="1" gradientTransform="rotate(125.87 2.38 6.57)scale(2.50663 3.22281)" gradientUnits="userSpaceOnUse"><stop stop-color="#ffdab6"/><stop offset="1" stop-color="#ffdab6" stop-opacity="0"/></radialGradient><radialGradient id="B" cx="0" cy="0" r="1" gradientTransform="rotate(196.7 9.06 13.07)scale(3.2626 3.46175)" gradientUnits="userSpaceOnUse"><stop stop-color="#da9269"/><stop offset="1" stop-color="#da9269" stop-opacity="0"/></radialGradient><radialGradient id="C" cx="0" cy="0" r="1" gradientTransform="rotate(137.81 2.65 12.17)scale(3.96457 1.7787)" gradientUnits="userSpaceOnUse"><stop stop-color="#da9269"/><stop offset="1" stop-color="#da9269" stop-opacity="0"/></radialGradient><radialGradient id="D" cx="0" cy="0" r="1" gradientTransform="rotate(125.84 1.34 6.55)scale(.74807 .66693)" gradientUnits="userSpaceOnUse"><stop offset=".01" stop-color="#433437"/><stop offset="1" stop-color="#3b2838"/></radialGradient><radialGradient id="E" cx="0" cy="0" r="1" gradientTransform="rotate(126.38 1.36 6.56)scale(.39757 .33514)" gradientUnits="userSpaceOnUse"><stop stop-color="#5c5051"/><stop offset="1" stop-color="#5c5051" stop-opacity="0"/></radialGradient><radialGradient id="F" cx="0" cy="0" r="1" gradientTransform="rotate(123.77 4.76 17.37)scale(12.4808)" gradientUnits="userSpaceOnUse"><stop stop-color="#ffbc7a"/><stop offset="1" stop-color="#dc872a"/><stop offset="1" stop-color="#f79755"/></radialGradient><radialGradient id="H" cx="0" cy="0" r="1" gradientTransform="rotate(98.94 -2.8 17.8)scale(5.6309 3.83133)" gradientUnits="userSpaceOnUse"><stop stop-color="#ea8853"/><stop offset="1" stop-color="#ea8853" stop-opacity="0"/></radialGradient><radialGradient id="I" cx="0" cy="0" r="1" gradientTransform="rotate(123.77 4.76 17.37)scale(12.4808)" gradientUnits="userSpaceOnUse"><stop stop-color="#ffbc7a"/><stop offset="1" stop-color="#dc872a"/><stop offset="1" stop-color="#f79755"/></radialGradient><radialGradient id="J" cx="0" cy="0" r="1" gradientTransform="matrix(0 .65625 -6.46875 0 14.98 28.94)" gradientUnits="userSpaceOnUse"><stop stop-color="#faa44d"/><stop offset="1" stop-color="#fd9a6a" stop-opacity="0"/></radialGradient><radialGradient id="K" cx="0" cy="0" r="1" gradientTransform="rotate(98.62 -2.85 17.83)scale(6.25812 2.30372)" gradientUnits="userSpaceOnUse"><stop stop-color="#e88750"/><stop offset="1" stop-color="#e88750" stop-opacity="0"/></radialGradient><radialGradient id="L" cx="0" cy="0" r="1" gradientTransform="matrix(-11 -7.12493 8.92994 -13.7867 24.16 30)" gradientUnits="userSpaceOnUse"><stop offset=".78" stop-color="#e9812e" stop-opacity="0"/><stop offset="1" stop-color="#e9812e"/></radialGradient><radialGradient id="M" cx="0" cy="0" r="1" gradientTransform="rotate(100.46 3.51 19.59)scale(8.2623 3.78689)" gradientUnits="userSpaceOnUse"><stop stop-color="#ffc881"/><stop offset="1" stop-color="#ffc881" stop-opacity="0"/></radialGradient><radialGradient id="R" cx="0" cy="0" r="1" gradientTransform="matrix(2.40628 -.7343 .60183 1.9722 3.57 18.22)" gradientUnits="userSpaceOnUse"><stop stop-color="#ffce9c"/><stop offset=".77" stop-color="#ffce9c" stop-opacity="0"/></radialGradient><radialGradient id="S" cx="0" cy="0" r="1" gradientTransform="matrix(0 .57813 -1.91938 0 6.63 16.92)" gradientUnits="userSpaceOnUse"><stop stop-color="#f9ae7e"/><stop offset="1" stop-color="#f9ae7e" stop-opacity="0"/></radialGradient><radialGradient id="T" cx="0" cy="0" r="1" gradientTransform="rotate(153.76 9.57 12.02)scale(4.94738 12.4391)" gradientUnits="userSpaceOnUse"><stop stop-color="#c37e70"/><stop offset="1" stop-color="#9c5f60"/></radialGradient><radialGradient id="X" cx="0" cy="0" r="1" gradientTransform="matrix(5.96875 0 0 1.18584 7.57 19.58)" gradientUnits="userSpaceOnUse"><stop stop-color="#f3a26c"/><stop offset="1" stop-color="#f3a26c" stop-opacity="0"/></radialGradient><radialGradient id="Y" cx="0" cy="0" r="1" gradientTransform="rotate(46.6 -12.93 20.42)scale(1.5916 3.43354)" gradientUnits="userSpaceOnUse"><stop stop-color="#d58653"/><stop offset="1" stop-color="#d58653" stop-opacity="0"/></radialGradient><radialGradient id="Z" cx="0" cy="0" r="1" gradientTransform="rotate(230.6 11.75 6.6)scale(1.13235 3.61439)" gradientUnits="userSpaceOnUse"><stop stop-color="#e98b57"/><stop offset="1" stop-color="#e98b57" stop-opacity="0"/></radialGradient><radialGradient id="ah" cx="0" cy="0" r="1" gradientTransform="rotate(108.57 12.8 12.48)scale(2.60822 1.99089)" gradientUnits="userSpaceOnUse"><stop stop-color="#c89185"/><stop offset="1" stop-color="#c89185" stop-opacity="0"/></radialGradient><linearGradient id="b" x1="25.48" x2="25.48" y1="29.38" y2="3" gradientUnits="userSpaceOnUse"><stop stop-color="#732d22"/><stop offset="1" stop-color="#b67574"/></linearGradient><linearGradient id="c" x1="30.91" x2="28.54" y1="18.69" y2="18.69" gradientUnits="userSpaceOnUse"><stop stop-color="#8b6d68"/><stop offset="1" stop-color="#8b6d68" stop-opacity="0"/></linearGradient><linearGradient id="d" x1="25.94" x2="25.94" y1="30.22" y2="25.97" gradientUnits="userSpaceOnUse"><stop stop-color="#843977"/><stop offset=".99" stop-color="#843977" stop-opacity="0"/></linearGradient><linearGradient id="j" x1="26.44" x2="26.44" y1="9.03" y2="27.5" gradientUnits="userSpaceOnUse"><stop stop-color="#c89492"/><stop offset="1" stop-color="#aa7472"/></linearGradient><linearGradient id="k" x1="5.84" x2="6.62" y1="17.74" y2="20.13" gradientUnits="userSpaceOnUse"><stop stop-color="#9c5d65"/><stop offset="1" stop-color="#814376"/></linearGradient><linearGradient id="m" x1="12.08" x2=".96" y1="3" y2="20.27" gradientUnits="userSpaceOnUse"><stop stop-color="#ffbc7a"/><stop offset="1" stop-color="#dc872a"/><stop offset="1" stop-color="#f79755"/></linearGradient><linearGradient id="t" x1="3.59" x2="5.23" y1="6.88" y2="8.11" gradientUnits="userSpaceOnUse"><stop stop-color="#ffd490"/><stop offset="1" stop-color="#ffd490" stop-opacity="0"/></linearGradient><linearGradient id="u" x1="5.91" x2="6.03" y1="8.94" y2="15.08" gradientUnits="userSpaceOnUse"><stop stop-color="#ffd0a7"/><stop offset="1" stop-color="#ebb28f"/></linearGradient><linearGradient id="x" x1="1.81" x2="3.24" y1="11.96" y2="11.96" gradientUnits="userSpaceOnUse"><stop offset=".01" stop-color="#432f41"/><stop offset="1" stop-color="#342230"/></linearGradient><linearGradient id="y" x1="11.26" x2="10.59" y1="15.94" y2="14.69" gradientUnits="userSpaceOnUse"><stop stop-color="#daa37b"/><stop offset="1" stop-color="#ebb28f"/></linearGradient><linearGradient id="z" x1="13.98" x2="8.98" y1="23.67" y2="23.67" gradientUnits="userSpaceOnUse"><stop stop-color="#e19d85"/><stop offset="1" stop-color="#e8b997"/></linearGradient><linearGradient id="A" x1="11.16" x2="11.16" y1="28.94" y2="25.88" gradientUnits="userSpaceOnUse"><stop stop-color="#e19d85"/><stop offset="1" stop-color="#e19d85" stop-opacity="0"/></linearGradient><linearGradient id="G" x1="16" x2="16" y1="30.63" y2="27.81" gradientUnits="userSpaceOnUse"><stop stop-color="#f4718b"/><stop offset=".77" stop-color="#f37890" stop-opacity="0"/></linearGradient><linearGradient id="N" x1="25.26" x2="24.48" y1="25" y2="25" gradientUnits="userSpaceOnUse"><stop stop-color="#ee9f58"/><stop offset="1" stop-color="#ee9f58" stop-opacity="0"/></linearGradient><linearGradient id="O" x1="16" x2="16" y1="30.63" y2="27.81" gradientUnits="userSpaceOnUse"><stop stop-color="#f4718b"/><stop offset=".77" stop-color="#f37890" stop-opacity="0"/></linearGradient><linearGradient id="Q" x1="7.29" x2="4.51" y1="18.44" y2="16.49" gradientUnits="userSpaceOnUse"><stop stop-color="#e68a48"/><stop offset="1" stop-color="#faaf70"/></linearGradient><linearGradient id="U" x1="15.63" x2="13.41" y1="17.19" y2="17.97" gradientUnits="userSpaceOnUse"><stop stop-color="#f0a456"/><stop offset="1" stop-color="#f1a75a" stop-opacity="0"/></linearGradient><linearGradient id="V" x1="9.98" x2="9.98" y1="21.72" y2="19.28" gradientUnits="userSpaceOnUse"><stop stop-color="#f4718b"/><stop offset=".71" stop-color="#f37890" stop-opacity="0"/></linearGradient><linearGradient id="W" x1="5.98" x2="7.29" y1="20.53" y2="20.53" gradientUnits="userSpaceOnUse"><stop stop-color="#fba97e"/><stop offset="1" stop-color="#eb9d74" stop-opacity="0"/></linearGradient><linearGradient id="ab" x1="14.69" x2="13.01" y1="19.28" y2="17.63" gradientUnits="userSpaceOnUse"><stop stop-color="#f5a57f"/><stop offset="1" stop-color="#f5a57f" stop-opacity="0"/></linearGradient><linearGradient id="ad" x1="13.48" x2="10.35" y1="9.28" y2="10.97" gradientUnits="userSpaceOnUse"><stop stop-color="#ffd490"/><stop offset="1" stop-color="#ffd490" stop-opacity="0"/></linearGradient><linearGradient id="af" x1="12.03" x2="11.2" y1="4.81" y2="5.09" gradientUnits="userSpaceOnUse"><stop stop-color="#ffd490"/><stop offset="1" stop-color="#ffd490" stop-opacity="0"/></linearGradient><linearGradient id="aj" x1="22.52" x2="22.52" y1="4.75" y2="10.44" gradientUnits="userSpaceOnUse"><stop stop-color="#c89492"/><stop offset="1" stop-color="#aa7472"/></linearGradient><linearGradient id="al" x1="24.93" x2="24.93" y1="8.59" y2="9.25" gradientUnits="userSpaceOnUse"><stop stop-color="#c89492"/><stop offset="1" stop-color="#aa7472"/></linearGradient><filter id="a" width="9.2" height="27.4" x="20.98" y="3" color-interpolation-filters="sRGB" filterUnits="userSpaceOnUse"><feFlood flood-opacity="0" result="BackgroundImageFix"/><feBlend in="SourceGraphic" in2="BackgroundImageFix" result="shape"/><feColorMatrix in="SourceAlpha" result="hardAlpha" values="0 0 0 0 0 0 0 0 0 0 0 0 0 0 0 0 0 0 127 0"/><feOffset dx=".2" dy=".4"/><feGaussianBlur stdDeviation=".5"/><feComposite in2="hardAlpha" k2="-1" k3="1" operator="arithmetic"/><feColorMatrix values="0 0 0 0 0.431373 0 0 0 0 0.239216 0 0 0 0 0.231373 0 0 0 1 0"/><feBlend in2="shape" result="effect1_innerShadow_28327_3925"/></filter><filter id="i" width="7.94" height="22.22" x="22.48" y="7.16" color-interpolation-filters="sRGB" filterUnits="userSpaceOnUse"><feFlood flood-opacity="0" result="BackgroundImageFix"/><feBlend in="SourceGraphic" in2="BackgroundImageFix" result="shape"/><feGaussianBlur result="effect1_foregroundBlur_28327_3925" stdDeviation=".75"/></filter><filter id="P" width="3.19" height="4.77" x="3.24" y="16.76" color-interpolation-filters="sRGB" filterUnits="userSpaceOnUse"><feFlood flood-opacity="0" result="BackgroundImageFix"/><feBlend in="SourceGraphic" in2="BackgroundImageFix" result="shape"/><feGaussianBlur result="effect1_foregroundBlur_28327_3925" stdDeviation=".5"/></filter><filter id="aa" width="5.14" height="4.1" x="10.66" y="16.03" color-interpolation-filters="sRGB" filterUnits="userSpaceOnUse"><feFlood flood-opacity="0" result="BackgroundImageFix"/><feBlend in="SourceGraphic" in2="BackgroundImageFix" result="shape"/><feGaussianBlur result="effect1_foregroundBlur_28327_3925" stdDeviation=".25"/></filter><filter id="ac" width="9.41" height="10.76" x="7.1" y="4.19" color-interpolation-filters="sRGB" filterUnits="userSpaceOnUse"><feFlood flood-opacity="0" result="BackgroundImageFix"/><feBlend in="SourceGraphic" in2="BackgroundImageFix" result="shape"/><feGaussianBlur result="effect1_foregroundBlur_28327_3925" stdDeviation="1"/></filter><filter id="ae" width="3.29" height="4.29" x="9.99" y="2.89" color-interpolation-filters="sRGB" filterUnits="userSpaceOnUse"><feFlood flood-opacity="0" result="BackgroundImageFix"/><feBlend in="SourceGraphic" in2="BackgroundImageFix" result="shape"/><feGaussianBlur result="effect1_foregroundBlur_28327_3925" stdDeviation=".5"/></filter><filter id="ag" width="4.69" height="4.86" x="25.86" y="2.53" color-interpolation-filters="sRGB" filterUnits="userSpaceOnUse"><feFlood flood-opacity="0" result="BackgroundImageFix"/><feBlend in="SourceGraphic" in2="BackgroundImageFix" result="shape"/><feGaussianBlur result="effect1_foregroundBlur_28327_3925" stdDeviation=".5"/></filter><filter id="ai" width="3.34" height="7.69" x="20.85" y="3.75" color-interpolation-filters="sRGB" filterUnits="userSpaceOnUse"><feFlood flood-opacity="0" result="BackgroundImageFix"/><feBlend in="SourceGraphic" in2="BackgroundImageFix" result="shape"/><feGaussianBlur result="effect1_foregroundBlur_28327_3925" stdDeviation=".38"/></filter><filter id="ak" width="3.83" height="2.8" x="23.13" y="7.45" color-interpolation-filters="sRGB" filterUnits="userSpaceOnUse"><feFlood flood-opacity="0" result="BackgroundImageFix"/><feBlend in="SourceGraphic" in2="BackgroundImageFix" result="shape"/><feGaussianBlur result="effect1_foregroundBlur_28327_3925" stdDeviation=".4"/></filter></defs></svg>