<svg xmlns="http://www.w3.org/2000/svg" width="32" height="32" fill="none" viewBox="0 0 32 32"><path fill="url(#a)" d="M12.64 16.85h-5L4.9 24.17a.5.5 0 0 0 .47.68H9.3a.5.5 0 0 0 .47-.32z"/><path fill="url(#b)" d="M12.64 16.85h-5L4.9 24.17a.5.5 0 0 0 .47.68H9.3a.5.5 0 0 0 .47-.32z"/><path fill="url(#c)" d="M12.64 16.85h-5L4.9 24.17a.5.5 0 0 0 .47.68H9.3a.5.5 0 0 0 .47-.32z"/><path fill="url(#d)" d="M23.64 16.85h-5l-2.75 7.32a.5.5 0 0 0 .47.68h3.93a.5.5 0 0 0 .47-.32z"/><path fill="url(#e)" d="M23.64 16.85h-5l-2.75 7.32a.5.5 0 0 0 .47.68h3.93a.5.5 0 0 0 .47-.32z"/><path fill="url(#f)" d="M23.64 16.85h-5l-2.75 7.32a.5.5 0 0 0 .47.68h3.93a.5.5 0 0 0 .47-.32z"/><path fill="#6f7073" d="M22 7.85c3.21 0 5.51 1.07 6.83 3.5.52.94.81 2.03.82 3.18v7.31a.5.5 0 0 1-.5.5.5.5 0 0 1-.5-.5v-.89q-.45.49-1 .83v2.57a.5.5 0 0 1-.5.5h-4.7a.5.5 0 0 1-.45-.72l.3-.6q.28-.55.33-1.18h-5.99v2a.5.5 0 0 1-.5.5h-4.78a.5.5 0 0 1-.43-.75l.28-.5q.42-.76.43-1.62v-1.63c-.95-.44-1.97-.72-3-.93v-7.6a3.97 3.97 0 0 1 3.97-3.97z"/><path fill="url(#g)" d="M22 7.85c3.21 0 5.51 1.07 6.83 3.5.52.94.81 2.03.82 3.18v7.31a.5.5 0 0 1-.5.5.5.5 0 0 1-.5-.5v-.89q-.45.49-1 .83v2.57a.5.5 0 0 1-.5.5h-4.7a.5.5 0 0 1-.45-.72l.3-.6q.28-.55.33-1.18h-5.99v2a.5.5 0 0 1-.5.5h-4.78a.5.5 0 0 1-.43-.75l.28-.5q.42-.76.43-1.62v-1.63c-.95-.44-1.97-.72-3-.93v-7.6a3.97 3.97 0 0 1 3.97-3.97z"/><path fill="url(#h)" d="M22 7.85c3.21 0 5.51 1.07 6.83 3.5.52.94.81 2.03.82 3.18v7.31a.5.5 0 0 1-.5.5.5.5 0 0 1-.5-.5v-.89q-.45.49-1 .83v2.57a.5.5 0 0 1-.5.5h-4.7a.5.5 0 0 1-.45-.72l.3-.6q.28-.55.33-1.18h-5.99v2a.5.5 0 0 1-.5.5h-4.78a.5.5 0 0 1-.43-.75l.28-.5q.42-.76.43-1.62v-1.63c-.95-.44-1.97-.72-3-.93v-7.6a3.97 3.97 0 0 1 3.97-3.97z"/><path fill="url(#i)" d="M22 7.85c3.21 0 5.51 1.07 6.83 3.5.52.94.81 2.03.82 3.18v7.31a.5.5 0 0 1-.5.5.5.5 0 0 1-.5-.5v-.89q-.45.49-1 .83v2.57a.5.5 0 0 1-.5.5h-4.7a.5.5 0 0 1-.45-.72l.3-.6q.28-.55.33-1.18h-5.99v2a.5.5 0 0 1-.5.5h-4.78a.5.5 0 0 1-.43-.75l.28-.5q.42-.76.43-1.62v-1.63c-.95-.44-1.97-.72-3-.93v-7.6a3.97 3.97 0 0 1 3.97-3.97z"/><path fill="url(#j)" d="M22 7.85c3.21 0 5.51 1.07 6.83 3.5.52.94.81 2.03.82 3.18v7.31a.5.5 0 0 1-.5.5.5.5 0 0 1-.5-.5v-.89q-.45.49-1 .83v2.57a.5.5 0 0 1-.5.5h-4.7a.5.5 0 0 1-.45-.72l.3-.6q.28-.55.33-1.18h-5.99v2a.5.5 0 0 1-.5.5h-4.78a.5.5 0 0 1-.43-.75l.28-.5q.42-.76.43-1.62v-1.63c-.95-.44-1.97-.72-3-.93v-7.6a3.97 3.97 0 0 1 3.97-3.97z"/><path fill="url(#k)" d="M22 7.85c3.21 0 5.51 1.07 6.83 3.5.52.94.81 2.03.82 3.18v7.31a.5.5 0 0 1-.5.5.5.5 0 0 1-.5-.5v-.89q-.45.49-1 .83v2.57a.5.5 0 0 1-.5.5h-4.7a.5.5 0 0 1-.45-.72l.3-.6q.28-.55.33-1.18h-5.99v2a.5.5 0 0 1-.5.5h-4.78a.5.5 0 0 1-.43-.75l.28-.5q.42-.76.43-1.62v-1.63c-.95-.44-1.97-.72-3-.93v-7.6a3.97 3.97 0 0 1 3.97-3.97z"/><path fill="url(#l)" d="M22 7.85c3.21 0 5.51 1.07 6.83 3.5.52.94.81 2.03.82 3.18v7.31a.5.5 0 0 1-.5.5.5.5 0 0 1-.5-.5v-.89q-.45.49-1 .83v2.57a.5.5 0 0 1-.5.5h-4.7a.5.5 0 0 1-.45-.72l.3-.6q.28-.55.33-1.18h-5.99v2a.5.5 0 0 1-.5.5h-4.78a.5.5 0 0 1-.43-.75l.28-.5q.42-.76.43-1.62v-1.63c-.95-.44-1.97-.72-3-.93v-7.6a3.97 3.97 0 0 1 3.97-3.97z"/><path fill="url(#m)" d="M22 7.85c3.21 0 5.51 1.07 6.83 3.5.52.94.81 2.03.82 3.18v7.31a.5.5 0 0 1-.5.5.5.5 0 0 1-.5-.5v-.89q-.45.49-1 .83v2.57a.5.5 0 0 1-.5.5h-4.7a.5.5 0 0 1-.45-.72l.3-.6q.28-.55.33-1.18h-5.99v2a.5.5 0 0 1-.5.5h-4.78a.5.5 0 0 1-.43-.75l.28-.5q.42-.76.43-1.62v-1.63c-.95-.44-1.97-.72-3-.93v-7.6a3.97 3.97 0 0 1 3.97-3.97z"/><path fill="url(#n)" d="M22 7.85c3.21 0 5.51 1.07 6.83 3.5.52.94.81 2.03.82 3.18v7.31a.5.5 0 0 1-.5.5.5.5 0 0 1-.5-.5v-.89q-.45.49-1 .83v2.57a.5.5 0 0 1-.5.5h-4.7a.5.5 0 0 1-.45-.72l.3-.6q.28-.55.33-1.18h-5.99v2a.5.5 0 0 1-.5.5h-4.78a.5.5 0 0 1-.43-.75l.28-.5q.42-.76.43-1.62v-1.63c-.95-.44-1.97-.72-3-.93v-7.6a3.97 3.97 0 0 1 3.97-3.97z"/><path fill="url(#o)" d="M22 7.85c3.21 0 5.51 1.07 6.83 3.5.52.94.81 2.03.82 3.18v7.31a.5.5 0 0 1-.5.5.5.5 0 0 1-.5-.5v-.89q-.45.49-1 .83v2.57a.5.5 0 0 1-.5.5h-4.7a.5.5 0 0 1-.45-.72l.3-.6q.28-.55.33-1.18h-5.99v2a.5.5 0 0 1-.5.5h-4.78a.5.5 0 0 1-.43-.75l.28-.5q.42-.76.43-1.62v-1.63c-.95-.44-1.97-.72-3-.93v-7.6a3.97 3.97 0 0 1 3.97-3.97z"/><path fill="url(#p)" d="M22 7.85c3.21 0 5.51 1.07 6.83 3.5.52.94.81 2.03.82 3.18v7.31a.5.5 0 0 1-.5.5.5.5 0 0 1-.5-.5v-.89q-.45.49-1 .83v2.57a.5.5 0 0 1-.5.5h-4.7a.5.5 0 0 1-.45-.72l.3-.6q.28-.55.33-1.18h-5.99v2a.5.5 0 0 1-.5.5h-4.78a.5.5 0 0 1-.43-.75l.28-.5q.42-.76.43-1.62v-1.63c-.95-.44-1.97-.72-3-.93v-7.6a3.97 3.97 0 0 1 3.97-3.97z"/><g filter="url(#q)"><path fill="url(#r)" d="M16 19.58v4.68l-1.19-4.08z"/></g><path fill="url(#s)" d="M22.64 21.8c0-.61-.24-1.2-.67-1.62l-.33-.33h-5v2.49h6z"/><path fill="url(#t)" d="M22.64 21.8c0-.61-.24-1.2-.67-1.62l-.33-.33h-5v2.49h6z"/><path fill="url(#u)" d="M22.64 21.8c0-.61-.24-1.2-.67-1.62l-.33-.33h-5v2.49h6z"/><path fill="url(#v)" d="M22.64 21.8c0-.61-.24-1.2-.67-1.62l-.33-.33h-5v2.49h6z"/><path fill="url(#w)" d="M11.56 6.85a.9.9 0 0 0-.92.92v1.57h1.18l.56-1.14a.92.92 0 0 0-.82-1.35"/><path fill="url(#x)" d="M11.56 6.85a.9.9 0 0 0-.92.92v1.57h1.18l.56-1.14a.92.92 0 0 0-.82-1.35"/><path fill="url(#y)" d="M12.48 7.73c-.03-.58-.9-.56-.92.02v1.59h.26l.56-1.14a1 1 0 0 0 .1-.47"/><path fill="url(#z)" d="M7.72 6.85c.51 0 .92.4.92.92v1.57H7.46L6.9 8.2a.92.92 0 0 1 .82-1.35"/><path fill="url(#A)" d="M7.72 6.85c.51 0 .92.4.92.92v1.57H7.46L6.9 8.2a.92.92 0 0 1 .82-1.35"/><path fill="url(#B)" d="M6.8 7.73c.03-.58.91-.56.92.02v1.59h-.26L6.9 8.2a1 1 0 0 1-.1-.47"/><g filter="url(#C)"><path fill="url(#D)" d="M4.75 13.12a.7.7 0 0 0 .51-.63v-1.58c0-.87.7-1.57 1.57-1.57h5.32c.87 0 1.57.7 1.57 1.57v1.58c0 .3.22.55.51.63a4.23 4.23 0 0 1-1.1 8.3H5.86a4.22 4.22 0 0 1-1.12-8.3"/><path fill="url(#E)" d="M4.75 13.12a.7.7 0 0 0 .51-.63v-1.58c0-.87.7-1.57 1.57-1.57h5.32c.87 0 1.57.7 1.57 1.57v1.58c0 .3.22.55.51.63a4.23 4.23 0 0 1-1.1 8.3H5.86a4.22 4.22 0 0 1-1.12-8.3"/><path fill="url(#F)" d="M4.75 13.12a.7.7 0 0 0 .51-.63v-1.58c0-.87.7-1.57 1.57-1.57h5.32c.87 0 1.57.7 1.57 1.57v1.58c0 .3.22.55.51.63a4.23 4.23 0 0 1-1.1 8.3H5.86a4.22 4.22 0 0 1-1.12-8.3"/><path fill="url(#G)" d="M4.75 13.12a.7.7 0 0 0 .51-.63v-1.58c0-.87.7-1.57 1.57-1.57h5.32c.87 0 1.57.7 1.57 1.57v1.58c0 .3.22.55.51.63a4.23 4.23 0 0 1-1.1 8.3H5.86a4.22 4.22 0 0 1-1.12-8.3"/><path fill="url(#H)" d="M4.75 13.12a.7.7 0 0 0 .51-.63v-1.58c0-.87.7-1.57 1.57-1.57h5.32c.87 0 1.57.7 1.57 1.57v1.58c0 .3.22.55.51.63a4.23 4.23 0 0 1-1.1 8.3H5.86a4.22 4.22 0 0 1-1.12-8.3"/><path fill="url(#I)" d="M4.75 13.12a.7.7 0 0 0 .51-.63v-1.58c0-.87.7-1.57 1.57-1.57h5.32c.87 0 1.57.7 1.57 1.57v1.58c0 .3.22.55.51.63a4.23 4.23 0 0 1-1.1 8.3H5.86a4.22 4.22 0 0 1-1.12-8.3"/></g><g filter="url(#J)"><path fill="url(#K)" d="M10.95 11.32v2.75c0 .14.12.25.25.25h1.7c.13 0 .24-.11.24-.25v-3.55c0-.18-.19-.3-.36-.22l-1.68.8a.3.3 0 0 0-.15.22"/></g><path fill="url(#L)" d="M5.87 19a2.42 2.42 0 0 1 0-4.83h7.25a2.42 2.42 0 0 1 0 4.84z"/><path fill="url(#M)" d="M5.87 19a2.42 2.42 0 0 1 0-4.83h7.25a2.42 2.42 0 0 1 0 4.84z"/><path fill="url(#N)" d="M5.87 19a2.42 2.42 0 0 1 0-4.83h7.25a2.42 2.42 0 0 1 0 4.84z"/><path fill="url(#O)" d="m6.65 17.09-.56-.57a.6.6 0 0 1 0-.85.6.6 0 0 1 .85 0l.57.57a.6.6 0 0 1 0 .85.6.6 0 0 1-.86 0"/><path fill="url(#P)" d="m6.65 17.09-.56-.57a.6.6 0 0 1 0-.85.6.6 0 0 1 .85 0l.57.57a.6.6 0 0 1 0 .85.6.6 0 0 1-.86 0"/><path fill="url(#Q)" d="m12.6 17.09.56-.57a.6.6 0 0 0 0-.85.6.6 0 0 0-.85 0l-.57.56a.6.6 0 0 0 0 .85.6.6 0 0 0 .85 0"/><path fill="url(#R)" d="m12.6 17.09.56-.57a.6.6 0 0 0 0-.85.6.6 0 0 0-.85 0l-.57.56a.6.6 0 0 0 0 .85.6.6 0 0 0 .85 0"/><g filter="url(#S)"><path fill="#46454a" d="M7.8 13.75a.45.45 0 0 1-.45-.45v-.9a.45.45 0 1 1 .9-.01v.9c0 .26-.2.46-.45.46"/></g><g filter="url(#T)"><path fill="#46454a" d="M10.83 13.75a.45.45 0 0 1-.45-.45v-.9a.45.45 0 1 1 .9-.01v.9c0 .26-.2.46-.45.46"/></g><path fill="url(#U)" d="M8.01 13.85a.5.5 0 0 1-.5-.5v-1c0-.29.22-.5.5-.5s.5.21.5.5v1a.5.5 0 0 1-.5.5"/><path fill="url(#V)" d="M8.01 13.85a.5.5 0 0 1-.5-.5v-1c0-.29.22-.5.5-.5s.5.21.5.5v1a.5.5 0 0 1-.5.5"/><path fill="url(#W)" d="M8.01 13.85a.5.5 0 0 1-.5-.5v-1c0-.29.22-.5.5-.5s.5.21.5.5v1a.5.5 0 0 1-.5.5"/><path fill="url(#X)" d="M10.98 13.85a.5.5 0 0 1-.5-.5v-1c0-.29.22-.5.5-.5s.5.21.5.5v1a.5.5 0 0 1-.5.5"/><path fill="url(#Y)" d="M10.98 13.85a.5.5 0 0 1-.5-.5v-1c0-.29.22-.5.5-.5s.5.21.5.5v1a.5.5 0 0 1-.5.5"/><path fill="url(#Z)" d="M10.98 13.85a.5.5 0 0 1-.5-.5v-1c0-.29.22-.5.5-.5s.5.21.5.5v1a.5.5 0 0 1-.5.5"/><g filter="url(#aa)"><ellipse cx="24.65" cy="12.84" fill="url(#ab)" rx="4.29" ry="3.68" transform="rotate(45.67 24.65 12.84)"/></g><g filter="url(#ac)"><path fill="url(#ad)" d="M26.69 19.19h.47v5.11h-.47z"/></g><g filter="url(#ae)"><path fill="url(#af)" fill-opacity=".5" d="m23.65 19.5 2.85 4.28c.13.21.46.11.46-.13v-2.87q0-.12.1-.2l1.7-1.34q.1-.08.1-.2v-4.7a.25.25 0 0 0-.25-.24h-4.75a.25.25 0 0 0-.25.25v5.02q0 .08.04.14"/></g><g filter="url(#ag)"><path stroke="url(#ah)" stroke-linecap="round" stroke-opacity=".75" stroke-width=".3" d="M11.6 24.2c.16-.14.67-.7.79-.92"/></g><g filter="url(#ai)"><path stroke="url(#aj)" stroke-linecap="round" stroke-width=".15" d="M29.33 21.9v-1.8"/></g><defs><linearGradient id="a" x1="8.75" x2="8.75" y1="18.47" y2="24.16" gradientUnits="userSpaceOnUse"><stop stop-color="#2a2233"/><stop offset="1" stop-color="#433851"/></linearGradient><linearGradient id="b" x1="8.75" x2="8.75" y1="23.66" y2="25.66" gradientUnits="userSpaceOnUse"><stop stop-color="#62487a" stop-opacity="0"/><stop offset="1" stop-color="#62487a"/></linearGradient><linearGradient id="c" x1="4.75" x2="6.2" y1="22.54" y2="23.3" gradientUnits="userSpaceOnUse"><stop stop-color="#848485"/><stop offset=".72" stop-color="#848485" stop-opacity="0"/></linearGradient><linearGradient id="d" x1="19.75" x2="18.92" y1="19.38" y2="23.16" gradientUnits="userSpaceOnUse"><stop stop-color="#2a2233"/><stop offset="1" stop-color="#433851"/></linearGradient><linearGradient id="e" x1="19.75" x2="19.75" y1="23.66" y2="25.66" gradientUnits="userSpaceOnUse"><stop stop-color="#62487a" stop-opacity="0"/><stop offset="1" stop-color="#62487a"/></linearGradient><linearGradient id="f" x1="14.98" x2="17.2" y1="22.29" y2="23.3" gradientUnits="userSpaceOnUse"><stop stop-color="#848485"/><stop offset=".72" stop-color="#848485" stop-opacity="0"/></linearGradient><linearGradient id="n" x1="11.27" x2="11.27" y1="25.91" y2="16.79" gradientUnits="userSpaceOnUse"><stop stop-color="#525257"/><stop offset="1" stop-color="#525257" stop-opacity="0"/></linearGradient><linearGradient id="o" x1="19.15" x2="19.15" y1="23.35" y2="25.91" gradientUnits="userSpaceOnUse"><stop stop-color="#62487a" stop-opacity="0"/><stop offset="1" stop-color="#62487a"/></linearGradient><linearGradient id="r" x1="20.94" x2="20.94" y1="23.84" y2="18.93" gradientUnits="userSpaceOnUse"><stop stop-color="#8d8e91"/><stop offset="1" stop-color="#8d8e91" stop-opacity="0"/></linearGradient><linearGradient id="s" x1="15.89" x2="25.08" y1="21.1" y2="21.1" gradientUnits="userSpaceOnUse"><stop stop-color="#c06e84"/><stop offset="1" stop-color="#e9877a" stop-opacity="0"/></linearGradient><linearGradient id="t" x1="16.42" x2="17.36" y1="22.34" y2="22.34" gradientUnits="userSpaceOnUse"><stop stop-color="#e08d95"/><stop offset="1" stop-color="#e08d95" stop-opacity="0"/></linearGradient><linearGradient id="u" x1="19.64" x2="19.64" y1="21.52" y2="23.35" gradientUnits="userSpaceOnUse"><stop stop-color="#a5517f" stop-opacity="0"/><stop offset=".75" stop-color="#a5517f"/></linearGradient><linearGradient id="w" x1="10.8" x2="10.8" y1="9.01" y2="6.66" gradientUnits="userSpaceOnUse"><stop stop-color="#616264"/><stop offset="1" stop-color="#767779"/></linearGradient><linearGradient id="x" x1="10.48" x2="10.89" y1="8.46" y2="8.46" gradientUnits="userSpaceOnUse"><stop stop-color="#919193"/><stop offset="1" stop-color="#919193" stop-opacity="0"/></linearGradient><linearGradient id="z" x1="6.95" x2="6.95" y1="9.01" y2="6.66" gradientUnits="userSpaceOnUse"><stop stop-color="#616264"/><stop offset="1" stop-color="#767779"/></linearGradient><linearGradient id="D" x1="9.5" x2="9.5" y1="16.1" y2="21.42" gradientUnits="userSpaceOnUse"><stop stop-color="#68696c"/><stop offset="1" stop-color="#534e5d"/></linearGradient><linearGradient id="E" x1="9.5" x2="9.5" y1="19.25" y2="21.72" gradientUnits="userSpaceOnUse"><stop stop-color="#62487a" stop-opacity="0"/><stop offset="1" stop-color="#62487a"/></linearGradient><linearGradient id="F" x1="9.5" x2="9.5" y1="20.72" y2="21.79" gradientUnits="userSpaceOnUse"><stop offset=".38" stop-color="#8261a0" stop-opacity="0"/><stop offset="1" stop-color="#8261a0"/></linearGradient><linearGradient id="K" x1="12.05" x2="12.05" y1="10.6" y2="17.38" gradientUnits="userSpaceOnUse"><stop stop-color="#8a8b8f"/><stop offset="0" stop-color="#8a8b8f"/><stop offset="1" stop-color="#8a8b8f" stop-opacity="0"/></linearGradient><linearGradient id="M" x1="9.83" x2="9.84" y1="20.16" y2="18.19" gradientUnits="userSpaceOnUse"><stop stop-color="#dc8490"/><stop offset="1" stop-color="#dc8490" stop-opacity="0"/></linearGradient><linearGradient id="P" x1="7.08" x2="6.7" y1="16.65" y2="14.51" gradientUnits="userSpaceOnUse"><stop stop-color="#864d54" stop-opacity="0"/><stop offset="1" stop-color="#864d54"/></linearGradient><linearGradient id="U" x1="8.51" x2="7.93" y1="12.84" y2="12.84" gradientUnits="userSpaceOnUse"><stop offset=".23" stop-color="#594c4f"/><stop offset="1" stop-color="#392833"/></linearGradient><linearGradient id="V" x1="8.67" x2="8.67" y1="14.02" y2="13.3" gradientUnits="userSpaceOnUse"><stop stop-color="#552d52"/><stop offset="1" stop-color="#552d52" stop-opacity="0"/></linearGradient><linearGradient id="X" x1="11.48" x2="10.9" y1="12.84" y2="12.84" gradientUnits="userSpaceOnUse"><stop offset=".23" stop-color="#594c4f"/><stop offset="1" stop-color="#392833"/></linearGradient><linearGradient id="Y" x1="11.64" x2="11.64" y1="14.02" y2="13.3" gradientUnits="userSpaceOnUse"><stop stop-color="#552d52"/><stop offset="1" stop-color="#552d52" stop-opacity="0"/></linearGradient><linearGradient id="ad" x1="28.61" x2="28.61" y1="23.85" y2="18.47" gradientUnits="userSpaceOnUse"><stop stop-color="#8d8e91"/><stop offset="1" stop-color="#8d8e91" stop-opacity="0"/></linearGradient><linearGradient id="af" x1="26.23" x2="26.23" y1="15.6" y2="25.35" gradientUnits="userSpaceOnUse"><stop stop-color="#8d8e91"/><stop offset="1" stop-color="#8d8e91" stop-opacity="0"/></linearGradient><linearGradient id="ah" x1="11.48" x2="12.61" y1="24.3" y2="23.38" gradientUnits="userSpaceOnUse"><stop stop-color="#8d8e91"/><stop offset="1" stop-color="#8d8e91" stop-opacity="0"/></linearGradient><linearGradient id="aj" x1="29.48" x2="29.48" y1="21.77" y2="19.75" gradientUnits="userSpaceOnUse"><stop stop-color="#8a8b8f"/><stop offset="1" stop-color="#8a8b8f" stop-opacity="0"/></linearGradient><radialGradient id="g" cx="0" cy="0" r="1" gradientTransform="rotate(137.97 13.94 9.86)scale(6.81508 11.6051)" gradientUnits="userSpaceOnUse"><stop stop-color="#838487"/><stop offset="1" stop-color="#838487" stop-opacity="0"/></radialGradient><radialGradient id="h" cx="0" cy="0" r="1" gradientTransform="matrix(0 -2.46875 .67187 0 28.14 22.22)" gradientUnits="userSpaceOnUse"><stop stop-color="#4d425b"/><stop offset="1" stop-color="#4d425b" stop-opacity="0"/></radialGradient><radialGradient id="i" cx="0" cy="0" r="1" gradientTransform="rotate(-98.58 24.22 -.9)scale(3.35002 1.19069)" gradientUnits="userSpaceOnUse"><stop stop-color="#4d425b"/><stop offset="1" stop-color="#4d425b" stop-opacity="0"/></radialGradient><radialGradient id="j" cx="0" cy="0" r="1" gradientTransform="rotate(-39.16 26.1 -12.42)scale(2.82099 3.48642)" gradientUnits="userSpaceOnUse"><stop stop-color="#5d5d60"/><stop offset="1" stop-color="#5d5d60" stop-opacity="0"/></radialGradient><radialGradient id="k" cx="0" cy="0" r="1" gradientTransform="matrix(.76562 -1.75 1.27049 .55584 11.55 9.83)" gradientUnits="userSpaceOnUse"><stop stop-color="#5d5d60"/><stop offset="1" stop-color="#5d5d60" stop-opacity="0"/></radialGradient><radialGradient id="l" cx="0" cy="0" r="1" gradientTransform="rotate(143.75 2.92 12.65)scale(3.4877 1.6444)" gradientUnits="userSpaceOnUse"><stop stop-color="#47474e"/><stop offset="1" stop-color="#47474e" stop-opacity="0"/></radialGradient><radialGradient id="m" cx="0" cy="0" r="1" gradientTransform="matrix(2.625 -.71875 1.15739 4.227 11.14 22.6)" gradientUnits="userSpaceOnUse"><stop stop-color="#47474e"/><stop offset="1" stop-color="#47474e" stop-opacity="0"/></radialGradient><radialGradient id="p" cx="0" cy="0" r="1" gradientTransform="rotate(245.26 17.9 4.19)scale(3.50961 2.37239)" gradientUnits="userSpaceOnUse"><stop stop-color="#62487a"/><stop offset="1" stop-color="#62487a" stop-opacity="0"/></radialGradient><radialGradient id="v" cx="0" cy="0" r="1" gradientTransform="rotate(196.94 13.3 9.65)scale(4.18155 2.7427)" gradientUnits="userSpaceOnUse"><stop stop-color="#62487a"/><stop offset="1" stop-color="#62487a" stop-opacity="0"/></radialGradient><radialGradient id="y" cx="0" cy="0" r="1" gradientTransform="matrix(0 2.10938 -1.04688 0 11.33 8.11)" gradientUnits="userSpaceOnUse"><stop stop-color="#e7958a"/><stop offset="1" stop-color="#bd5750"/></radialGradient><radialGradient id="A" cx="0" cy="0" r="1" gradientTransform="rotate(165.17 3.88 4.36)scale(.82432 1.69085)" gradientUnits="userSpaceOnUse"><stop stop-color="#919193"/><stop offset="1" stop-color="#919193" stop-opacity="0"/></radialGradient><radialGradient id="B" cx="0" cy="0" r="1" gradientTransform="matrix(-.7403 0 0 -2.05319 8 8.74)" gradientUnits="userSpaceOnUse"><stop stop-color="#e7958a"/><stop offset="1" stop-color="#bd5750"/></radialGradient><radialGradient id="G" cx="0" cy="0" r="1" gradientTransform="rotate(137.16 4.38 10.79)scale(2.34396 2.42708)" gradientUnits="userSpaceOnUse"><stop stop-color="#8a8b8f"/><stop offset=".86" stop-color="#8a8b8f" stop-opacity="0"/></radialGradient><radialGradient id="H" cx="0" cy="0" r="1" gradientTransform="rotate(49.2 -10.81 10.75)scale(3.01332 1.71904)" gradientUnits="userSpaceOnUse"><stop stop-color="#8a8b8f"/><stop offset=".86" stop-color="#8a8b8f" stop-opacity="0"/></radialGradient><radialGradient id="I" cx="0" cy="0" r="1" gradientTransform="rotate(46.8 -9.8 10.44)scale(4.93008 2.53645)" gradientUnits="userSpaceOnUse"><stop stop-color="#4d4d55"/><stop offset="1" stop-color="#4d4d55" stop-opacity="0"/></radialGradient><radialGradient id="L" cx="0" cy="0" r="1" gradientTransform="translate(9.5 13.54)scale(7.645)" gradientUnits="userSpaceOnUse"><stop offset=".03" stop-color="#e9877a" stop-opacity="0"/><stop offset="1" stop-color="#e9877a"/></radialGradient><radialGradient id="N" cx="0" cy="0" r="1" gradientTransform="matrix(-2.9375 0 0 -2.12905 16.64 16.59)" gradientUnits="userSpaceOnUse"><stop stop-color="#f2aaa3"/><stop offset="1" stop-color="#f2aaa3" stop-opacity="0"/></radialGradient><radialGradient id="O" cx="0" cy="0" r="1" gradientTransform="matrix(.92187 1 -.64255 .59235 6.1 16.04)" gradientUnits="userSpaceOnUse"><stop stop-color="#815a57"/><stop offset=".97" stop-color="#402d2b"/></radialGradient><radialGradient id="Q" cx="0" cy="0" r="1" gradientTransform="matrix(2.40615 -1.5164 1.0465 1.66054 11.24 17)" gradientUnits="userSpaceOnUse"><stop stop-color="#815a57"/><stop offset=".42" stop-color="#402d2b"/></radialGradient><radialGradient id="R" cx="0" cy="0" r="1" gradientTransform="rotate(84.42 -2.22 14.35)scale(1.74263 1.59754)" gradientUnits="userSpaceOnUse"><stop stop-color="#9b5961"/><stop offset=".88" stop-color="#864d54" stop-opacity="0"/></radialGradient><radialGradient id="W" cx="0" cy="0" r="1" gradientTransform="rotate(250.59 8.7 3.58)scale(1.16048 1.12468)" gradientUnits="userSpaceOnUse"><stop offset=".81" stop-color="#594c4f" stop-opacity="0"/><stop offset="1" stop-color="#594c4f"/></radialGradient><radialGradient id="Z" cx="0" cy="0" r="1" gradientTransform="rotate(250.59 10.18 2.53)scale(1.16048 1.12468)" gradientUnits="userSpaceOnUse"><stop offset=".81" stop-color="#594c4f" stop-opacity="0"/><stop offset="1" stop-color="#594c4f"/></radialGradient><radialGradient id="ab" cx="0" cy="0" r="1" gradientTransform="rotate(84.46 6.07 19.38)scale(4.21272 5.19287)" gradientUnits="userSpaceOnUse"><stop stop-color="#8d8e91"/><stop offset=".8" stop-color="#8d8e91" stop-opacity="0"/></radialGradient><filter id="q" width="2.79" height="6.27" x="14.01" y="18.78" color-interpolation-filters="sRGB" filterUnits="userSpaceOnUse"><feFlood flood-opacity="0" result="BackgroundImageFix"/><feBlend in="SourceGraphic" in2="BackgroundImageFix" result="shape"/><feGaussianBlur result="effect1_foregroundBlur_28327_3592" stdDeviation=".4"/></filter><filter id="C" width="15.91" height="12.28" x="1.64" y="9.34" color-interpolation-filters="sRGB" filterUnits="userSpaceOnUse"><feFlood flood-opacity="0" result="BackgroundImageFix"/><feBlend in="SourceGraphic" in2="BackgroundImageFix" result="shape"/><feColorMatrix in="SourceAlpha" result="hardAlpha" values="0 0 0 0 0 0 0 0 0 0 0 0 0 0 0 0 0 0 127 0"/><feOffset dx=".2" dy=".2"/><feGaussianBlur stdDeviation=".5"/><feComposite in2="hardAlpha" k2="-1" k3="1" operator="arithmetic"/><feColorMatrix values="0 0 0 0 0.636111 0 0 0 0 0.642222 0 0 0 0 0.666667 0 0 0 1 0"/><feBlend in2="shape" result="effect1_innerShadow_28327_3592"/></filter><filter id="J" width="4.19" height="6.04" x="9.95" y="9.27" color-interpolation-filters="sRGB" filterUnits="userSpaceOnUse"><feFlood flood-opacity="0" result="BackgroundImageFix"/><feBlend in="SourceGraphic" in2="BackgroundImageFix" result="shape"/><feGaussianBlur result="effect1_foregroundBlur_28327_3592" stdDeviation=".5"/></filter><filter id="S" width="1.9" height="2.8" x="6.85" y="11.44" color-interpolation-filters="sRGB" filterUnits="userSpaceOnUse"><feFlood flood-opacity="0" result="BackgroundImageFix"/><feBlend in="SourceGraphic" in2="BackgroundImageFix" result="shape"/><feGaussianBlur result="effect1_foregroundBlur_28327_3592" stdDeviation=".25"/></filter><filter id="T" width="1.9" height="2.8" x="9.88" y="11.44" color-interpolation-filters="sRGB" filterUnits="userSpaceOnUse"><feFlood flood-opacity="0" result="BackgroundImageFix"/><feBlend in="SourceGraphic" in2="BackgroundImageFix" result="shape"/><feGaussianBlur result="effect1_foregroundBlur_28327_3592" stdDeviation=".25"/></filter><filter id="aa" width="9.98" height="10.01" x="19.66" y="7.84" color-interpolation-filters="sRGB" filterUnits="userSpaceOnUse"><feFlood flood-opacity="0" result="BackgroundImageFix"/><feBlend in="SourceGraphic" in2="BackgroundImageFix" result="shape"/><feGaussianBlur result="effect1_foregroundBlur_28327_3592" stdDeviation=".5"/></filter><filter id="ac" width="2.07" height="6.71" x="25.89" y="18.39" color-interpolation-filters="sRGB" filterUnits="userSpaceOnUse"><feFlood flood-opacity="0" result="BackgroundImageFix"/><feBlend in="SourceGraphic" in2="BackgroundImageFix" result="shape"/><feGaussianBlur result="effect1_foregroundBlur_28327_3592" stdDeviation=".4"/></filter><filter id="ae" width="9.25" height="13.8" x="21.61" y="12.1" color-interpolation-filters="sRGB" filterUnits="userSpaceOnUse"><feFlood flood-opacity="0" result="BackgroundImageFix"/><feBlend in="SourceGraphic" in2="BackgroundImageFix" result="shape"/><feGaussianBlur result="effect1_foregroundBlur_28327_3592" stdDeviation="1"/></filter><filter id="ag" width="2.48" height="2.62" x="10.76" y="22.43" color-interpolation-filters="sRGB" filterUnits="userSpaceOnUse"><feFlood flood-opacity="0" result="BackgroundImageFix"/><feBlend in="SourceGraphic" in2="BackgroundImageFix" result="shape"/><feGaussianBlur result="effect1_foregroundBlur_28327_3592" stdDeviation=".35"/></filter><filter id="ai" width=".65" height="2.43" x="29" y="19.79" color-interpolation-filters="sRGB" filterUnits="userSpaceOnUse"><feFlood flood-opacity="0" result="BackgroundImageFix"/><feBlend in="SourceGraphic" in2="BackgroundImageFix" result="shape"/><feGaussianBlur result="effect1_foregroundBlur_28327_3592" stdDeviation=".13"/></filter></defs></svg>