<svg xmlns="http://www.w3.org/2000/svg" width="32" height="32" fill="none" viewBox="0 0 32 32"><g clip-path="url(#a)"><path fill="#9a645b" d="m28.77 8.26-3.82-1.57a.3.3 0 0 1-.17-.4l.79-2.13a1.56 1.56 0 0 0-1.46-2.1h-1.47c-2.09 0-3.8.57-4.93 2.25a.6.6 0 0 1-.52.27 8.7 8.7 0 0 0-7.26 3.9l-1.14 1.7a7.6 7.6 0 0 1-6.3 3.4.94.94 0 0 0-.94.94v6.12c0 .52.42.94.94.94h3.06a6.8 6.8 0 0 0 5.61 3h5.36q2.03 0 3.88.84l7.83 3.56a.93.93 0 0 0 1.32-.86V9.42c0-.51-.3-.97-.78-1.16"/><path fill="url(#b)" d="m28.77 8.26-3.82-1.57a.3.3 0 0 1-.17-.4l.79-2.13a1.56 1.56 0 0 0-1.46-2.1h-1.47c-2.09 0-3.8.57-4.93 2.25a.6.6 0 0 1-.52.27 8.7 8.7 0 0 0-7.26 3.9l-1.14 1.7a7.6 7.6 0 0 1-6.3 3.4.94.94 0 0 0-.94.94v6.12c0 .52.42.94.94.94h3.06a6.8 6.8 0 0 0 5.61 3h5.36q2.03 0 3.88.84l7.83 3.56a.93.93 0 0 0 1.32-.86V9.42c0-.51-.3-.97-.78-1.16"/><path fill="url(#c)" d="m28.77 8.26-3.82-1.57a.3.3 0 0 1-.17-.4l.79-2.13a1.56 1.56 0 0 0-1.46-2.1h-1.47c-2.09 0-3.8.57-4.93 2.25a.6.6 0 0 1-.52.27 8.7 8.7 0 0 0-7.26 3.9l-1.14 1.7a7.6 7.6 0 0 1-6.3 3.4.94.94 0 0 0-.94.94v6.12c0 .52.42.94.94.94h3.06a6.8 6.8 0 0 0 5.61 3h5.36q2.03 0 3.88.84l7.83 3.56a.93.93 0 0 0 1.32-.86V9.42c0-.51-.3-.97-.78-1.16"/><g filter="url(#d)"><path stroke="#b98a80" stroke-width="2.5" d="M22.5 6.47c0 3.5 2.63 6.75 6.4 7.81"/></g><path fill="url(#e)" d="M11.43 6.75c2.02-.9 3.32-1.25 3.35-1.27.05-.04 2.41-.16 2.97-1.23l-.04.06a.6.6 0 0 1-.52.27 8.7 8.7 0 0 0-5.76 2.17"/><path fill="url(#f)" d="M29.62 21.56H2.29a.94.94 0 0 1-.67-.9v-6.12c0-.52.42-.94.94-.94 2.53 0 4.9-1.27 6.3-3.39L10 8.51a8.7 8.7 0 0 1 7.26-3.9q.32 0 .52-.28A6.2 6.2 0 0 1 22.9 1.6h1.47a1.56 1.56 0 0 1 1.46 2.1l-.98 2.61a.3.3 0 0 0 .17.4l3.82 1.57c.47.2.78.65.78 1.16z"/><path fill="url(#g)" d="M5.55 21.55a6.8 6.8 0 0 0 5.6 3h5.37q2.03.01 3.88.84l7.83 3.56a.93.93 0 0 0 1.32-.86v-6.54z"/><path fill="url(#h)" d="M5.55 21.55a6.8 6.8 0 0 0 5.6 3h5.37q2.03.01 3.88.84l7.83 3.56a.93.93 0 0 0 1.32-.86v-6.54z"/><g filter="url(#i)"><path fill="#99625f" d="m28.76 27.19-11.63-5.63h11.63z"/></g><path fill="url(#j)" d="m28.7 8.26-3.82-1.57a.3.3 0 0 1-.17-.4c.35-.92.78-2.13.78-2.13a1.56 1.56 0 0 0-1.46-2.1h-1.47c-2.09 0-3.8.57-4.92 2.25a.6.6 0 0 1-.52.27 8.7 8.7 0 0 0-7.26 3.9l-1.14 1.71a7.6 7.6 0 0 1-6.3 3.39.94.94 0 0 0-.94.94v6.12c0 .52.42.94.94.94h3.06a6.8 6.8 0 0 0 5.6 3h5.37q2.03 0 3.88.84l7.83 3.56a.93.93 0 0 0 1.32-.86V9.42c0-.51-.31-.97-.78-1.16"/><path fill="url(#k)" d="m28.7 8.26-3.82-1.57a.3.3 0 0 1-.17-.4c.35-.92.78-2.13.78-2.13a1.56 1.56 0 0 0-1.46-2.1h-1.47c-2.09 0-3.8.57-4.92 2.25a.6.6 0 0 1-.52.27 8.7 8.7 0 0 0-7.26 3.9l-1.14 1.71a7.6 7.6 0 0 1-6.3 3.39.94.94 0 0 0-.94.94v6.12c0 .52.42.94.94.94h3.06a6.8 6.8 0 0 0 5.6 3h5.37q2.03 0 3.88.84l7.83 3.56a.93.93 0 0 0 1.32-.86V9.42c0-.51-.31-.97-.78-1.16"/><path fill="url(#l)" d="m28.7 8.26-3.82-1.57a.3.3 0 0 1-.17-.4c.35-.92.78-2.13.78-2.13a1.56 1.56 0 0 0-1.46-2.1h-1.47c-2.09 0-3.8.57-4.92 2.25a.6.6 0 0 1-.52.27 8.7 8.7 0 0 0-7.26 3.9l-1.14 1.71a7.6 7.6 0 0 1-6.3 3.39.94.94 0 0 0-.94.94v6.12c0 .52.42.94.94.94h3.06a6.8 6.8 0 0 0 5.6 3h5.37q2.03 0 3.88.84l7.83 3.56a.93.93 0 0 0 1.32-.86V9.42c0-.51-.31-.97-.78-1.16"/><path fill="url(#m)" d="m24.22 5.43.36-1.11c.11-.4 0-.72-.36-.72L23 3.57a4.8 4.8 0 0 0-4.45 3.24l-.74 1.87c-.16.49-.09.94.53.92a6.2 6.2 0 0 0 5.9-4.17"/><path fill="url(#n)" d="m24.22 5.43.36-1.11c.11-.4 0-.72-.36-.72L23 3.57a4.8 4.8 0 0 0-4.45 3.24l-.74 1.87c-.16.49-.09.94.53.92a6.2 6.2 0 0 0 5.9-4.17"/><path fill="url(#o)" d="M5.73 17.09c0-2.29-2.53-3.52-3.39-3.52a.8.8 0 0 0-.82.8v6.46c0 .4.44.72.85.72 1.6 0 3.36-2.23 3.36-4.46"/><path fill="url(#p)" d="M5.73 17.09c0-2.29-2.53-3.52-3.39-3.52a.8.8 0 0 0-.82.8v6.46c0 .4.44.72.85.72 1.6 0 3.36-2.23 3.36-4.46"/><path fill="url(#q)" d="M3.13 19.56a.5.5 0 0 1-.5-.5v-3c0-.28.22-.5.5-.5.27 0 .5.22.5.5v3a.5.5 0 0 1-.5.5"/><g filter="url(#r)"><path fill="#77453f" d="m23.24 22.03-1.45-1.45a.9.9 0 0 1 0-1.27.9.9 0 0 1 1.27 0l1.46 1.45a.9.9 0 0 1 0 1.27.9.9 0 0 1-1.28 0"/></g><path fill="url(#s)" d="m21.87 20.83 1.33 1.34c.32.32.86.32 1.18 0a.83.83 0 0 0 0-1.17l-1.34-1.34a.83.83 0 0 0-1.18 0 .83.83 0 0 0 0 1.17"/><path fill="url(#t)" d="m21.87 20.83 1.33 1.34c.32.32.86.32 1.18 0a.83.83 0 0 0 0-1.17l-1.34-1.34a.83.83 0 0 0-1.18 0 .83.83 0 0 0 0 1.17"/><path fill="url(#u)" d="m21.87 20.83 1.33 1.34c.32.32.86.32 1.18 0a.83.83 0 0 0 0-1.17l-1.34-1.34a.83.83 0 0 0-1.18 0 .83.83 0 0 0 0 1.17"/><g filter="url(#v)"><path fill="#7a4045" d="M25.48 17.95h-2.06a.9.9 0 0 1-.9-.9c0-.49.4-.9.9-.9h2.06c.49 0 .9.41.9.9s-.41.9-.9.9"/></g><path fill="url(#w)" d="M25.63 17.66h-1.9a.83.83 0 1 1 0-1.66h1.9a.83.83 0 1 1 0 1.66"/><path fill="url(#x)" d="M25.63 17.66h-1.9a.83.83 0 1 1 0-1.66h1.9a.83.83 0 1 1 0 1.66"/><path fill="url(#y)" d="M25.63 17.66h-1.9a.83.83 0 1 1 0-1.66h1.9a.83.83 0 1 1 0 1.66"/><g filter="url(#z)"><path fill="#7a4045" d="m23.78 12.91-1.21 1.22a.76.76 0 0 1-1.07 0 .76.76 0 0 1 0-1.06l1.22-1.22a.76.76 0 0 1 1.06 0c.29.3.29.77 0 1.06"/></g><path fill="url(#A)" d="m24.39 12.67-1.34 1.34a.83.83 0 0 1-1.18 0 .83.83 0 0 1 0-1.17l1.34-1.34a.83.83 0 0 1 1.18 0c.31.32.31.85 0 1.17"/><path fill="url(#B)" d="m24.39 12.67-1.34 1.34a.83.83 0 0 1-1.18 0 .83.83 0 0 1 0-1.17l1.34-1.34a.83.83 0 0 1 1.18 0c.31.32.31.85 0 1.17"/><g filter="url(#C)"><path fill="#875354" d="M12.36 16.56c-.44 0-.8-.34-.8-.75v-1.5c0-.41.36-.75.8-.75s.8.34.8.75v1.5c0 .41-.36.75-.8.75"/></g><path fill="url(#D)" d="M12.63 16.56c-.44 0-.8-.34-.8-.75v-1.5c0-.41.36-.75.8-.75s.8.34.8.75v1.5c0 .41-.36.75-.8.75"/><path fill="url(#E)" d="M12.63 16.56c-.44 0-.8-.34-.8-.75v-1.5c0-.41.36-.75.8-.75s.8.34.8.75v1.5c0 .41-.36.75-.8.75"/><path fill="url(#F)" d="M12.63 16.56c-.44 0-.8-.34-.8-.75v-1.5c0-.41.36-.75.8-.75s.8.34.8.75v1.5c0 .41-.36.75-.8.75"/><path fill="#eee0f9" d="M7.86 17.04c-.32 1.93.26 3.86.85 4.52h5.13c-2.68-1.65-3.98-3.07-4.6-4.45-.25-.76-1.2-.76-1.38-.07"/><path fill="url(#G)" d="M7.86 17.04c-.32 1.93.26 3.86.85 4.52h5.13c-2.68-1.65-3.98-3.07-4.6-4.45-.25-.76-1.2-.76-1.38-.07"/><path fill="url(#H)" d="M7.86 17.04c-.32 1.93.26 3.86.85 4.52h5.13c-2.68-1.65-3.98-3.07-4.6-4.45-.25-.76-1.2-.76-1.38-.07"/><g filter="url(#I)"><path stroke="url(#J)" stroke-linecap="round" stroke-width=".3" d="M8.67 17.2a8.3 8.3 0 0 0 3.35 4"/></g><g filter="url(#K)"><path fill="url(#L)" d="M28.5 9.6h.52v17.56h-.52z"/></g><g filter="url(#M)"><path stroke="url(#N)" stroke-width=".25" d="m22.36 13.53 1.59-1.56"/></g><g filter="url(#O)"><path stroke="url(#P)" stroke-width=".25" d="M23.69 16.6h2.03"/></g><g filter="url(#Q)"><path stroke="url(#R)" stroke-width=".25" d="m22.4 19.76 1.44 1.43"/></g><g filter="url(#S)"><circle cx="24" cy="11.88" r=".34" fill="#c89b8b"/></g><g filter="url(#T)"><circle cx="25.79" cy="16.83" r=".34" fill="#c89b8b"/></g><g filter="url(#U)"><circle cx="23.86" cy="21.58" r=".34" fill="#c89b8b" transform="rotate(44.84 23.86 21.58)"/></g><path fill="url(#V)" d="M18.08 21.56v.38H5.82l-.27-.38z"/><path fill="url(#W)" d="M18.08 21.56v.38H5.82l-.27-.38z"/><g filter="url(#X)"><path fill="url(#Y)" d="m16.68 6.58 1.19-2.28c-.28.53-1.16.8-1.87.98z"/></g></g><defs><linearGradient id="g" x1="9.55" x2="9.55" y1="21.55" y2="24.99" gradientUnits="userSpaceOnUse"><stop stop-color="#80376b" stop-opacity="0"/><stop offset="1" stop-color="#84475a"/><stop offset="1" stop-color="#7a3b4f"/><stop offset="1" stop-color="#80376b"/></linearGradient><linearGradient id="o" x1="3.63" x2="3.63" y1="13.57" y2="21.55" gradientUnits="userSpaceOnUse"><stop stop-color="#ffa8b1"/><stop offset="1" stop-color="#f791b1"/></linearGradient><linearGradient id="p" x1="5.73" x2="5.73" y1="22.35" y2="17.22" gradientUnits="userSpaceOnUse"><stop stop-color="#e585b0"/><stop offset="1" stop-color="#e585b0" stop-opacity="0"/></linearGradient><linearGradient id="q" x1="2.41" x2="5.78" y1="17.56" y2="17.56" gradientUnits="userSpaceOnUse"><stop offset=".01" stop-color="#26141b"/><stop offset=".37" stop-color="#3d2f37"/><stop offset="1" stop-color="#312125"/></linearGradient><linearGradient id="s" x1="21.27" x2="23.12" y1="22.82" y2="20.63" gradientUnits="userSpaceOnUse"><stop stop-color="#9e6d59"/><stop offset="1" stop-color="#a56558"/></linearGradient><linearGradient id="t" x1="22.25" x2="23.61" y1="21.61" y2="20.22" gradientUnits="userSpaceOnUse"><stop stop-color="#9d5960"/><stop offset="1" stop-color="#9d5960" stop-opacity="0"/></linearGradient><linearGradient id="w" x1="24.07" x2="24.07" y1="17.85" y2="15.43" gradientUnits="userSpaceOnUse"><stop stop-color="#a66d5b"/><stop offset="1" stop-color="#a56558"/></linearGradient><linearGradient id="x" x1="24.54" x2="24.54" y1="18.71" y2="16.83" gradientUnits="userSpaceOnUse"><stop offset=".53" stop-color="#9d5960"/><stop offset="1" stop-color="#9d5960" stop-opacity="0"/></linearGradient><linearGradient id="A" x1="24.22" x2="22.63" y1="13.68" y2="12.28" gradientUnits="userSpaceOnUse"><stop stop-color="#a66d5b"/><stop offset="1" stop-color="#a56558"/></linearGradient><linearGradient id="D" x1="13.17" x2="12.19" y1="15.06" y2="15.06" gradientUnits="userSpaceOnUse"><stop stop-color="#574d50"/><stop offset=".86" stop-color="#31232c"/></linearGradient><linearGradient id="E" x1="13.68" x2="13.68" y1="16.9" y2="15.81" gradientUnits="userSpaceOnUse"><stop stop-color="#552d52"/><stop offset="1" stop-color="#552d52" stop-opacity="0"/></linearGradient><linearGradient id="F" x1="11.49" x2="12.22" y1="15.24" y2="15.24" gradientUnits="userSpaceOnUse"><stop stop-color="#574d50"/><stop offset="1" stop-color="#574d50" stop-opacity="0"/></linearGradient><linearGradient id="H" x1="10.03" x2="10.03" y1="21.89" y2="20.33" gradientUnits="userSpaceOnUse"><stop stop-color="#e0ccf1"/><stop offset="1" stop-color="#e0ccf1" stop-opacity="0"/></linearGradient><linearGradient id="J" x1="8.67" x2="10.58" y1="17.49" y2="20.47" gradientUnits="userSpaceOnUse"><stop stop-color="#fff"/><stop offset="1" stop-color="#fff" stop-opacity="0"/></linearGradient><linearGradient id="L" x1="28.76" x2="28.76" y1="9.6" y2="27.16" gradientUnits="userSpaceOnUse"><stop stop-color="#b98a80"/><stop offset="1" stop-color="#b98a80" stop-opacity="0"/></linearGradient><linearGradient id="N" x1="23.95" x2="22.36" y1="12.15" y2="13.64" gradientUnits="userSpaceOnUse"><stop stop-color="#c89b8b"/><stop offset="1" stop-color="#c89b8b" stop-opacity="0"/></linearGradient><linearGradient id="P" x1="25.02" x2="23.44" y1="15.51" y2="17" gradientUnits="userSpaceOnUse"><stop stop-color="#c89b8b"/><stop offset="1" stop-color="#c89b8b" stop-opacity="0"/></linearGradient><linearGradient id="R" x1="24.12" x2="21.94" y1="19.93" y2="19.87" gradientUnits="userSpaceOnUse"><stop stop-color="#c89b8b"/><stop offset="1" stop-color="#c89b8b" stop-opacity="0"/></linearGradient><linearGradient id="V" x1="11.81" x2="11.81" y1="21.46" y2="21.79" gradientUnits="userSpaceOnUse"><stop stop-color="#561f1a"/><stop offset="1" stop-color="#561f1a" stop-opacity="0"/></linearGradient><linearGradient id="W" x1="18.08" x2="14.88" y1="21.86" y2="21.86" gradientUnits="userSpaceOnUse"><stop stop-color="#9a635e"/><stop offset="1" stop-color="#9a635e" stop-opacity="0"/></linearGradient><linearGradient id="Y" x1="17.63" x2="16.55" y1="4.21" y2="5.52" gradientUnits="userSpaceOnUse"><stop stop-color="#eec8c1"/><stop offset=".95" stop-color="#a58a85" stop-opacity="0"/></linearGradient><filter id="d" width="13.99" height="15.02" x="18.25" y="3.47" color-interpolation-filters="sRGB" filterUnits="userSpaceOnUse"><feFlood flood-opacity="0" result="BackgroundImageFix"/><feBlend in="SourceGraphic" in2="BackgroundImageFix" result="shape"/><feGaussianBlur result="effect1_foregroundBlur_28327_3043" stdDeviation="1.5"/></filter><filter id="i" width="14.63" height="8.63" x="15.63" y="20.06" color-interpolation-filters="sRGB" filterUnits="userSpaceOnUse"><feFlood flood-opacity="0" result="BackgroundImageFix"/><feBlend in="SourceGraphic" in2="BackgroundImageFix" result="shape"/><feGaussianBlur result="effect1_foregroundBlur_28327_3043" stdDeviation=".75"/></filter><filter id="r" width="4.25" height="4.25" x="21.03" y="18.55" color-interpolation-filters="sRGB" filterUnits="userSpaceOnUse"><feFlood flood-opacity="0" result="BackgroundImageFix"/><feBlend in="SourceGraphic" in2="BackgroundImageFix" result="shape"/><feGaussianBlur result="effect1_foregroundBlur_28327_3043" stdDeviation=".25"/></filter><filter id="v" width="4.86" height="2.8" x="22.02" y="15.65" color-interpolation-filters="sRGB" filterUnits="userSpaceOnUse"><feFlood flood-opacity="0" result="BackgroundImageFix"/><feBlend in="SourceGraphic" in2="BackgroundImageFix" result="shape"/><feGaussianBlur result="effect1_foregroundBlur_28327_3043" stdDeviation=".25"/></filter><filter id="z" width="3.71" height="3.71" x="20.79" y="11.13" color-interpolation-filters="sRGB" filterUnits="userSpaceOnUse"><feFlood flood-opacity="0" result="BackgroundImageFix"/><feBlend in="SourceGraphic" in2="BackgroundImageFix" result="shape"/><feGaussianBlur result="effect1_foregroundBlur_28327_3043" stdDeviation=".25"/></filter><filter id="C" width="3.6" height="5" x="10.56" y="12.56" color-interpolation-filters="sRGB" filterUnits="userSpaceOnUse"><feFlood flood-opacity="0" result="BackgroundImageFix"/><feBlend in="SourceGraphic" in2="BackgroundImageFix" result="shape"/><feGaussianBlur result="effect1_foregroundBlur_28327_3043" stdDeviation=".5"/></filter><filter id="I" width="4.64" height="5.3" x="8.02" y="16.54" color-interpolation-filters="sRGB" filterUnits="userSpaceOnUse"><feFlood flood-opacity="0" result="BackgroundImageFix"/><feBlend in="SourceGraphic" in2="BackgroundImageFix" result="shape"/><feGaussianBlur result="effect1_foregroundBlur_28327_3043" stdDeviation=".25"/></filter><filter id="K" width="2.02" height="19.06" x="27.75" y="8.85" color-interpolation-filters="sRGB" filterUnits="userSpaceOnUse"><feFlood flood-opacity="0" result="BackgroundImageFix"/><feBlend in="SourceGraphic" in2="BackgroundImageFix" result="shape"/><feGaussianBlur result="effect1_foregroundBlur_28327_3043" stdDeviation=".38"/></filter><filter id="M" width="2.76" height="2.74" x="21.77" y="11.38" color-interpolation-filters="sRGB" filterUnits="userSpaceOnUse"><feFlood flood-opacity="0" result="BackgroundImageFix"/><feBlend in="SourceGraphic" in2="BackgroundImageFix" result="shape"/><feGaussianBlur result="effect1_foregroundBlur_28327_3043" stdDeviation=".25"/></filter><filter id="O" width="3.03" height="1.25" x="23.19" y="15.97" color-interpolation-filters="sRGB" filterUnits="userSpaceOnUse"><feFlood flood-opacity="0" result="BackgroundImageFix"/><feBlend in="SourceGraphic" in2="BackgroundImageFix" result="shape"/><feGaussianBlur result="effect1_foregroundBlur_28327_3043" stdDeviation=".25"/></filter><filter id="Q" width="2.62" height="2.61" x="21.81" y="19.17" color-interpolation-filters="sRGB" filterUnits="userSpaceOnUse"><feFlood flood-opacity="0" result="BackgroundImageFix"/><feBlend in="SourceGraphic" in2="BackgroundImageFix" result="shape"/><feGaussianBlur result="effect1_foregroundBlur_28327_3043" stdDeviation=".25"/></filter><filter id="S" width="1.68" height="1.68" x="23.16" y="11.04" color-interpolation-filters="sRGB" filterUnits="userSpaceOnUse"><feFlood flood-opacity="0" result="BackgroundImageFix"/><feBlend in="SourceGraphic" in2="BackgroundImageFix" result="shape"/><feGaussianBlur result="effect1_foregroundBlur_28327_3043" stdDeviation=".25"/></filter><filter id="T" width="1.68" height="1.68" x="24.95" y="15.99" color-interpolation-filters="sRGB" filterUnits="userSpaceOnUse"><feFlood flood-opacity="0" result="BackgroundImageFix"/><feBlend in="SourceGraphic" in2="BackgroundImageFix" result="shape"/><feGaussianBlur result="effect1_foregroundBlur_28327_3043" stdDeviation=".25"/></filter><filter id="U" width="1.68" height="1.68" x="23.01" y="20.73" color-interpolation-filters="sRGB" filterUnits="userSpaceOnUse"><feFlood flood-opacity="0" result="BackgroundImageFix"/><feBlend in="SourceGraphic" in2="BackgroundImageFix" result="shape"/><feGaussianBlur result="effect1_foregroundBlur_28327_3043" stdDeviation=".25"/></filter><filter id="X" width="2.17" height="2.58" x="15.85" y="4.15" color-interpolation-filters="sRGB" filterUnits="userSpaceOnUse"><feFlood flood-opacity="0" result="BackgroundImageFix"/><feBlend in="SourceGraphic" in2="BackgroundImageFix" result="shape"/><feGaussianBlur result="effect1_foregroundBlur_28327_3043" stdDeviation=".07"/></filter><radialGradient id="b" cx="0" cy="0" r="1" gradientTransform="rotate(139.09 11.8 6.47)scale(3.41162 1.34459)" gradientUnits="userSpaceOnUse"><stop stop-color="#b68a7f"/><stop offset="1" stop-color="#b68a7f" stop-opacity="0"/></radialGradient><radialGradient id="c" cx="0" cy="0" r="1" gradientTransform="rotate(110.2 1.12 6.25)scale(7.05918 5.76693)" gradientUnits="userSpaceOnUse"><stop stop-color="#eec8c1"/><stop offset=".95" stop-color="#a58a85" stop-opacity="0"/></radialGradient><radialGradient id="e" cx="0" cy="0" r="1" gradientTransform="rotate(138.2 8.16 5.51)scale(3.45849 4.90823)" gradientUnits="userSpaceOnUse"><stop stop-color="#745953"/><stop offset="1" stop-color="#876962" stop-opacity="0"/></radialGradient><radialGradient id="f" cx="0" cy="0" r="1" gradientTransform="rotate(-20.9 72.23 -16.8)scale(18.3977 10.0546)" gradientUnits="userSpaceOnUse"><stop offset=".11" stop-color="#722f5f"/><stop offset="1" stop-color="#80376b" stop-opacity="0"/></radialGradient><radialGradient id="h" cx="0" cy="0" r="1" gradientTransform="rotate(63.44 -11.17 17.12)scale(3.70349 10.7471)" gradientUnits="userSpaceOnUse"><stop stop-color="#7a4f51"/><stop offset="1" stop-color="#7a4f51" stop-opacity="0"/></radialGradient><radialGradient id="j" cx="0" cy="0" r="1" gradientTransform="rotate(206 16.32 8.86)scale(8.41363 8.46144)" gradientUnits="userSpaceOnUse"><stop stop-color="#8d515b"/><stop offset="1" stop-color="#8d515b" stop-opacity="0"/></radialGradient><radialGradient id="k" cx="0" cy="0" r="1" gradientTransform="rotate(206 16.32 8.86)scale(8.41363 8.46144)" gradientUnits="userSpaceOnUse"><stop stop-color="#8d515b"/><stop offset="1" stop-color="#8d515b" stop-opacity="0"/></radialGradient><radialGradient id="l" cx="0" cy="0" r="1" gradientTransform="rotate(-76.13 26.82 1.56)scale(5.21454 16.8117)" gradientUnits="userSpaceOnUse"><stop stop-color="#863969"/><stop offset=".69" stop-color="#863969" stop-opacity="0"/></radialGradient><radialGradient id="m" cx="0" cy="0" r="1" gradientTransform="matrix(7.21909 -6.87464 2.868 3.0117 18.56 9.1)" gradientUnits="userSpaceOnUse"><stop stop-color="#ffa9c7"/><stop offset="1" stop-color="#ff768a"/></radialGradient><radialGradient id="n" cx="0" cy="0" r="1" gradientTransform="rotate(46.47 3.72 27.84)scale(2.58621 8.49082)" gradientUnits="userSpaceOnUse"><stop stop-color="#ff7287" stop-opacity="0"/><stop offset="1" stop-color="#ff677e"/></radialGradient><radialGradient id="u" cx="0" cy="0" r="1" gradientTransform="rotate(39.92 -16.13 38.92)scale(2.32979 13.1512)" gradientUnits="userSpaceOnUse"><stop stop-color="#8b5646"/><stop offset="1" stop-color="#8b5646" stop-opacity="0"/></radialGradient><radialGradient id="y" cx="0" cy="0" r="1" gradientTransform="matrix(2.07007 0 0 5.44868 22.47 16.83)" gradientUnits="userSpaceOnUse"><stop stop-color="#8b5646"/><stop offset="1" stop-color="#8b5646" stop-opacity="0"/></radialGradient><radialGradient id="B" cx="0" cy="0" r="1" gradientTransform="rotate(-69.83 21.55 -8.81)scale(1.81295)" gradientUnits="userSpaceOnUse"><stop stop-color="#9d5960"/><stop offset="1" stop-color="#9d5960" stop-opacity="0"/></radialGradient><radialGradient id="G" cx="0" cy="0" r="1" gradientTransform="rotate(156.66 3.94 10.61)scale(4.10129 5.31031)" gradientUnits="userSpaceOnUse"><stop offset=".83" stop-color="#d7cedc" stop-opacity="0"/><stop offset="1" stop-color="#d2cad7"/></radialGradient><clipPath id="a"><path fill="#fff" d="M0 0h32v32H0z"/></clipPath></defs></svg>