<svg xmlns="http://www.w3.org/2000/svg" width="32" height="32" fill="none" viewBox="0 0 32 32"><path fill="#568831" d="M14.67 8.32A4.5 4.5 0 0 0 10.52 2 4.52 4.52 0 0 0 7 9.36V10c.27 0 .45.27.34.52l-3.81 8.63 5.38 2.2z"/><path fill="url(#a)" d="M14.67 8.32A4.5 4.5 0 0 0 10.52 2 4.52 4.52 0 0 0 7 9.36V10c.27 0 .45.27.34.52l-3.81 8.63 5.38 2.2z"/><path fill="url(#b)" d="M14.67 8.32A4.5 4.5 0 0 0 10.52 2 4.52 4.52 0 0 0 7 9.36V10c.27 0 .45.27.34.52l-3.81 8.63 5.38 2.2z"/><path fill="url(#c)" d="M14.67 8.32A4.5 4.5 0 0 0 10.52 2 4.52 4.52 0 0 0 7 9.36V10c.27 0 .45.27.34.52l-3.81 8.63 5.38 2.2z"/><path fill="url(#d)" d="M14.67 8.32A4.5 4.5 0 0 0 10.52 2 4.52 4.52 0 0 0 7 9.36V10c.27 0 .45.27.34.52l-3.81 8.63 5.38 2.2z"/><path fill="url(#e)" d="m11.72 15 .88-2H6.24l-.88 2z"/><path fill="url(#f)" d="m11.72 15 .88-2H6.24l-.88 2z"/><g filter="url(#g)"><path fill="url(#h)" d="M7 3.68 4.79 6.15c-.5.54-1.21.85-1.95.85h-.33a.5.5 0 0 0-.51.51A2.5 2.5 0 0 0 4.49 10H7z"/><path fill="url(#i)" d="M7 3.68 4.79 6.15c-.5.54-1.21.85-1.95.85h-.33a.5.5 0 0 0-.51.51A2.5 2.5 0 0 0 4.49 10H7z"/><path fill="url(#j)" d="M7 3.68 4.79 6.15c-.5.54-1.21.85-1.95.85h-.33a.5.5 0 0 0-.51.51A2.5 2.5 0 0 0 4.49 10H7z"/><path fill="url(#k)" d="M7 3.68 4.79 6.15c-.5.54-1.21.85-1.95.85h-.33a.5.5 0 0 0-.51.51A2.5 2.5 0 0 0 4.49 10H7z"/></g><path fill="url(#l)" d="M10.44 7.02a.5.5 0 1 0 0-1 .5.5 0 0 0 0 1"/><path fill="url(#m)" d="M10.44 7.02a.5.5 0 1 0 0-1 .5.5 0 0 0 0 1"/><path fill="url(#n)" d="M10.44 7.02a.5.5 0 1 0 0-1 .5.5 0 0 0 0 1"/><path fill="url(#o)" d="M27.43 13.57A5 5 0 0 1 23.98 15H5.36C4.25 17.51 3 19.54 3 22a8 8 0 0 0 8 8h8a11 11 0 0 0 11-11v-4.36a1.5 1.5 0 0 0-2.57-1.07"/><path fill="url(#p)" d="M27.43 13.57A5 5 0 0 1 23.98 15H5.36C4.25 17.51 3 19.54 3 22a8 8 0 0 0 8 8h8a11 11 0 0 0 11-11v-4.36a1.5 1.5 0 0 0-2.57-1.07"/><path fill="url(#q)" d="M27.43 13.57A5 5 0 0 1 23.98 15H5.36C4.25 17.51 3 19.54 3 22a8 8 0 0 0 8 8h8a11 11 0 0 0 11-11v-4.36a1.5 1.5 0 0 0-2.57-1.07"/><path fill="url(#r)" d="M27.43 13.57q0 .02 0 0c-.17.17-.34.3-.43.38V19a11 11 0 0 1-11 11h3a11 11 0 0 0 11-11v-4.36a1.5 1.5 0 0 0-2.57-1.07"/><path fill="url(#s)" d="M27.43 13.57q0 .02 0 0c-.17.17-.34.3-.43.38V19a11 11 0 0 1-11 11h3a11 11 0 0 0 11-11v-4.36a1.5 1.5 0 0 0-2.57-1.07"/><path fill="url(#t)" d="M27.43 13.57q0 .02 0 0c-.17.17-.34.3-.43.38V19a11 11 0 0 1-11 11h3a11 11 0 0 0 11-11v-4.36a1.5 1.5 0 0 0-2.57-1.07"/><g filter="url(#u)"><path fill="url(#v)" d="M5.36 15C4.25 17.51 3 19.54 3 22a8 8 0 0 0 6 7.75V22.4c0-1.41.34-2.81.99-4.06L11.71 15z"/><path fill="url(#w)" d="M5.36 15C4.25 17.51 3 19.54 3 22a8 8 0 0 0 6 7.75V22.4c0-1.41.34-2.81.99-4.06L11.71 15z"/><path fill="url(#x)" d="M5.36 15C4.25 17.51 3 19.54 3 22a8 8 0 0 0 6 7.75V22.4c0-1.41.34-2.81.99-4.06L11.71 15z"/></g><g filter="url(#y)"><path fill="url(#z)" d="M27 13.95A5 5 0 0 1 23.98 15H11.71l-1.72 3.34q-.3.6-.52 1.23c-.3.87-.3 1.8 0 2.67.96 2.8 3.31 4.76 6.06 4.76h4.84c2.05 0 4.13-.72 5.15-2.48.94-1.63 1.48-3.5 1.48-5.52z"/><path fill="url(#A)" d="M27 13.95A5 5 0 0 1 23.98 15H11.71l-1.72 3.34q-.3.6-.52 1.23c-.3.87-.3 1.8 0 2.67.96 2.8 3.31 4.76 6.06 4.76h4.84c2.05 0 4.13-.72 5.15-2.48.94-1.63 1.48-3.5 1.48-5.52z"/><path fill="url(#B)" d="M27 13.95A5 5 0 0 1 23.98 15H11.71l-1.72 3.34q-.3.6-.52 1.23c-.3.87-.3 1.8 0 2.67.96 2.8 3.31 4.76 6.06 4.76h4.84c2.05 0 4.13-.72 5.15-2.48.94-1.63 1.48-3.5 1.48-5.52z"/><path fill="url(#C)" d="M27 13.95A5 5 0 0 1 23.98 15H11.71l-1.72 3.34q-.3.6-.52 1.23c-.3.87-.3 1.8 0 2.67.96 2.8 3.31 4.76 6.06 4.76h4.84c2.05 0 4.13-.72 5.15-2.48.94-1.63 1.48-3.5 1.48-5.52z"/><path fill="url(#D)" d="M27 13.95A5 5 0 0 1 23.98 15H11.71l-1.72 3.34q-.3.6-.52 1.23c-.3.87-.3 1.8 0 2.67.96 2.8 3.31 4.76 6.06 4.76h4.84c2.05 0 4.13-.72 5.15-2.48.94-1.63 1.48-3.5 1.48-5.52z"/></g><path fill="url(#E)" d="M27 13.95A5 5 0 0 1 23.98 15H11.71l-1.72 3.34q-.3.6-.52 1.23c-.3.87-.3 1.8 0 2.67.96 2.8 3.31 4.76 6.06 4.76h4.84c2.05 0 4.13-.72 5.15-2.48.94-1.63 1.48-3.5 1.48-5.52z"/><g filter="url(#F)"><path fill="url(#G)" d="m10.44 12.1 2.34-5.63h1.6l-2.32 5.62z"/></g><defs><radialGradient id="a" cx="0" cy="0" r="1" gradientTransform="rotate(126.98 6.3 5.52)scale(6.65001 7.19865)" gradientUnits="userSpaceOnUse"><stop stop-color="#71a650"/><stop offset="1" stop-color="#71a650" stop-opacity="0"/></radialGradient><radialGradient id="b" cx="0" cy="0" r="1" gradientTransform="rotate(-86.91 10.3 -1.07)scale(7.5422 6.93921)" gradientUnits="userSpaceOnUse"><stop offset=".87" stop-color="#71a650" stop-opacity="0"/><stop offset="1" stop-color="#71a650"/></radialGradient><radialGradient id="c" cx="0" cy="0" r="1" gradientTransform="rotate(119.17 -.16 7.64)scale(3.07777 1.57506)" gradientUnits="userSpaceOnUse"><stop stop-color="#4c6634"/><stop offset="1" stop-color="#4c6634" stop-opacity="0"/></radialGradient><radialGradient id="d" cx="0" cy="0" r="1" gradientTransform="rotate(181.18 9.36 4.56)scale(6.06379 6.20647)" gradientUnits="userSpaceOnUse"><stop stop-color="#4c6634"/><stop offset="1" stop-color="#4c6634" stop-opacity="0"/></radialGradient><radialGradient id="h" cx="0" cy="0" r="1" gradientTransform="matrix(5.8125 0 0 5.4375 3.78 7.62)" gradientUnits="userSpaceOnUse"><stop stop-color="#fac252"/><stop offset="1" stop-color="#d2a776"/></radialGradient><radialGradient id="k" cx="0" cy="0" r="1" gradientTransform="matrix(6.1875 1.78125 -.7711 2.67853 2.5 6.44)" gradientUnits="userSpaceOnUse"><stop stop-color="#ffda66"/><stop offset="1" stop-color="#ffda66" stop-opacity="0"/></radialGradient><radialGradient id="l" cx="0" cy="0" r="1" gradientTransform="rotate(125.84 3.67 5.88)scale(.69386 .6186)" gradientUnits="userSpaceOnUse"><stop offset=".01" stop-color="#433437"/><stop offset="1" stop-color="#3b2838"/></radialGradient><radialGradient id="m" cx="0" cy="0" r="1" gradientTransform="rotate(137.64 4.07 5.25)scale(.35946 .31624)" gradientUnits="userSpaceOnUse"><stop stop-color="#5c5051"/><stop offset="1" stop-color="#5c5051" stop-opacity="0"/></radialGradient><radialGradient id="p" cx="0" cy="0" r="1" gradientTransform="matrix(0 5.9375 -6.375 0 16.5 23.06)" gradientUnits="userSpaceOnUse"><stop offset=".45" stop-color="#a58cbe"/><stop offset="1" stop-color="#a58cbe" stop-opacity="0"/></radialGradient><radialGradient id="s" cx="0" cy="0" r="1" gradientTransform="matrix(-2.875 0 0 -6.9375 31.44 19.13)" gradientUnits="userSpaceOnUse"><stop stop-color="#e7e4ea"/><stop offset="0" stop-color="#d8d4dd"/><stop offset="1" stop-color="#d8d4dd" stop-opacity="0"/></radialGradient><radialGradient id="t" cx="0" cy="0" r="1" gradientTransform="rotate(15.12 -44.86 106.1)scale(2.39547 5.16111)" gradientUnits="userSpaceOnUse"><stop stop-color="#e7e4ea"/><stop offset="0" stop-color="#d8d4dd"/><stop offset=".88" stop-color="#d8d4dd" stop-opacity="0"/></radialGradient><radialGradient id="w" cx="0" cy="0" r="1" gradientTransform="rotate(206.19 7.7 7.1)scale(2.12431 3.53998)" gradientUnits="userSpaceOnUse"><stop stop-color="#87645f"/><stop offset="1" stop-color="#87645f" stop-opacity="0"/></radialGradient><radialGradient id="x" cx="0" cy="0" r="1" gradientTransform="rotate(205.45 8.31 7.15)scale(2.50907 9.69633)" gradientUnits="userSpaceOnUse"><stop offset=".44" stop-color="#533733"/><stop offset="1" stop-color="#533733" stop-opacity="0"/></radialGradient><radialGradient id="A" cx="0" cy="0" r="1" gradientTransform="rotate(-40.6 46.02 14.24)scale(21.8964 22.4895)" gradientUnits="userSpaceOnUse"><stop stop-color="#988ba4"/><stop offset=".74" stop-color="#988ba4" stop-opacity="0"/></radialGradient><radialGradient id="B" cx="0" cy="0" r="1" gradientTransform="rotate(127.4 10.46 10.46)scale(26.7512 21.0614)" gradientUnits="userSpaceOnUse"><stop offset=".57" stop-color="#988ba4" stop-opacity="0"/><stop offset="1" stop-color="#988ba4"/></radialGradient><radialGradient id="C" cx="0" cy="0" r="1" gradientTransform="rotate(116.79 9.82 15.05)scale(7.21137 7.21083)" gradientUnits="userSpaceOnUse"><stop stop-color="#f5f1fa"/><stop offset="1" stop-color="#f5f1fa" stop-opacity="0"/></radialGradient><radialGradient id="D" cx="0" cy="0" r="1" gradientTransform="rotate(170.8 11.81 7.97)scale(10.8271 5.27601)" gradientUnits="userSpaceOnUse"><stop stop-color="#f5f1fa"/><stop offset="1" stop-color="#f5f1fa" stop-opacity="0"/></radialGradient><radialGradient id="E" cx="0" cy="0" r="1" gradientTransform="rotate(130.77 11.3 12.81)scale(8.99588 4.38368)" gradientUnits="userSpaceOnUse"><stop stop-color="#f5f1fa"/><stop offset="1" stop-color="#f5f1fa" stop-opacity="0"/></radialGradient><linearGradient id="e" x1="5.36" x2="11.5" y1="15" y2="15" gradientUnits="userSpaceOnUse"><stop stop-color="#b0abae"/><stop offset=".61" stop-color="#d9cfe3"/><stop offset="1" stop-color="#e2d9eb"/></linearGradient><linearGradient id="f" x1="12.94" x2="11.19" y1="15.5" y2="15" gradientUnits="userSpaceOnUse"><stop stop-color="#b0abae"/><stop offset="1" stop-color="#b0abae" stop-opacity="0"/></linearGradient><linearGradient id="i" x1="4.59" x2="4.64" y1="10.52" y2="9.62" gradientUnits="userSpaceOnUse"><stop stop-color="#c9a37d"/><stop offset="1" stop-color="#c9a37d" stop-opacity="0"/></linearGradient><linearGradient id="j" x1="7" x2="6.16" y1="2.97" y2="6.25" gradientUnits="userSpaceOnUse"><stop stop-color="#e3b651"/><stop offset="1" stop-color="#e3b651" stop-opacity="0"/></linearGradient><linearGradient id="n" x1="10.34" x2="10" y1="6.12" y2="5.9" gradientUnits="userSpaceOnUse"><stop stop-color="#5c5051" stop-opacity="0"/><stop offset="1" stop-color="#5c5051"/></linearGradient><linearGradient id="o" x1="18.81" x2="18.81" y1="33.75" y2="27" gradientUnits="userSpaceOnUse"><stop offset=".25" stop-color="#997bb6"/><stop offset="1" stop-color="#bbaaca"/></linearGradient><linearGradient id="q" x1="15.69" x2="15.69" y1="32.94" y2="28.94" gradientUnits="userSpaceOnUse"><stop stop-color="#8e70a9"/><stop offset="1" stop-color="#8e70a9" stop-opacity="0"/></linearGradient><linearGradient id="r" x1="26.13" x2="28.06" y1="29.06" y2="16.88" gradientUnits="userSpaceOnUse"><stop stop-color="#9883ad"/><stop offset="1" stop-color="#f8f5fc"/></linearGradient><linearGradient id="v" x1="7.36" x2="7.35" y1="13.81" y2="33.52" gradientUnits="userSpaceOnUse"><stop stop-color="#794e49"/><stop offset="1" stop-color="#5b2a3f"/></linearGradient><linearGradient id="z" x1="27.38" x2="17.06" y1="13.25" y2="27.38" gradientUnits="userSpaceOnUse"><stop stop-color="#ebe7f0"/><stop offset="1" stop-color="#cfc3dd"/></linearGradient><linearGradient id="G" x1="11.48" x2="13.91" y1="11.38" y2="5.89" gradientUnits="userSpaceOnUse"><stop stop-color="#629440"/><stop offset="1" stop-color="#629440" stop-opacity="0"/></linearGradient><filter id="g" width="5.05" height="6.47" x="2" y="3.53" color-interpolation-filters="sRGB" filterUnits="userSpaceOnUse"><feFlood flood-opacity="0" result="BackgroundImageFix"/><feBlend in="SourceGraphic" in2="BackgroundImageFix" result="shape"/><feColorMatrix in="SourceAlpha" result="hardAlpha" values="0 0 0 0 0 0 0 0 0 0 0 0 0 0 0 0 0 0 127 0"/><feOffset dx=".05" dy="-.15"/><feGaussianBlur stdDeviation=".17"/><feComposite in2="hardAlpha" k2="-1" k3="1" operator="arithmetic"/><feColorMatrix values="0 0 0 0 0.804167 0 0 0 0 0.580149 0 0 0 0 0.281458 0 0 0 1 0"/><feBlend in2="shape" result="effect1_innerShadow_28327_4986"/></filter><filter id="u" width="8.96" height="14.75" x="3" y="15" color-interpolation-filters="sRGB" filterUnits="userSpaceOnUse"><feFlood flood-opacity="0" result="BackgroundImageFix"/><feBlend in="SourceGraphic" in2="BackgroundImageFix" result="shape"/><feColorMatrix in="SourceAlpha" result="hardAlpha" values="0 0 0 0 0 0 0 0 0 0 0 0 0 0 0 0 0 0 127 0"/><feOffset dx=".25"/><feGaussianBlur stdDeviation=".5"/><feComposite in2="hardAlpha" k2="-1" k3="1" operator="arithmetic"/><feColorMatrix values="0 0 0 0 0.325 0 0 0 0 0.214519 0 0 0 0 0.201771 0 0 0 1 0"/><feBlend in2="shape" result="effect1_innerShadow_28327_4986"/></filter><filter id="y" width="17.85" height="13.2" x="9.25" y="13.8" color-interpolation-filters="sRGB" filterUnits="userSpaceOnUse"><feFlood flood-opacity="0" result="BackgroundImageFix"/><feBlend in="SourceGraphic" in2="BackgroundImageFix" result="shape"/><feColorMatrix in="SourceAlpha" result="hardAlpha" values="0 0 0 0 0 0 0 0 0 0 0 0 0 0 0 0 0 0 127 0"/><feOffset dx=".1" dy="-.15"/><feGaussianBlur stdDeviation=".2"/><feComposite in2="hardAlpha" k2="-1" k3="1" operator="arithmetic"/><feColorMatrix values="0 0 0 0 0.592875 0 0 0 0 0.535503 0 0 0 0 0.645833 0 0 0 1 0"/><feBlend in2="shape" result="effect1_innerShadow_28327_4986"/></filter><filter id="F" width="5.94" height="7.63" x="9.44" y="5.47" color-interpolation-filters="sRGB" filterUnits="userSpaceOnUse"><feFlood flood-opacity="0" result="BackgroundImageFix"/><feBlend in="SourceGraphic" in2="BackgroundImageFix" result="shape"/><feGaussianBlur result="effect1_foregroundBlur_28327_4986" stdDeviation=".5"/></filter></defs></svg>