<svg xmlns="http://www.w3.org/2000/svg" width="32" height="32" fill="none" viewBox="0 0 32 32"><g filter="url(#a)"><path fill="url(#b)" d="m4.65 19.26-.34.11a2.33 2.33 0 0 0-1.26 3.05 2.33 2.33 0 0 0 3.47 1.03L16 17.06 4.9 19.21z"/></g><g filter="url(#c)"><path fill="url(#d)" d="M2 17.06a2.33 2.33 0 0 0 2.8 2.28L16 17.06 4.91 14.8l-.24-.05-.34-.03A2.34 2.34 0 0 0 2 17.06"/></g><g filter="url(#e)"><path fill="url(#f)" d="m6.43 10.6-.31-.16a2.33 2.33 0 1 0-1.33 4.45l11.2 2.17-9.36-6.33z"/></g><g filter="url(#g)"><path fill="url(#h)" d="M9.62 7.43q-.1-.14-.23-.27a2.34 2.34 0 1 0-2.93 3.6l9.54 6.3-6.25-9.43z"/></g><g filter="url(#i)"><path fill="url(#j)" d="m13.8 5.72-.12-.34a2.33 2.33 0 1 0-4.07 2.21L16 17.06l-2.15-11.1z"/></g><g filter="url(#k)"><path fill="url(#l)" d="M18.3 5.75q.03-.17.04-.35a2.34 2.34 0 0 0-2.35-2.34 2.33 2.33 0 0 0-2.28 2.81L16 17.06l2.26-11.08z"/></g><g filter="url(#m)"><path fill="url(#n)" d="m22.46 7.49.15-.31a2.34 2.34 0 1 0-4.44-1.33l-2.18 11.21 6.33-9.37q.08-.1.13-.2"/></g><g filter="url(#o)"><path fill="url(#p)" d="m25.63 10.69.27-.23a2.34 2.34 0 1 0-3.6-2.93L16 17.06l9.43-6.24z"/></g><g filter="url(#q)"><path fill="url(#r)" d="m27.34 14.86.34-.11a2.33 2.33 0 1 0-2.21-4.08L16 17.06l11.1-2.15z"/></g><g filter="url(#s)"><path fill="url(#t)" d="M30 17.06a2.33 2.33 0 0 0-2.82-2.28L16 17.06l11.08 2.26.23.05q.16.03.35.03A2.34 2.34 0 0 0 30 17.06"/></g><g filter="url(#u)"><path fill="url(#v)" d="M28.93 22.42a2.34 2.34 0 0 0-1.73-3.19L16 17.06l9.28 6.31c1.22.87 3.05.5 3.64-.95"/></g><path fill="url(#w)" fill-opacity=".75" d="m16 17.06-9.47 6.39q-.2.14-.42.23a2.33 2.33 0 0 1-3.05-1.26 2.33 2.33 0 0 1 1.2-3.03A2.33 2.33 0 0 1 2 17.06c0-1.26 1-2.29 2.26-2.34a2.34 2.34 0 0 1 1.8-4.3 2.34 2.34 0 0 1 3.3-3.3 2.33 2.33 0 0 1 4.3-1.79A2.33 2.33 0 0 1 16 3.06c1.27 0 2.3 1 2.34 2.26a2.34 2.34 0 0 1 4.31 1.8 2.34 2.34 0 0 1 3.3 3.3 2.33 2.33 0 0 1 1.78 4.31A2.33 2.33 0 0 1 30 17.06c0 1.26-1 2.29-2.27 2.34a2.34 2.34 0 0 1 1.2 3.02c-.6 1.44-2.43 1.82-3.65.95z"/><path fill="#fed548" d="M5.22 22.67a1.15 1.15 0 1 0 0-2.3 1.15 1.15 0 0 0 0 2.3"/><path fill="#ffd847" d="M4.32 18.21a1.15 1.15 0 1 0 0-2.3 1.15 1.15 0 0 0 0 2.3"/><path fill="#ffde47" d="M5.22 13.75a1.15 1.15 0 1 0 0-2.3 1.15 1.15 0 0 0 0 2.3"/><path fill="#ffe546" d="M7.74 9.96a1.15 1.15 0 1 0 0-2.3 1.15 1.15 0 0 0 0 2.3"/><path fill="#ffe946" d="M11.54 7.43a1.15 1.15 0 1 0 0-2.3 1.15 1.15 0 0 0 0 2.3"/><path fill="#ffed4b" d="M16 6.54a1.15 1.15 0 1 0 0-2.3 1.15 1.15 0 0 0 0 2.3"/><path fill="#fff154" d="M20.45 7.43a1.15 1.15 0 1 0 0-2.3 1.15 1.15 0 0 0 0 2.3"/><path fill="#fff45d" d="M24.25 9.96a1.15 1.15 0 1 0 0-2.3 1.15 1.15 0 0 0 0 2.3"/><path fill="#fff764" d="M26.78 13.75a1.15 1.15 0 1 0 0-2.3 1.15 1.15 0 0 0 0 2.3"/><path fill="#fff864" d="M27.67 18.21a1.15 1.15 0 1 0 0-2.3 1.15 1.15 0 0 0 0 2.3"/><path fill="#fff664" d="M26.78 22.67a1.15 1.15 0 1 0 0-2.3 1.15 1.15 0 0 0 0 2.3"/><path fill="#3e99fa" d="M4.98 21.63c.18.44.6.71 1.06.71.32-.32.43-.81.25-1.26a1.2 1.2 0 0 0-1.06-.71c-.32.32-.44.81-.25 1.26"/><path fill="#3e9af8" d="M4.07 17.06c0 .48.29.89.7 1.06a1.15 1.15 0 0 0 0-2.12c-.41.17-.7.58-.7 1.06"/><path fill="#3d9cf9" d="M4.98 12.49c-.18.44-.07.93.25 1.26.45 0 .88-.27 1.06-.71s.07-.93-.25-1.26c-.45 0-.88.27-1.06.71"/><path fill="#3ca3fc" d="M7.55 8.62c-.34.34-.42.84-.25 1.26a1.15 1.15 0 0 0 1.5-1.5c-.4-.18-.9-.1-1.25.24"/><path fill="#3ea6f9" d="M11.43 6.04c-.45.18-.71.61-.71 1.06a1.15 1.15 0 0 0 1.97-.81 1.1 1.1 0 0 0-1.27-.25"/><path fill="#43a9fc" d="M16 5.13c-.49 0-.9.29-1.07.71a1.15 1.15 0 0 0 2.12 0A1.1 1.1 0 0 0 16 5.13"/><path fill="#4daeff" d="M20.57 6.04a1.2 1.2 0 0 0-1.27.25c0 .45.27.88.71 1.06s.93.07 1.26-.25c0-.45-.27-.88-.7-1.06"/><path fill="#53b1ff" d="M24.43 8.62a1.2 1.2 0 0 0-1.25-.25 1.15 1.15 0 0 0 1.5 1.5c.17-.41.1-.91-.25-1.25"/><path fill="#5ab5ff" d="M27.02 12.49a1.2 1.2 0 0 0-1.07-.71c-.31.32-.43.81-.25 1.26.19.45.62.71 1.07.71.32-.32.43-.81.25-1.26"/><path fill="#5db7ff" d="M27.93 17.06c0-.48-.3-.89-.71-1.06a1.15 1.15 0 0 0 0 2.12c.42-.17.7-.58.7-1.06"/><path fill="#5fb9ff" d="M27.02 21.63c.18-.44.07-.93-.25-1.26-.45 0-.88.27-1.07.71-.18.44-.06.93.25 1.26.46 0 .89-.27 1.07-.71"/><path fill="url(#x)" d="M16.26 11.15a6.5 6.5 0 0 0-5.9 9.73L16 17.06v7.08a6.5 6.5 0 0 0 .25-12.99"/><path fill="url(#y)" d="M12.68 12.05q-1.06.64-1.82 1.61l5.14 3.4z"/><path fill="url(#z)" d="M10.9 13.62q-.79.98-1.15 2.23l6.24 1.21z"/><path fill="url(#A)" d="m16 17.06-6.23-1.27a7 7 0 0 0-.23 2.59z"/><path fill="url(#B)" fill-rule="evenodd" d="m16 17.06-6.47 1.25q.16 1.4.82 2.56z" clip-rule="evenodd"/><path fill="url(#C)" d="M19.3 12.05a6 6 0 0 0-2.18-.8l-1.2 6.04z"/><path fill="url(#D)" d="M19.3 12.05a6 6 0 0 0-2.18-.8l-1.2 6.04z"/><path fill="url(#E)" d="M21.1 13.62a6 6 0 0 0-1.8-1.57l-3.34 5.15z"/><path fill="url(#F)" d="M21.1 13.62a6 6 0 0 0-1.8-1.57l-3.34 5.15z"/><path fill="url(#G)" d="M22.22 15.8a6 6 0 0 0-1.12-2.18l-5.14 3.57z"/><path fill="url(#H)" d="M22.22 15.8a6 6 0 0 0-1.12-2.18l-5.14 3.57z"/><path fill="url(#I)" d="m22.23 15.79-6.43 1.43 6.66 1.08c.02-.16.02-.24.02-.4a7 7 0 0 0-.25-2.1"/><path fill="url(#J)" d="m22.23 15.79-6.43 1.43 6.66 1.08c.02-.16.02-.24.02-.4a7 7 0 0 0-.25-2.1"/><path fill="url(#K)" d="m22.46 18.3-6.47-1.07v2.02l3.91 3.58a6.5 6.5 0 0 0 2.56-4.53"/><path fill="url(#L)" d="m22.46 18.3-6.47-1.07v2.02l3.91 3.58a6.5 6.5 0 0 0 2.56-4.53"/><path fill="url(#M)" d="m14.62 17.99 1.18-.8-2.5-.41z"/><path fill="url(#N)" d="m14.62 17.99 1.18-.8-2.5-.41z"/><path fill="url(#O)" d="M15.68 28.83H14.6l1.1-5.05h1.08z"/><path fill="url(#P)" d="M18.68 28.83H17.6l1.1-5.05h1.08z"/><path fill="#f1a237" d="M16.36 28H13.6c-.42 0-.91.37-.91.83q.02.21.23.23h4.18q.21-.02.23-.23c0-.46-.54-.82-.97-.82"/><path fill="url(#Q)" d="M16.36 28H13.6c-.42 0-.91.37-.91.83q.02.21.23.23h4.18q.21-.02.23-.23c0-.46-.54-.82-.97-.82"/><path fill="url(#R)" fill-opacity=".5" d="M16.36 28H13.6c-.42 0-.91.37-.91.83q.02.21.23.23h4.18q.21-.02.23-.23c0-.46-.54-.82-.97-.82"/><path fill="url(#S)" d="M16.36 28H13.6c-.42 0-.91.37-.91.83q.02.21.23.23h4.18q.21-.02.23-.23c0-.46-.54-.82-.97-.82"/><path fill="#faaa3c" d="M19.68 28H16.9c-.42 0-.91.37-.91.83q.02.21.23.23h4.18q.21-.02.23-.23c0-.46-.54-.82-.96-.82"/><path fill="url(#T)" d="M19.68 28H16.9c-.42 0-.91.37-.91.83q.02.21.23.23h4.18q.21-.02.23-.23c0-.46-.54-.82-.96-.82"/><path fill="url(#U)" d="M19.68 28H16.9c-.42 0-.91.37-.91.83q.02.21.23.23h4.18q.21-.02.23-.23c0-.46-.54-.82-.96-.82"/><path fill="url(#V)" d="M15.27 8.46v1.46c0 .15.12.27.27.27H17c.16 0 .27-.14.25-.3a2 2 0 0 0-1.69-1.68.25.25 0 0 0-.3.25"/><path fill="url(#W)" d="M15.27 8.46v1.46c0 .15.12.27.27.27H17c.16 0 .27-.14.25-.3a2 2 0 0 0-1.69-1.68.25.25 0 0 0-.3.25"/><path fill="url(#X)" d="M15.27 8.46v1.46c0 .15.12.27.27.27H17c.16 0 .27-.14.25-.3a2 2 0 0 0-1.69-1.68.25.25 0 0 0-.3.25"/><path fill="url(#Y)" d="M23.8 23.48c-.17-.9-.23-1.37-1.82-2.36l-5.12-3.39-.02-.01a2 2 0 0 1-.86-1.6v-4.7a2.35 2.35 0 0 0-2.35-2.36h-2.89a.33.33 0 0 0-.23.55l1.6 1.71c.44.47.63 1.11.54 1.74l-1.1 7.34a3.18 3.18 0 0 0 3.14 3.66h8.7c.3 0 .47-.24.4-.58"/><path fill="url(#Z)" d="M23.8 23.48c-.17-.9-.23-1.37-1.82-2.36l-5.12-3.39-.02-.01a2 2 0 0 1-.86-1.6v-4.7a2.35 2.35 0 0 0-2.35-2.36h-2.89a.33.33 0 0 0-.23.55l1.6 1.71c.44.47.63 1.11.54 1.74l-1.1 7.34a3.18 3.18 0 0 0 3.14 3.66h8.7c.3 0 .47-.24.4-.58"/><path fill="url(#aa)" d="M23.8 23.48c-.17-.9-.23-1.37-1.82-2.36l-5.12-3.39-.02-.01a2 2 0 0 1-.86-1.6v-4.7a2.35 2.35 0 0 0-2.35-2.36h-2.89a.33.33 0 0 0-.23.55l1.6 1.71c.44.47.63 1.11.54 1.74l-1.1 7.34a3.18 3.18 0 0 0 3.14 3.66h8.7c.3 0 .47-.24.4-.58"/><path fill="url(#ab)" d="M23.8 23.48c-.17-.9-.23-1.37-1.82-2.36l-5.12-3.39-.02-.01a2 2 0 0 1-.86-1.6v-4.7a2.35 2.35 0 0 0-2.35-2.36h-2.89a.33.33 0 0 0-.23.55l1.6 1.71c.44.47.63 1.11.54 1.74l-1.1 7.34a3.18 3.18 0 0 0 3.14 3.66h8.7c.3 0 .47-.24.4-.58"/><g filter="url(#ac)"><path fill="#52a6ff" d="m15.22 10.39-.14 9.31a.68.68 0 1 1-1.36-.06l.67-9.29a.42.42 0 0 1 .83.04"/></g><path fill="url(#ad)" d="m12.6 13.39.76-4.33h-2.61a.33.33 0 0 0-.24.55l1.6 1.71c.44.47.63 1.11.54 1.74z"/><path fill="url(#ae)" d="m12.6 13.39.76-4.33h-2.61a.33.33 0 0 0-.24.55l1.6 1.71c.44.47.63 1.11.54 1.74z"/><path fill="url(#af)" d="M14.5 11.08a.5.5 0 1 0 0-1 .5.5 0 0 0 0 1"/><path fill="url(#ag)" d="M14.5 11.08a.5.5 0 1 0 0-1 .5.5 0 0 0 0 1"/><path fill="url(#ah)" d="M14.5 11.08a.5.5 0 1 0 0-1 .5.5 0 0 0 0 1"/><g filter="url(#ai)"><path fill="#2a6dfe" d="m21.24 21.5-4.5-2.97a1.7 1.7 0 0 1-.75-1.41v3.58c0 1.2.97 2.18 2.17 2.18l5.34-.22c-.86-.47-1.72-.8-2.26-1.15"/></g><g filter="url(#aj)"><path fill="#6775c4" d="m21.98 21.12-5.12-3.39-.02-.01a2 2 0 0 1-.86-1.6v4.08a2.5 2.5 0 0 0 2.48 2.48h5.14c-.2-.65-1.02-1.16-1.62-1.56"/></g><g filter="url(#ak)"><path fill="url(#al)" d="m10.75 9.39 1.7 1.33.48-1.33z"/></g><g filter="url(#am)"><path fill="url(#an)" d="m22.53 21.96-5.64-3.54v1.54c0 1.1.9 2 2 2z"/></g><defs><linearGradient id="x" x1="21.25" x2="13.56" y1="14.69" y2="19.44" gradientUnits="userSpaceOnUse"><stop stop-color="#defd59"/><stop offset="1" stop-color="#b3cd3b"/></linearGradient><linearGradient id="y" x1="9.9" x2="14.42" y1="20" y2="15.84" gradientUnits="userSpaceOnUse"><stop stop-color="#a7af42"/><stop offset="1" stop-color="#a7af42" stop-opacity="0"/></linearGradient><linearGradient id="z" x1="10.18" x2="12.06" y1="19.5" y2="14.87" gradientUnits="userSpaceOnUse"><stop stop-color="#a7af42"/><stop offset="1" stop-color="#a7af42" stop-opacity="0"/></linearGradient><linearGradient id="A" x1="12.2" x2="12.02" y1="20.86" y2="16.62" gradientUnits="userSpaceOnUse"><stop stop-color="#a7af42"/><stop offset="1" stop-color="#a7af42" stop-opacity="0"/></linearGradient><linearGradient id="B" x1="11.65" x2="10.99" y1="21.09" y2="18.62" gradientUnits="userSpaceOnUse"><stop stop-color="#a7af42"/><stop offset="1" stop-color="#a7af42" stop-opacity="0"/></linearGradient><linearGradient id="C" x1="16.39" x2="16.92" y1="14.15" y2="14.22" gradientUnits="userSpaceOnUse"><stop stop-color="#c0de46"/><stop offset="1" stop-color="#c2ec46" stop-opacity="0"/><stop offset="1" stop-color="#c0de46" stop-opacity="0"/></linearGradient><linearGradient id="D" x1="15.51" x2="18.16" y1="12.14" y2="12.86" gradientUnits="userSpaceOnUse"><stop stop-color="#c0de46"/><stop offset="1" stop-color="#c2ec46" stop-opacity="0"/><stop offset="1" stop-color="#c0de46" stop-opacity="0"/></linearGradient><linearGradient id="E" x1="17.43" x2="17.71" y1="14.79" y2="14.94" gradientUnits="userSpaceOnUse"><stop stop-color="#c0de46"/><stop offset="1" stop-color="#c2ec46" stop-opacity="0"/><stop offset="1" stop-color="#c0de46" stop-opacity="0"/></linearGradient><linearGradient id="F" x1="18.1" x2="19.86" y1="11.58" y2="12.35" gradientUnits="userSpaceOnUse"><stop stop-color="#c0de46"/><stop offset="1" stop-color="#c2ec46" stop-opacity="0"/><stop offset="1" stop-color="#c0de46" stop-opacity="0"/></linearGradient><linearGradient id="G" x1="17.23" x2="20.14" y1="12.64" y2="15.85" gradientUnits="userSpaceOnUse"><stop stop-color="#c0de46"/><stop offset="1" stop-color="#c2ec46" stop-opacity="0"/><stop offset="1" stop-color="#c0de46" stop-opacity="0"/></linearGradient><linearGradient id="H" x1="19.71" x2="20.15" y1="13.98" y2="14.56" gradientUnits="userSpaceOnUse"><stop stop-color="#c0de46"/><stop offset="1" stop-color="#c2ec46" stop-opacity="0"/><stop offset="1" stop-color="#c0de46" stop-opacity="0"/></linearGradient><linearGradient id="I" x1="18.68" x2="19.01" y1="18.12" y2="16.76" gradientUnits="userSpaceOnUse"><stop stop-color="#c0de46"/><stop offset="1" stop-color="#c2ec46" stop-opacity="0"/><stop offset="1" stop-color="#c0de46" stop-opacity="0"/></linearGradient><linearGradient id="J" x1="20.1" x2="20.2" y1="16.01" y2="16.48" gradientUnits="userSpaceOnUse"><stop stop-color="#c0de46"/><stop offset="1" stop-color="#c0de46" stop-opacity="0"/><stop offset="1" stop-color="#c2ec46" stop-opacity="0"/></linearGradient><linearGradient id="K" x1="18.81" x2="19.07" y1="19.2" y2="18.81" gradientUnits="userSpaceOnUse"><stop stop-color="#c0de46"/><stop offset="1" stop-color="#c2ec46" stop-opacity="0"/><stop offset="1" stop-color="#c0de46" stop-opacity="0"/></linearGradient><linearGradient id="L" x1="19.22" x2="19.16" y1="17.54" y2="17.96" gradientUnits="userSpaceOnUse"><stop stop-color="#c0de46"/><stop offset="1" stop-color="#c0de46" stop-opacity="0"/><stop offset="1" stop-color="#c2ec46" stop-opacity="0"/></linearGradient><linearGradient id="M" x1="18.81" x2="19.07" y1="19.2" y2="18.81" gradientUnits="userSpaceOnUse"><stop stop-color="#c0de46"/><stop offset="1" stop-color="#c2ec46" stop-opacity="0"/><stop offset="1" stop-color="#c0de46" stop-opacity="0"/></linearGradient><linearGradient id="N" x1="19.22" x2="19.16" y1="17.54" y2="17.96" gradientUnits="userSpaceOnUse"><stop stop-color="#c0de46"/><stop offset="1" stop-color="#c0de46" stop-opacity="0"/><stop offset="1" stop-color="#c2ec46" stop-opacity="0"/></linearGradient><linearGradient id="O" x1="16.59" x2="15.69" y1="23.78" y2="28.19" gradientUnits="userSpaceOnUse"><stop stop-color="#bc6e37"/><stop offset="1" stop-color="#f1a237"/></linearGradient><linearGradient id="P" x1="19.59" x2="18.79" y1="23.78" y2="28" gradientUnits="userSpaceOnUse"><stop stop-color="#bc6e37"/><stop offset="1" stop-color="#faaa3c"/></linearGradient><linearGradient id="Q" x1="15.01" x2="15.01" y1="29.22" y2="28.73" gradientUnits="userSpaceOnUse"><stop stop-color="#ff884f"/><stop offset="1" stop-color="#ff884f" stop-opacity="0"/></linearGradient><linearGradient id="T" x1="18.32" x2="18.32" y1="29.22" y2="28.73" gradientUnits="userSpaceOnUse"><stop stop-color="#ff884f"/><stop offset="1" stop-color="#ff884f" stop-opacity="0"/></linearGradient><linearGradient id="V" x1="15.59" x2="16.29" y1="9.69" y2="8.28" gradientUnits="userSpaceOnUse"><stop stop-color="#493a5f"/><stop offset="1" stop-color="#5d4f6b"/></linearGradient><linearGradient id="Y" x1="15.31" x2="15.31" y1="10.12" y2="24.06" gradientUnits="userSpaceOnUse"><stop stop-color="#3e93ef"/><stop offset="1" stop-color="#4478ff"/></linearGradient><linearGradient id="Z" x1="17.11" x2="17.11" y1="24.59" y2="22.87" gradientUnits="userSpaceOnUse"><stop stop-color="#6263f5"/><stop offset="1" stop-color="#6263f5" stop-opacity="0"/></linearGradient><linearGradient id="ab" x1="12.09" x2="12.92" y1="15.69" y2="15.83" gradientUnits="userSpaceOnUse"><stop stop-color="#378cc7"/><stop offset="1" stop-color="#378cc7" stop-opacity="0"/></linearGradient><linearGradient id="ad" x1="11.49" x2="12.46" y1="11.47" y2="9.25" gradientUnits="userSpaceOnUse"><stop stop-color="#493a5f"/><stop offset="1" stop-color="#5d4f6b"/></linearGradient><linearGradient id="ae" x1="13.43" x2="12.77" y1="9.14" y2="10.16" gradientUnits="userSpaceOnUse"><stop stop-color="#403751"/><stop offset="1" stop-color="#403751" stop-opacity="0"/></linearGradient><linearGradient id="ah" x1="14.4" x2="14.05" y1="10.18" y2="9.96" gradientUnits="userSpaceOnUse"><stop stop-color="#5c5051" stop-opacity="0"/><stop offset="1" stop-color="#5c5051"/></linearGradient><linearGradient id="an" x1="17.37" x2="21.5" y1="19.74" y2="21.19" gradientUnits="userSpaceOnUse"><stop stop-color="#6882c3"/><stop offset="1" stop-color="#6882c3" stop-opacity="0"/></linearGradient><radialGradient id="b" cx="0" cy="0" r="1" gradientTransform="rotate(11.7 -97.25 34.9)scale(6.95725 9.66585)" gradientUnits="userSpaceOnUse"><stop stop-color="#42d087"/><stop offset="1" stop-color="#39b386"/></radialGradient><radialGradient id="d" cx="0" cy="0" r="1" gradientTransform="matrix(6.375 1.3125 -.7246 3.51954 4.18 16.5)" gradientUnits="userSpaceOnUse"><stop stop-color="#41d485"/><stop offset="1" stop-color="#3fc78d"/></radialGradient><radialGradient id="f" cx="0" cy="0" r="1" gradientTransform="matrix(4.8125 4 -2.61084 3.14116 6 10.81)" gradientUnits="userSpaceOnUse"><stop stop-color="#40db87"/><stop offset="1" stop-color="#3eca87"/></radialGradient><radialGradient id="h" cx="0" cy="0" r="1" gradientTransform="matrix(3.375 7.125 -21.9236 10.38487 8.56 7)" gradientUnits="userSpaceOnUse"><stop stop-color="#3de28a"/><stop offset="1" stop-color="#3ac581"/></radialGradient><radialGradient id="j" cx="0" cy="0" r="1" gradientTransform="rotate(87.4 3.88 8.9)scale(11.5119 24.4338)" gradientUnits="userSpaceOnUse"><stop stop-color="#3ce78a"/><stop offset=".96" stop-color="#3ed988"/></radialGradient><radialGradient id="l" cx="0" cy="0" r="1" gradientTransform="rotate(103.46 7.13 9.15)scale(7.22975 10.6305)" gradientUnits="userSpaceOnUse"><stop stop-color="#4aee91"/><stop offset="1" stop-color="#3fdf88"/></radialGradient><radialGradient id="n" cx="0" cy="0" r="1" gradientTransform="rotate(114.73 8.9 10.37)scale(5.2295 10.3665)" gradientUnits="userSpaceOnUse"><stop stop-color="#51f096"/><stop offset="1" stop-color="#42e591"/><stop offset="1" stop-color="#46e693"/></radialGradient><radialGradient id="p" cx="0" cy="0" r="1" gradientTransform="rotate(136.22 11.07 9.55)scale(6.07559 14.3727)" gradientUnits="userSpaceOnUse"><stop stop-color="#5ef49d"/><stop offset="1" stop-color="#42e591"/></radialGradient><radialGradient id="r" cx="0" cy="0" r="1" gradientTransform="rotate(155.86 12.74 8.87)scale(7.25976 13.6966)" gradientUnits="userSpaceOnUse"><stop stop-color="#5ef49d"/><stop offset="1" stop-color="#42e591"/></radialGradient><radialGradient id="t" cx="0" cy="0" r="1" gradientTransform="matrix(-5.5 0 0 -7.78953 28.87 17.07)" gradientUnits="userSpaceOnUse"><stop stop-color="#69fca7"/><stop offset="1" stop-color="#59eda1"/></radialGradient><radialGradient id="v" cx="0" cy="0" r="1" gradientTransform="rotate(198.96 15.94 8.7)scale(5.15463 9.9287)" gradientUnits="userSpaceOnUse"><stop stop-color="#69fca7"/><stop offset="1" stop-color="#59eda1"/></radialGradient><radialGradient id="w" cx="0" cy="0" r="1" gradientTransform="rotate(225.27 8.9 4.2)scale(3.90732 1.94022)" gradientUnits="userSpaceOnUse"><stop stop-color="#37a06b"/><stop offset="1" stop-color="#37a06b" stop-opacity="0"/></radialGradient><radialGradient id="R" cx="0" cy="0" r="1" gradientTransform="matrix(2.21875 0 0 .9336 12.32 28.53)" gradientUnits="userSpaceOnUse"><stop stop-color="#ffc76a"/><stop offset="1" stop-color="#ffc76a" stop-opacity="0"/></radialGradient><radialGradient id="S" cx="0" cy="0" r="1" gradientTransform="matrix(-2.32813 0 0 -1.56819 17.89 29.06)" gradientUnits="userSpaceOnUse"><stop stop-color="#c77e33"/><stop offset="1" stop-color="#c77e33" stop-opacity="0"/></radialGradient><radialGradient id="U" cx="0" cy="0" r="1" gradientTransform="matrix(-1.71875 0 0 -.26466 20.93 28.53)" gradientUnits="userSpaceOnUse"><stop stop-color="#ffc76a"/><stop offset="1" stop-color="#ffc76a" stop-opacity="0"/></radialGradient><radialGradient id="W" cx="0" cy="0" r="1" gradientTransform="rotate(133.27 6.7 7.93)scale(2.35441 1.95304)" gradientUnits="userSpaceOnUse"><stop stop-color="#403751" stop-opacity="0"/><stop offset="1" stop-color="#403751"/></radialGradient><radialGradient id="X" cx="0" cy="0" r="1" gradientTransform="rotate(-7.88 74.09 -116.53)scale(1.02531 .9303)" gradientUnits="userSpaceOnUse"><stop stop-color="#695f74"/><stop offset="1" stop-color="#695f74" stop-opacity="0"/></radialGradient><radialGradient id="aa" cx="0" cy="0" r="1" gradientTransform="rotate(191.7 13.07 10.17)scale(4.46849 1.29516)" gradientUnits="userSpaceOnUse"><stop stop-color="#52a6ff"/><stop offset="1" stop-color="#52a6ff" stop-opacity="0"/></radialGradient><radialGradient id="af" cx="0" cy="0" r="1" gradientTransform="rotate(125.84 4.66 8.95)scale(.69386 .6186)" gradientUnits="userSpaceOnUse"><stop offset=".01" stop-color="#433437"/><stop offset="1" stop-color="#3b2838"/></radialGradient><radialGradient id="ag" cx="0" cy="0" r="1" gradientTransform="rotate(137.64 5.32 8.07)scale(.35946 .31624)" gradientUnits="userSpaceOnUse"><stop stop-color="#5c5051"/><stop offset="1" stop-color="#5c5051" stop-opacity="0"/></radialGradient><radialGradient id="al" cx="0" cy="0" r="1" gradientTransform="rotate(17.7 -24.79 39.21)scale(2.67334 .53697)" gradientUnits="userSpaceOnUse"><stop stop-color="#776787"/><stop offset="1" stop-color="#776787" stop-opacity="0"/></radialGradient><filter id="a" width="13.12" height="7" x="2.87" y="16.86" color-interpolation-filters="sRGB" filterUnits="userSpaceOnUse"><feFlood flood-opacity="0" result="BackgroundImageFix"/><feBlend in="SourceGraphic" in2="BackgroundImageFix" result="shape"/><feColorMatrix in="SourceAlpha" result="hardAlpha" values="0 0 0 0 0 0 0 0 0 0 0 0 0 0 0 0 0 0 127 0"/><feOffset/><feGaussianBlur stdDeviation=".5"/><feComposite in2="hardAlpha" k2="-1" k3="1" operator="arithmetic"/><feColorMatrix values="0 0 0 0 0.184314 0 0 0 0 0.839216 0 0 0 0 0.490196 0 0 0 1 0"/><feBlend in2="shape" result="effect1_innerShadow_28327_5206"/><feColorMatrix in="SourceAlpha" result="hardAlpha" values="0 0 0 0 0 0 0 0 0 0 0 0 0 0 0 0 0 0 127 0"/><feOffset dy="-.2"/><feGaussianBlur stdDeviation=".25"/><feComposite in2="hardAlpha" k2="-1" k3="1" operator="arithmetic"/><feColorMatrix values="0 0 0 0 0.286275 0 0 0 0 0.682353 0 0 0 0 0.623529 0 0 0 0.5 0"/><feBlend in2="effect1_innerShadow_28327_5206" result="effect2_innerShadow_28327_5206"/></filter><filter id="c" width="14" height="4.87" x="2" y="14.52" color-interpolation-filters="sRGB" filterUnits="userSpaceOnUse"><feFlood flood-opacity="0" result="BackgroundImageFix"/><feBlend in="SourceGraphic" in2="BackgroundImageFix" result="shape"/><feColorMatrix in="SourceAlpha" result="hardAlpha" values="0 0 0 0 0 0 0 0 0 0 0 0 0 0 0 0 0 0 127 0"/><feOffset/><feGaussianBlur stdDeviation=".5"/><feComposite in2="hardAlpha" k2="-1" k3="1" operator="arithmetic"/><feColorMatrix values="0 0 0 0 0.184314 0 0 0 0 0.839216 0 0 0 0 0.490196 0 0 0 1 0"/><feBlend in2="shape" result="effect1_innerShadow_28327_5206"/><feColorMatrix in="SourceAlpha" result="hardAlpha" values="0 0 0 0 0 0 0 0 0 0 0 0 0 0 0 0 0 0 127 0"/><feOffset dy="-.2"/><feGaussianBlur stdDeviation=".25"/><feComposite in2="hardAlpha" k2="-1" k3="1" operator="arithmetic"/><feColorMatrix values="0 0 0 0 0.286275 0 0 0 0 0.682353 0 0 0 0 0.623529 0 0 0 0.5 0"/><feBlend in2="effect1_innerShadow_28327_5206" result="effect2_innerShadow_28327_5206"/></filter><filter id="e" width="13.11" height="7" x="2.89" y="10.06" color-interpolation-filters="sRGB" filterUnits="userSpaceOnUse"><feFlood flood-opacity="0" result="BackgroundImageFix"/><feBlend in="SourceGraphic" in2="BackgroundImageFix" result="shape"/><feColorMatrix in="SourceAlpha" result="hardAlpha" values="0 0 0 0 0 0 0 0 0 0 0 0 0 0 0 0 0 0 127 0"/><feOffset/><feGaussianBlur stdDeviation=".5"/><feComposite in2="hardAlpha" k2="-1" k3="1" operator="arithmetic"/><feColorMatrix values="0 0 0 0 0.184314 0 0 0 0 0.839216 0 0 0 0 0.490196 0 0 0 1 0"/><feBlend in2="shape" result="effect1_innerShadow_28327_5206"/><feColorMatrix in="SourceAlpha" result="hardAlpha" values="0 0 0 0 0 0 0 0 0 0 0 0 0 0 0 0 0 0 127 0"/><feOffset dy="-.2"/><feGaussianBlur stdDeviation=".25"/><feComposite in2="hardAlpha" k2="-1" k3="1" operator="arithmetic"/><feColorMatrix values="0 0 0 0 0.286275 0 0 0 0 0.682353 0 0 0 0 0.623529 0 0 0 0.5 0"/><feBlend in2="effect1_innerShadow_28327_5206" result="effect2_innerShadow_28327_5206"/></filter><filter id="g" width="10.58" height="10.78" x="5.41" y="6.28" color-interpolation-filters="sRGB" filterUnits="userSpaceOnUse"><feFlood flood-opacity="0" result="BackgroundImageFix"/><feBlend in="SourceGraphic" in2="BackgroundImageFix" result="shape"/><feColorMatrix in="SourceAlpha" result="hardAlpha" values="0 0 0 0 0 0 0 0 0 0 0 0 0 0 0 0 0 0 127 0"/><feOffset/><feGaussianBlur stdDeviation=".5"/><feComposite in2="hardAlpha" k2="-1" k3="1" operator="arithmetic"/><feColorMatrix values="0 0 0 0 0.184314 0 0 0 0 0.839216 0 0 0 0 0.490196 0 0 0 1 0"/><feBlend in2="shape" result="effect1_innerShadow_28327_5206"/><feColorMatrix in="SourceAlpha" result="hardAlpha" values="0 0 0 0 0 0 0 0 0 0 0 0 0 0 0 0 0 0 127 0"/><feOffset dy="-.2"/><feGaussianBlur stdDeviation=".25"/><feComposite in2="hardAlpha" k2="-1" k3="1" operator="arithmetic"/><feColorMatrix values="0 0 0 0 0.286275 0 0 0 0 0.682353 0 0 0 0 0.623529 0 0 0 0.5 0"/><feBlend in2="effect1_innerShadow_28327_5206" result="effect2_innerShadow_28327_5206"/></filter><filter id="i" width="6.8" height="13.31" x="9.2" y="3.75" color-interpolation-filters="sRGB" filterUnits="userSpaceOnUse"><feFlood flood-opacity="0" result="BackgroundImageFix"/><feBlend in="SourceGraphic" in2="BackgroundImageFix" result="shape"/><feColorMatrix in="SourceAlpha" result="hardAlpha" values="0 0 0 0 0 0 0 0 0 0 0 0 0 0 0 0 0 0 127 0"/><feOffset/><feGaussianBlur stdDeviation=".5"/><feComposite in2="hardAlpha" k2="-1" k3="1" operator="arithmetic"/><feColorMatrix values="0 0 0 0 0.184314 0 0 0 0 0.839216 0 0 0 0 0.490196 0 0 0 1 0"/><feBlend in2="shape" result="effect1_innerShadow_28327_5206"/><feColorMatrix in="SourceAlpha" result="hardAlpha" values="0 0 0 0 0 0 0 0 0 0 0 0 0 0 0 0 0 0 127 0"/><feOffset dy="-.2"/><feGaussianBlur stdDeviation=".25"/><feComposite in2="hardAlpha" k2="-1" k3="1" operator="arithmetic"/><feColorMatrix values="0 0 0 0 0.286275 0 0 0 0 0.682353 0 0 0 0 0.623529 0 0 0 0.5 0"/><feBlend in2="effect1_innerShadow_28327_5206" result="effect2_innerShadow_28327_5206"/></filter><filter id="k" width="4.67" height="14.2" x="13.66" y="2.86" color-interpolation-filters="sRGB" filterUnits="userSpaceOnUse"><feFlood flood-opacity="0" result="BackgroundImageFix"/><feBlend in="SourceGraphic" in2="BackgroundImageFix" result="shape"/><feColorMatrix in="SourceAlpha" result="hardAlpha" values="0 0 0 0 0 0 0 0 0 0 0 0 0 0 0 0 0 0 127 0"/><feOffset/><feGaussianBlur stdDeviation=".5"/><feComposite in2="hardAlpha" k2="-1" k3="1" operator="arithmetic"/><feColorMatrix values="0 0 0 0 0.184314 0 0 0 0 0.839216 0 0 0 0 0.490196 0 0 0 1 0"/><feBlend in2="shape" result="effect1_innerShadow_28327_5206"/><feColorMatrix in="SourceAlpha" result="hardAlpha" values="0 0 0 0 0 0 0 0 0 0 0 0 0 0 0 0 0 0 127 0"/><feOffset dy="-.2"/><feGaussianBlur stdDeviation=".25"/><feComposite in2="hardAlpha" k2="-1" k3="1" operator="arithmetic"/><feColorMatrix values="0 0 0 0 0.286275 0 0 0 0 0.682353 0 0 0 0 0.623529 0 0 0 0.5 0"/><feBlend in2="effect1_innerShadow_28327_5206" result="effect2_innerShadow_28327_5206"/></filter><filter id="m" width="6.8" height="13.31" x="15.99" y="3.75" color-interpolation-filters="sRGB" filterUnits="userSpaceOnUse"><feFlood flood-opacity="0" result="BackgroundImageFix"/><feBlend in="SourceGraphic" in2="BackgroundImageFix" result="shape"/><feColorMatrix in="SourceAlpha" result="hardAlpha" values="0 0 0 0 0 0 0 0 0 0 0 0 0 0 0 0 0 0 127 0"/><feOffset/><feGaussianBlur stdDeviation=".5"/><feComposite in2="hardAlpha" k2="-1" k3="1" operator="arithmetic"/><feColorMatrix values="0 0 0 0 0.184314 0 0 0 0 0.839216 0 0 0 0 0.490196 0 0 0 1 0"/><feBlend in2="shape" result="effect1_innerShadow_28327_5206"/><feColorMatrix in="SourceAlpha" result="hardAlpha" values="0 0 0 0 0 0 0 0 0 0 0 0 0 0 0 0 0 0 127 0"/><feOffset dy="-.2"/><feGaussianBlur stdDeviation=".25"/><feComposite in2="hardAlpha" k2="-1" k3="1" operator="arithmetic"/><feColorMatrix values="0 0 0 0 0.286275 0 0 0 0 0.682353 0 0 0 0 0.623529 0 0 0 0.5 0"/><feBlend in2="effect1_innerShadow_28327_5206" result="effect2_innerShadow_28327_5206"/></filter><filter id="o" width="10.58" height="10.78" x="15.99" y="6.28" color-interpolation-filters="sRGB" filterUnits="userSpaceOnUse"><feFlood flood-opacity="0" result="BackgroundImageFix"/><feBlend in="SourceGraphic" in2="BackgroundImageFix" result="shape"/><feColorMatrix in="SourceAlpha" result="hardAlpha" values="0 0 0 0 0 0 0 0 0 0 0 0 0 0 0 0 0 0 127 0"/><feOffset/><feGaussianBlur stdDeviation=".5"/><feComposite in2="hardAlpha" k2="-1" k3="1" operator="arithmetic"/><feColorMatrix values="0 0 0 0 0.184314 0 0 0 0 0.839216 0 0 0 0 0.490196 0 0 0 1 0"/><feBlend in2="shape" result="effect1_innerShadow_28327_5206"/><feColorMatrix in="SourceAlpha" result="hardAlpha" values="0 0 0 0 0 0 0 0 0 0 0 0 0 0 0 0 0 0 127 0"/><feOffset dy="-.2"/><feGaussianBlur stdDeviation=".25"/><feComposite in2="hardAlpha" k2="-1" k3="1" operator="arithmetic"/><feColorMatrix values="0 0 0 0 0.286275 0 0 0 0 0.682353 0 0 0 0 0.623529 0 0 0 0.5 0"/><feBlend in2="effect1_innerShadow_28327_5206" result="effect2_innerShadow_28327_5206"/></filter><filter id="q" width="13.12" height="7" x="15.99" y="10.06" color-interpolation-filters="sRGB" filterUnits="userSpaceOnUse"><feFlood flood-opacity="0" result="BackgroundImageFix"/><feBlend in="SourceGraphic" in2="BackgroundImageFix" result="shape"/><feColorMatrix in="SourceAlpha" result="hardAlpha" values="0 0 0 0 0 0 0 0 0 0 0 0 0 0 0 0 0 0 127 0"/><feOffset/><feGaussianBlur stdDeviation=".5"/><feComposite in2="hardAlpha" k2="-1" k3="1" operator="arithmetic"/><feColorMatrix values="0 0 0 0 0.184314 0 0 0 0 0.839216 0 0 0 0 0.490196 0 0 0 1 0"/><feBlend in2="shape" result="effect1_innerShadow_28327_5206"/><feColorMatrix in="SourceAlpha" result="hardAlpha" values="0 0 0 0 0 0 0 0 0 0 0 0 0 0 0 0 0 0 127 0"/><feOffset dy="-.2"/><feGaussianBlur stdDeviation=".25"/><feComposite in2="hardAlpha" k2="-1" k3="1" operator="arithmetic"/><feColorMatrix values="0 0 0 0 0.286275 0 0 0 0 0.682353 0 0 0 0 0.623529 0 0 0 0.5 0"/><feBlend in2="effect1_innerShadow_28327_5206" result="effect2_innerShadow_28327_5206"/></filter><filter id="s" width="14" height="4.87" x="15.99" y="14.53" color-interpolation-filters="sRGB" filterUnits="userSpaceOnUse"><feFlood flood-opacity="0" result="BackgroundImageFix"/><feBlend in="SourceGraphic" in2="BackgroundImageFix" result="shape"/><feColorMatrix in="SourceAlpha" result="hardAlpha" values="0 0 0 0 0 0 0 0 0 0 0 0 0 0 0 0 0 0 127 0"/><feOffset/><feGaussianBlur stdDeviation=".5"/><feComposite in2="hardAlpha" k2="-1" k3="1" operator="arithmetic"/><feColorMatrix values="0 0 0 0 0.184314 0 0 0 0 0.839216 0 0 0 0 0.490196 0 0 0 1 0"/><feBlend in2="shape" result="effect1_innerShadow_28327_5206"/><feColorMatrix in="SourceAlpha" result="hardAlpha" values="0 0 0 0 0 0 0 0 0 0 0 0 0 0 0 0 0 0 127 0"/><feOffset dy="-.2"/><feGaussianBlur stdDeviation=".25"/><feComposite in2="hardAlpha" k2="-1" k3="1" operator="arithmetic"/><feColorMatrix values="0 0 0 0 0.286275 0 0 0 0 0.682353 0 0 0 0 0.623529 0 0 0 0.5 0"/><feBlend in2="effect1_innerShadow_28327_5206" result="effect2_innerShadow_28327_5206"/></filter><filter id="u" width="13.11" height="6.98" x="15.99" y="16.86" color-interpolation-filters="sRGB" filterUnits="userSpaceOnUse"><feFlood flood-opacity="0" result="BackgroundImageFix"/><feBlend in="SourceGraphic" in2="BackgroundImageFix" result="shape"/><feColorMatrix in="SourceAlpha" result="hardAlpha" values="0 0 0 0 0 0 0 0 0 0 0 0 0 0 0 0 0 0 127 0"/><feOffset/><feGaussianBlur stdDeviation=".5"/><feComposite in2="hardAlpha" k2="-1" k3="1" operator="arithmetic"/><feColorMatrix values="0 0 0 0 0.184314 0 0 0 0 0.839216 0 0 0 0 0.490196 0 0 0 1 0"/><feBlend in2="shape" result="effect1_innerShadow_28327_5206"/><feColorMatrix in="SourceAlpha" result="hardAlpha" values="0 0 0 0 0 0 0 0 0 0 0 0 0 0 0 0 0 0 127 0"/><feOffset dy="-.2"/><feGaussianBlur stdDeviation=".25"/><feComposite in2="hardAlpha" k2="-1" k3="1" operator="arithmetic"/><feColorMatrix values="0 0 0 0 0.286275 0 0 0 0 0.682353 0 0 0 0 0.623529 0 0 0 0.5 0"/><feBlend in2="effect1_innerShadow_28327_5206" result="effect2_innerShadow_28327_5206"/></filter><filter id="ac" width="4.51" height="13.41" x="12.22" y="8.47" color-interpolation-filters="sRGB" filterUnits="userSpaceOnUse"><feFlood flood-opacity="0" result="BackgroundImageFix"/><feBlend in="SourceGraphic" in2="BackgroundImageFix" result="shape"/><feGaussianBlur result="effect1_foregroundBlur_28327_5206" stdDeviation=".75"/></filter><filter id="ai" width="8.12" height="6.36" x="15.69" y="16.82" color-interpolation-filters="sRGB" filterUnits="userSpaceOnUse"><feFlood flood-opacity="0" result="BackgroundImageFix"/><feBlend in="SourceGraphic" in2="BackgroundImageFix" result="shape"/><feGaussianBlur result="effect1_foregroundBlur_28327_5206" stdDeviation=".15"/></filter><filter id="aj" width="7.86" height="6.81" x="15.98" y="15.87" color-interpolation-filters="sRGB" filterUnits="userSpaceOnUse"><feFlood flood-opacity="0" result="BackgroundImageFix"/><feBlend in="SourceGraphic" in2="BackgroundImageFix" result="shape"/><feColorMatrix in="SourceAlpha" result="hardAlpha" values="0 0 0 0 0 0 0 0 0 0 0 0 0 0 0 0 0 0 127 0"/><feOffset dx=".25" dy="-.25"/><feGaussianBlur stdDeviation=".3"/><feComposite in2="hardAlpha" k2="-1" k3="1" operator="arithmetic"/><feColorMatrix values="0 0 0 0 0.352941 0 0 0 0 0.278431 0 0 0 0 0.717647 0 0 0 1 0"/><feBlend in2="shape" result="effect1_innerShadow_28327_5206"/></filter><filter id="ak" width="3.19" height="2.33" x="10.24" y="8.89" color-interpolation-filters="sRGB" filterUnits="userSpaceOnUse"><feFlood flood-opacity="0" result="BackgroundImageFix"/><feBlend in="SourceGraphic" in2="BackgroundImageFix" result="shape"/><feGaussianBlur result="effect1_foregroundBlur_28327_5206" stdDeviation=".25"/></filter><filter id="am" width="6.44" height="4.34" x="16.49" y="18.02" color-interpolation-filters="sRGB" filterUnits="userSpaceOnUse"><feFlood flood-opacity="0" result="BackgroundImageFix"/><feBlend in="SourceGraphic" in2="BackgroundImageFix" result="shape"/><feGaussianBlur result="effect1_foregroundBlur_28327_5206" stdDeviation=".2"/></filter></defs></svg>