<svg xmlns="http://www.w3.org/2000/svg" width="32" height="32" fill="none" viewBox="0 0 32 32"><path fill="url(#a)" d="M7.32 17.98v-.6l2.13.14v3.5H5.88a4.7 4.7 0 0 1-1.3-2.75c-.03-.27.25-.45.5-.37.73.22 1.5.35 1.98.36.15 0 .26-.13.26-.28"/><path fill="url(#b)" d="M24.87 17.98v-.6l-2.13.14v3.5h3.57a4.7 4.7 0 0 0 1.3-2.76c.03-.27-.24-.45-.5-.37-.72.23-1.5.35-1.98.36a.3.3 0 0 1-.26-.27"/><path fill="url(#c)" d="M23.88 19.48v-.42l-4.48 2.2 2.73 4.3c4.39.56 7.03-2.02 7.85-3.98.1-.26-.07-.54-.34-.6l-5.56-1.25a.25.25 0 0 1-.2-.25"/><path fill="url(#d)" d="M23.88 19.48v-.42l-4.48 2.2 2.73 4.3c4.39.56 7.03-2.02 7.85-3.98.1-.26-.07-.54-.34-.6l-5.56-1.25a.25.25 0 0 1-.2-.25"/><path fill="url(#e)" d="M8.19 19.48v-.42l4.48 2.2-2.73 4.3c-4.39.56-7.03-2.02-7.85-3.98a.45.45 0 0 1 .34-.6L8 19.72q.19-.06.2-.25"/><path fill="url(#f)" d="M8.19 19.48v-.42l4.48 2.2-2.73 4.3c-4.39.56-7.03-2.02-7.85-3.98a.45.45 0 0 1 .34-.6L8 19.72q.19-.06.2-.25"/><path fill="url(#g)" d="M8.19 19.48v-.42l4.48 2.2-2.73 4.3c-4.39.56-7.03-2.02-7.85-3.98a.45.45 0 0 1 .34-.6L8 19.72q.19-.06.2-.25"/><g filter="url(#h)"><path fill="url(#i)" d="m26.48 21.98-3.93-.83.24-.2z"/></g><path fill="#ff658c" d="M26.84 22 20 20.58l-1.13 1.1 2.61 3.29c3.05.6 5-.3 5.72-2.35a.45.45 0 0 0-.36-.6"/><path fill="url(#j)" d="M26.84 22 20 20.58l-1.13 1.1 2.61 3.29c3.05.6 5-.3 5.72-2.35a.45.45 0 0 0-.36-.6"/><path fill="url(#k)" d="M26.84 22 20 20.58l-1.13 1.1 2.61 3.29c3.05.6 5-.3 5.72-2.35a.45.45 0 0 0-.36-.6"/><path fill="url(#l)" d="M26.84 22 20 20.58l-1.13 1.1 2.61 3.29c3.05.6 5-.3 5.72-2.35a.45.45 0 0 0-.36-.6"/><path fill="url(#m)" d="M26.84 22 20 20.58l-1.13 1.1 2.61 3.29c3.05.6 5-.3 5.72-2.35a.45.45 0 0 0-.36-.6"/><path fill="#f26388" d="m4.7 22 6.85-1.43 1.12 1.1-2.6 3.29c-3.05.6-5-.3-5.72-2.35a.45.45 0 0 1 .36-.6"/><path fill="url(#n)" d="m4.7 22 6.85-1.43 1.12 1.1-2.6 3.29c-3.05.6-5-.3-5.72-2.35a.45.45 0 0 1 .36-.6"/><path fill="url(#o)" d="m4.7 22 6.85-1.43 1.12 1.1-2.6 3.29c-3.05.6-5-.3-5.72-2.35a.45.45 0 0 1 .36-.6"/><path fill="url(#p)" d="m4.7 22 6.85-1.43 1.12 1.1-2.6 3.29c-3.05.6-5-.3-5.72-2.35a.45.45 0 0 1 .36-.6"/><path fill="url(#q)" d="m4.7 22 6.85-1.43 1.12 1.1-2.6 3.29c-3.05.6-5-.3-5.72-2.35a.45.45 0 0 1 .36-.6"/><path fill="url(#r)" d="M11.02 21.36c.16.2.34.7-.27 1.22-.61.51-3.74 3.27-5.23 4.6-.3.25-.18.42.04.73l.05.07c1 1.48 6.12 3.94 10.14-1.21q.14-.2.35-.25.2.04.34.25c4.02 5.15 9.14 2.7 10.14 1.21l.06-.07c.21-.31.33-.48.04-.74a595 595 0 0 0-5.24-4.6c-.6-.5-.43-1.02-.26-1.21l-1.1-.38-3.98 1.28-3.98-1.28z"/><path fill="url(#s)" d="M11.02 21.36c.16.2.34.7-.27 1.22-.61.51-3.74 3.27-5.23 4.6-.3.25-.18.42.04.73l.05.07c1 1.48 6.12 3.94 10.14-1.21q.14-.2.35-.25.2.04.34.25c4.02 5.15 9.14 2.7 10.14 1.21l.06-.07c.21-.31.33-.48.04-.74a595 595 0 0 0-5.24-4.6c-.6-.5-.43-1.02-.26-1.21l-1.1-.38-3.98 1.28-3.98-1.28z"/><path fill="url(#t)" d="M11.02 21.36c.16.2.34.7-.27 1.22-.61.51-3.74 3.27-5.23 4.6-.3.25-.18.42.04.73l.05.07c1 1.48 6.12 3.94 10.14-1.21q.14-.2.35-.25.2.04.34.25c4.02 5.15 9.14 2.7 10.14 1.21l.06-.07c.21-.31.33-.48.04-.74a595 595 0 0 0-5.24-4.6c-.6-.5-.43-1.02-.26-1.21l-1.1-.38-3.98 1.28-3.98-1.28z"/><path fill="url(#u)" d="M11.02 21.36c.16.2.34.7-.27 1.22-.61.51-3.74 3.27-5.23 4.6-.3.25-.18.42.04.73l.05.07c1 1.48 6.12 3.94 10.14-1.21q.14-.2.35-.25.2.04.34.25c4.02 5.15 9.14 2.7 10.14 1.21l.06-.07c.21-.31.33-.48.04-.74a595 595 0 0 0-5.24-4.6c-.6-.5-.43-1.02-.26-1.21l-1.1-.38-3.98 1.28-3.98-1.28z"/><g filter="url(#v)"><path stroke="url(#w)" stroke-width=".4" d="M16.1 2.87A10 10 0 0 0 8.6 6.1a9.3 9.3 0 0 0-2.44 6.29v1.36a9.3 9.3 0 0 0 9.3 9.3h1.27a9.3 9.3 0 0 0 9.3-9.3V12.4a9.3 9.3 0 0 0-2.45-6.29 10 10 0 0 0-7.48-3.23Z"/></g><path fill="url(#x)" d="M8.76 6.24a9.8 9.8 0 0 1 7.34-3.17 9.8 9.8 0 0 1 7.34 3.17 9 9 0 0 1 2.4 6.15v1.36a9.1 9.1 0 0 1-9.1 9.1h-1.28a9.1 9.1 0 0 1-9.1-9.1V12.4c0-2.37.91-4.53 2.4-6.15"/><path fill="url(#y)" d="M8.76 6.24a9.8 9.8 0 0 1 7.34-3.17 9.8 9.8 0 0 1 7.34 3.17 9 9 0 0 1 2.4 6.15v1.36a9.1 9.1 0 0 1-9.1 9.1h-1.28a9.1 9.1 0 0 1-9.1-9.1V12.4c0-2.37.91-4.53 2.4-6.15"/><path fill="url(#z)" d="M8.76 6.24a9.8 9.8 0 0 1 7.34-3.17 9.8 9.8 0 0 1 7.34 3.17 9 9 0 0 1 2.4 6.15v1.36a9.1 9.1 0 0 1-9.1 9.1h-1.28a9.1 9.1 0 0 1-9.1-9.1V12.4c0-2.37.91-4.53 2.4-6.15"/><path fill="url(#A)" d="M8.76 6.24a9.8 9.8 0 0 1 7.34-3.17 9.8 9.8 0 0 1 7.34 3.17 9 9 0 0 1 2.4 6.15v1.36a9.1 9.1 0 0 1-9.1 9.1h-1.28a9.1 9.1 0 0 1-9.1-9.1V12.4c0-2.37.91-4.53 2.4-6.15"/><path fill="url(#B)" d="M8.76 6.24a9.8 9.8 0 0 1 7.34-3.17 9.8 9.8 0 0 1 7.34 3.17 9 9 0 0 1 2.4 6.15v1.36a9.1 9.1 0 0 1-9.1 9.1h-1.28a9.1 9.1 0 0 1-9.1-9.1V12.4c0-2.37.91-4.53 2.4-6.15"/><path fill="url(#C)" d="M8.76 6.24a9.8 9.8 0 0 1 7.34-3.17 9.8 9.8 0 0 1 7.34 3.17 9 9 0 0 1 2.4 6.15v1.36a9.1 9.1 0 0 1-9.1 9.1h-1.28a9.1 9.1 0 0 1-9.1-9.1V12.4c0-2.37.91-4.53 2.4-6.15"/><path fill="url(#D)" d="M8.76 6.24a9.8 9.8 0 0 1 7.34-3.17 9.8 9.8 0 0 1 7.34 3.17 9 9 0 0 1 2.4 6.15v1.36a9.1 9.1 0 0 1-9.1 9.1h-1.28a9.1 9.1 0 0 1-9.1-9.1V12.4c0-2.37.91-4.53 2.4-6.15"/><path fill="url(#E)" d="M8.76 6.24a9.8 9.8 0 0 1 7.34-3.17 9.8 9.8 0 0 1 7.34 3.17 9 9 0 0 1 2.4 6.15v1.36a9.1 9.1 0 0 1-9.1 9.1h-1.28a9.1 9.1 0 0 1-9.1-9.1V12.4c0-2.37.91-4.53 2.4-6.15"/><circle cx="6.46" cy="13.51" r="1.72" fill="url(#F)"/><circle cx="6.46" cy="13.51" r="1.72" fill="url(#G)"/><circle cx="6.46" cy="13.51" r="1.72" fill="url(#H)"/><circle cx="25.62" cy="13.51" r="1.72" fill="url(#I)"/><circle cx="25.62" cy="13.51" r="1.72" fill="url(#J)"/><circle cx="25.62" cy="13.51" r="1.72" fill="url(#K)"/><g filter="url(#L)"><path stroke="url(#M)" stroke-linecap="round" stroke-width=".1" d="M24.77 18.3q.08.21.34.23c.3 0 1.27-.1 2.03-.38"/></g><g stroke-linecap="round" stroke-width=".4" filter="url(#N)"><path stroke="url(#O)" d="M26.5 27.44a7.4 7.4 0 0 1-3.86 1.4 8.4 8.4 0 0 1-6.22-2.74.44.44 0 0 0-.64 0 8.4 8.4 0 0 1-6.23 2.74 7 7 0 0 1-3.62-1.22"/><path stroke="url(#P)" d="M26.5 27.44a7.4 7.4 0 0 1-3.86 1.4 8.4 8.4 0 0 1-6.22-2.74.44.44 0 0 0-.64 0 8.4 8.4 0 0 1-6.23 2.74 7 7 0 0 1-3.62-1.22"/></g><path fill="#ff2fbd" fill-rule="evenodd" d="M26.75 27.24a6.7 6.7 0 0 1-4.1 1.6 8.4 8.4 0 0 1-6.23-2.74.44.44 0 0 0-.64 0 8.4 8.4 0 0 1-6.23 2.74 6.7 6.7 0 0 1-4.1-1.6c-.2.22-.09.39.1.67l.06.07c1 1.48 6.12 3.94 10.14-1.21q.16-.24.31-.25h.07q.15.01.31.25c4.02 5.15 9.14 2.7 10.14 1.21l.06-.07c.19-.28.3-.45.11-.67" clip-rule="evenodd"/><path fill="url(#Q)" fill-rule="evenodd" d="M26.75 27.24a6.7 6.7 0 0 1-4.1 1.6 8.4 8.4 0 0 1-6.23-2.74.44.44 0 0 0-.64 0 8.4 8.4 0 0 1-6.23 2.74 6.7 6.7 0 0 1-4.1-1.6c-.2.22-.09.39.1.67l.06.07c1 1.48 6.12 3.94 10.14-1.21q.16-.24.31-.25h.07q.15.01.31.25c4.02 5.15 9.14 2.7 10.14 1.21l.06-.07c.19-.28.3-.45.11-.67" clip-rule="evenodd"/><path fill="url(#R)" fill-rule="evenodd" d="M26.75 27.24a6.7 6.7 0 0 1-4.1 1.6 8.4 8.4 0 0 1-6.23-2.74.44.44 0 0 0-.64 0 8.4 8.4 0 0 1-6.23 2.74 6.7 6.7 0 0 1-4.1-1.6c-.2.22-.09.39.1.67l.06.07c1 1.48 6.12 3.94 10.14-1.21q.16-.24.31-.25h.07q.15.01.31.25c4.02 5.15 9.14 2.7 10.14 1.21l.06-.07c.19-.28.3-.45.11-.67" clip-rule="evenodd"/><g filter="url(#S)"><path stroke="url(#T)" stroke-linecap="round" stroke-width=".25" d="m4.77 22.32 4.98-1.1"/></g><g filter="url(#U)"><path stroke="url(#V)" stroke-linecap="round" stroke-width=".15" d="m2.6 21.3 5.52-1.28"/></g><g filter="url(#W)"><path stroke="url(#X)" stroke-linecap="round" stroke-width=".1" d="M23.8 19.78q.1.17.32.22c.22.05 3.74.9 5.47 1.27"/></g><defs><radialGradient id="d" cx="0" cy="0" r="1" gradientTransform="rotate(72.25 -1.9 25.56)scale(6.66102 9.4555)" gradientUnits="userSpaceOnUse"><stop offset=".88" stop-color="#f54b9f" stop-opacity="0"/><stop offset="1" stop-color="#f54b9f"/></radialGradient><radialGradient id="e" cx="0" cy="0" r="1" gradientTransform="rotate(85.48 -8.17 14.04)scale(4.35733 10.3631)" gradientUnits="userSpaceOnUse"><stop stop-color="#e3648f"/><stop offset="1" stop-color="#e03d93"/></radialGradient><radialGradient id="f" cx="0" cy="0" r="1" gradientTransform="rotate(193.06 5.12 10.73)scale(3.7694 2.49605)" gradientUnits="userSpaceOnUse"><stop stop-color="#db5553"/><stop offset="1" stop-color="#db5553" stop-opacity="0"/></radialGradient><radialGradient id="k" cx="0" cy="0" r="1" gradientTransform="rotate(74.82 -1.91 25.68)scale(4.35515 5.33091)" gradientUnits="userSpaceOnUse"><stop offset=".78" stop-color="#f6419a" stop-opacity="0"/><stop offset="1" stop-color="#f6419a"/></radialGradient><radialGradient id="l" cx="0" cy="0" r="1" gradientTransform="rotate(75.19 -1.82 25.58)scale(4.33951 4.36526)" gradientUnits="userSpaceOnUse"><stop offset=".99" stop-color="#f963b4" stop-opacity="0"/><stop offset="1" stop-color="#f963b4"/></radialGradient><radialGradient id="m" cx="0" cy="0" r="1" gradientTransform="matrix(2.9375 .48438 -.07832 .47496 23.81 21.5)" gradientUnits="userSpaceOnUse"><stop stop-color="#ff706f"/><stop offset="1" stop-color="#ff706f" stop-opacity="0"/></radialGradient><radialGradient id="o" cx="0" cy="0" r="1" gradientTransform="rotate(120.45 -2 12.87)scale(4.22332 6.02155)" gradientUnits="userSpaceOnUse"><stop offset=".79" stop-color="#dc3489" stop-opacity="0"/><stop offset="1" stop-color="#dc3489"/></radialGradient><radialGradient id="q" cx="0" cy="0" r="1" gradientTransform="rotate(96.65 -5.96 15)scale(2.56412 4.50179)" gradientUnits="userSpaceOnUse"><stop offset=".92" stop-color="#e652ae" stop-opacity="0"/><stop offset="1" stop-color="#e652ae"/></radialGradient><radialGradient id="s" cx="0" cy="0" r="1" gradientTransform="rotate(-17.73 100.57 15.48)scale(16.8337 7.40209)" gradientUnits="userSpaceOnUse"><stop stop-color="#f62da9"/><stop offset=".87" stop-color="#f62da9" stop-opacity="0"/></radialGradient><radialGradient id="t" cx="0" cy="0" r="1" gradientTransform="rotate(248.15 21.63 8.21)scale(6.38113 12.1484)" gradientUnits="userSpaceOnUse"><stop stop-color="#f62da9"/><stop offset="1" stop-color="#f62da9" stop-opacity="0"/></radialGradient><radialGradient id="w" cx="0" cy="0" r="1" gradientTransform="matrix(0 -6.25 5.65295 0 16.1 23.2)" gradientUnits="userSpaceOnUse"><stop stop-color="#ff8994"/><stop offset="1" stop-color="#ff8994" stop-opacity="0"/></radialGradient><radialGradient id="x" cx="0" cy="0" r="1" gradientTransform="rotate(134.11 7.91 9.34)scale(17.1494 23.8934)" gradientUnits="userSpaceOnUse"><stop stop-color="#ffbf6b"/><stop offset="1" stop-color="#da8c42"/></radialGradient><radialGradient id="y" cx="0" cy="0" r="1" gradientTransform="rotate(147.77 10.2 8.08)scale(3.39864 7.16968)" gradientUnits="userSpaceOnUse"><stop stop-color="#ffd37f"/><stop offset="1" stop-color="#ffd37f" stop-opacity="0"/></radialGradient><radialGradient id="z" cx="0" cy="0" r="1" gradientTransform="rotate(179.39 12.18 7.32)scale(1.46883 1.9841)" gradientUnits="userSpaceOnUse"><stop offset=".45" stop-color="#f87e3d"/><stop offset="1" stop-color="#f87e3d" stop-opacity="0"/></radialGradient><radialGradient id="A" cx="0" cy="0" r="1" gradientTransform="rotate(196.75 13.54 5.69)scale(20.1682 15.3323)" gradientUnits="userSpaceOnUse"><stop offset=".79" stop-color="#ba7a4f" stop-opacity="0"/><stop offset="1" stop-color="#ba7a4f"/></radialGradient><radialGradient id="B" cx="0" cy="0" r="1" gradientTransform="rotate(196.75 13.54 5.69)scale(20.1682 15.3323)" gradientUnits="userSpaceOnUse"><stop offset=".9" stop-color="#a87450" stop-opacity="0"/><stop offset="1" stop-color="#a87450"/></radialGradient><radialGradient id="C" cx="0" cy="0" r="1" gradientTransform="matrix(0 22 -17.8352 0 16.1 2.35)" gradientUnits="userSpaceOnUse"><stop offset=".64" stop-color="#ff52a5" stop-opacity="0"/><stop offset=".97" stop-color="#ff52a5"/></radialGradient><radialGradient id="D" cx="0" cy="0" r="1" gradientTransform="matrix(0 20.5 -15.3169 0 16.1 2.35)" gradientUnits="userSpaceOnUse"><stop offset=".92" stop-color="#ff586b" stop-opacity="0"/><stop offset="1" stop-color="#ff586b"/></radialGradient><radialGradient id="E" cx="0" cy="0" r="1" gradientTransform="rotate(47.47 -14.4 14.97)scale(1.59014 2.38027)" gradientUnits="userSpaceOnUse"><stop stop-color="#ba7a4f"/><stop offset="1" stop-color="#ba7a4f" stop-opacity="0"/></radialGradient><radialGradient id="F" cx="0" cy="0" r="1" gradientTransform="rotate(125.48 .5 8.37)scale(3.60731 4.04673)" gradientUnits="userSpaceOnUse"><stop stop-color="#4d4061"/><stop offset="1" stop-color="#3c2057"/></radialGradient><radialGradient id="G" cx="0" cy="0" r="1" gradientTransform="rotate(48.01 -10.71 11.56)scale(2.10213 2.87953)" gradientUnits="userSpaceOnUse"><stop stop-color="#382541"/><stop offset="1" stop-color="#382541" stop-opacity="0"/></radialGradient><radialGradient id="H" cx="0" cy="0" r="1" gradientTransform="matrix(0 4.39063 -3.46875 0 6.46 11.02)" gradientUnits="userSpaceOnUse"><stop offset=".79" stop-color="#3f1c52" stop-opacity="0"/><stop offset="1" stop-color="#3f1c52"/></radialGradient><radialGradient id="I" cx="0" cy="0" r="1" gradientTransform="rotate(125.48 10.09 13.31)scale(3.60731 4.04673)" gradientUnits="userSpaceOnUse"><stop stop-color="#4d4061"/><stop offset="1" stop-color="#3c2057"/></radialGradient><radialGradient id="J" cx="0" cy="0" r="1" gradientTransform="rotate(48.01 -1.13 33.09)scale(2.10213 2.87953)" gradientUnits="userSpaceOnUse"><stop stop-color="#382541"/><stop offset="1" stop-color="#382541" stop-opacity="0"/></radialGradient><radialGradient id="K" cx="0" cy="0" r="1" gradientTransform="matrix(0 4.39063 -3.46875 0 25.62 11.02)" gradientUnits="userSpaceOnUse"><stop offset=".79" stop-color="#3f1c52" stop-opacity="0"/><stop offset="1" stop-color="#3f1c52"/></radialGradient><radialGradient id="O" cx="0" cy="0" r="1" gradientTransform="rotate(150.54 4.21 14.48)scale(7.78822 3.26921)" gradientUnits="userSpaceOnUse"><stop offset=".01" stop-color="#ff81b1"/><stop offset="1" stop-color="#ff81b1" stop-opacity="0"/></radialGradient><radialGradient id="P" cx="0" cy="0" r="1" gradientTransform="rotate(172.13 12.24 14.4)scale(6.84574 2.8736)" gradientUnits="userSpaceOnUse"><stop offset=".01" stop-color="#ff81b1"/><stop offset="1" stop-color="#ff81b1" stop-opacity="0"/></radialGradient><radialGradient id="Q" cx="0" cy="0" r="1" gradientTransform="rotate(-79.33 28.63 2.69)scale(2.19419 7.1162)" gradientUnits="userSpaceOnUse"><stop stop-color="#fc5adc"/><stop offset="1" stop-color="#fc5adc" stop-opacity="0"/></radialGradient><radialGradient id="R" cx="0" cy="0" r="1" gradientTransform="rotate(-93.81 19.9 9.75)scale(1.40937 6.05927)" gradientUnits="userSpaceOnUse"><stop stop-color="#fc5adc"/><stop offset="1" stop-color="#fc5adc" stop-opacity="0"/></radialGradient><linearGradient id="a" x1="7.21" x2="6.57" y1="17.83" y2="20.5" gradientUnits="userSpaceOnUse"><stop stop-color="#c25b51"/><stop offset="1" stop-color="#c14c3b"/></linearGradient><linearGradient id="b" x1="25.6" x2="25.19" y1="17.76" y2="20.21" gradientUnits="userSpaceOnUse"><stop stop-color="#ff8a71"/><stop offset="1" stop-color="#ff7b5f"/></linearGradient><linearGradient id="c" x1="24.28" x2="25" y1="20.76" y2="24.54" gradientUnits="userSpaceOnUse"><stop stop-color="#ff726d"/><stop offset="1" stop-color="#fb4f9d"/></linearGradient><linearGradient id="g" x1="5.84" x2="5.94" y1="20.17" y2="20.69" gradientUnits="userSpaceOnUse"><stop stop-color="#d46660"/><stop offset="1" stop-color="#d46660" stop-opacity="0"/></linearGradient><linearGradient id="i" x1="23.45" x2="27.48" y1="21.43" y2="22.34" gradientUnits="userSpaceOnUse"><stop stop-color="#ff9292"/><stop offset="1" stop-color="#ff9292" stop-opacity="0"/></linearGradient><linearGradient id="j" x1="23" x2="25.75" y1="23.84" y2="21.82" gradientUnits="userSpaceOnUse"><stop stop-color="#f84658"/><stop offset="1" stop-color="#f84658" stop-opacity="0"/></linearGradient><linearGradient id="n" x1="9.5" x2="8.19" y1="24.01" y2="22.2" gradientUnits="userSpaceOnUse"><stop stop-color="#e03b55"/><stop offset="1" stop-color="#e03b55" stop-opacity="0"/></linearGradient><linearGradient id="p" x1="7.59" x2="7.72" y1="21.35" y2="21.9" gradientUnits="userSpaceOnUse"><stop stop-color="#ea666e"/><stop offset="1" stop-color="#ea666e" stop-opacity="0"/></linearGradient><linearGradient id="r" x1="16.1" x2="16.1" y1="23.79" y2="30.42" gradientUnits="userSpaceOnUse"><stop stop-color="#ff6e7d"/><stop offset="1" stop-color="#ff4aa0"/></linearGradient><linearGradient id="u" x1="9.83" x2="10.45" y1="23.13" y2="23.84" gradientUnits="userSpaceOnUse"><stop stop-color="#ec4e5e"/><stop offset="1" stop-color="#ec4e5e" stop-opacity="0"/></linearGradient><linearGradient id="M" x1="24.97" x2="28.59" y1="18.42" y2="17.52" gradientUnits="userSpaceOnUse"><stop stop-color="#ffa78e"/><stop offset="1" stop-color="#ffa78e" stop-opacity="0"/></linearGradient><linearGradient id="T" x1="5.34" x2="9.47" y1="22.65" y2="21.77" gradientUnits="userSpaceOnUse"><stop stop-color="#f68696"/><stop offset="1" stop-color="#f68696" stop-opacity="0"/></linearGradient><linearGradient id="V" x1="3.17" x2="7.81" y1="21.63" y2="20.65" gradientUnits="userSpaceOnUse"><stop stop-color="#df6e7b"/><stop offset="1" stop-color="#f68696" stop-opacity="0"/></linearGradient><linearGradient id="X" x1="24.47" x2="30.66" y1="20.15" y2="21.35" gradientUnits="userSpaceOnUse"><stop stop-color="#ff9f93"/><stop offset="1" stop-color="#ff9f93" stop-opacity="0"/></linearGradient><filter id="h" width="4.43" height="1.53" x="22.3" y="20.7" color-interpolation-filters="sRGB" filterUnits="userSpaceOnUse"><feFlood flood-opacity="0" result="BackgroundImageFix"/><feBlend in="SourceGraphic" in2="BackgroundImageFix" result="shape"/><feGaussianBlur result="effect1_foregroundBlur_28327_6125" stdDeviation=".13"/></filter><filter id="v" width="21.27" height="21.58" x="5.46" y="2.17" color-interpolation-filters="sRGB" filterUnits="userSpaceOnUse"><feFlood flood-opacity="0" result="BackgroundImageFix"/><feBlend in="SourceGraphic" in2="BackgroundImageFix" result="shape"/><feGaussianBlur result="effect1_foregroundBlur_28327_6125" stdDeviation=".25"/></filter><filter id="L" width="2.77" height=".78" x="24.57" y="17.95" color-interpolation-filters="sRGB" filterUnits="userSpaceOnUse"><feFlood flood-opacity="0" result="BackgroundImageFix"/><feBlend in="SourceGraphic" in2="BackgroundImageFix" result="shape"/><feGaussianBlur result="effect1_foregroundBlur_28327_6125" stdDeviation=".07"/></filter><filter id="N" width="21.47" height="3.78" x="5.48" y="25.51" color-interpolation-filters="sRGB" filterUnits="userSpaceOnUse"><feFlood flood-opacity="0" result="BackgroundImageFix"/><feBlend in="SourceGraphic" in2="BackgroundImageFix" result="shape"/><feGaussianBlur result="effect1_foregroundBlur_28327_6125" stdDeviation=".13"/></filter><filter id="S" width="5.73" height="1.84" x="4.39" y="20.85" color-interpolation-filters="sRGB" filterUnits="userSpaceOnUse"><feFlood flood-opacity="0" result="BackgroundImageFix"/><feBlend in="SourceGraphic" in2="BackgroundImageFix" result="shape"/><feGaussianBlur result="effect1_foregroundBlur_28327_6125" stdDeviation=".13"/></filter><filter id="U" width="6.17" height="1.93" x="2.28" y="19.7" color-interpolation-filters="sRGB" filterUnits="userSpaceOnUse"><feFlood flood-opacity="0" result="BackgroundImageFix"/><feBlend in="SourceGraphic" in2="BackgroundImageFix" result="shape"/><feGaussianBlur result="effect1_foregroundBlur_28327_6125" stdDeviation=".13"/></filter><filter id="W" width="6.39" height="2.1" x="23.51" y="19.48" color-interpolation-filters="sRGB" filterUnits="userSpaceOnUse"><feFlood flood-opacity="0" result="BackgroundImageFix"/><feBlend in="SourceGraphic" in2="BackgroundImageFix" result="shape"/><feGaussianBlur result="effect1_foregroundBlur_28327_6125" stdDeviation=".13"/></filter></defs></svg>