<svg xmlns="http://www.w3.org/2000/svg" width="32" height="32" fill="none" viewBox="0 0 32 32"><path fill="url(#a)" d="m6.18 9.99 12.56-3.23c5.59-1.21 10.68 3.24 10.68 8.96v5.1l-5.3.89v-.18q-.27.03-.56.03h-7.73c-1.4 0-2.73-.52-3.93-1.1l-.61 2.35c-.14.54-.45.74-.87.74H8.26c-.2 0-.35-.2-.3-.4l1.21-4.73A9 9 0 0 1 6.95 14z"/><path fill="url(#b)" d="m6.18 9.99 12.56-3.23c5.59-1.21 10.68 3.24 10.68 8.96v5.1l-5.3.89v-.18q-.27.03-.56.03h-7.73c-1.4 0-2.73-.52-3.93-1.1l-.61 2.35c-.14.54-.45.74-.87.74H8.26c-.2 0-.35-.2-.3-.4l1.21-4.73A9 9 0 0 1 6.95 14z"/><path fill="url(#c)" d="m6.18 9.99 12.56-3.23c5.59-1.21 10.68 3.24 10.68 8.96v5.1l-5.3.89v-.18q-.27.03-.56.03h-7.73c-1.4 0-2.73-.52-3.93-1.1l-.61 2.35c-.14.54-.45.74-.87.74H8.26c-.2 0-.35-.2-.3-.4l1.21-4.73A9 9 0 0 1 6.95 14z"/><path fill="url(#d)" d="m6.18 9.99 12.56-3.23c5.59-1.21 10.68 3.24 10.68 8.96v5.1l-5.3.89v-.18q-.27.03-.56.03h-7.73c-1.4 0-2.73-.52-3.93-1.1l-.61 2.35c-.14.54-.45.74-.87.74H8.26c-.2 0-.35-.2-.3-.4l1.21-4.73A9 9 0 0 1 6.95 14z"/><path fill="url(#e)" d="m6.18 9.99 12.56-3.23c5.59-1.21 10.68 3.24 10.68 8.96v5.1l-5.3.89v-.18q-.27.03-.56.03h-7.73c-1.4 0-2.73-.52-3.93-1.1l-.61 2.35c-.14.54-.45.74-.87.74H8.26c-.2 0-.35-.2-.3-.4l1.21-4.73A9 9 0 0 1 6.95 14z"/><path fill="url(#f)" d="m6.18 9.99 12.56-3.23c5.59-1.21 10.68 3.24 10.68 8.96v5.1l-5.3.89v-.18q-.27.03-.56.03h-7.73c-1.4 0-2.73-.52-3.93-1.1l-.61 2.35c-.14.54-.45.74-.87.74H8.26c-.2 0-.35-.2-.3-.4l1.21-4.73A9 9 0 0 1 6.95 14z"/><g filter="url(#g)"><ellipse cx="24.14" cy="13.36" fill="url(#h)" rx="4.11" ry="6.28" transform="rotate(-33.14 24.14 13.36)"/></g><g filter="url(#i)"><path fill="url(#j)" d="M9.74 11.17a4.32 4.32 0 1 0 0-8.64 4.32 4.32 0 0 0 0 8.64"/><path fill="url(#k)" d="M9.74 11.17a4.32 4.32 0 1 0 0-8.64 4.32 4.32 0 0 0 0 8.64"/></g><g filter="url(#l)"><path stroke="url(#m)" stroke-linecap="round" stroke-width=".5" d="M7.1 7.16c-.08-.55 0-1.85.98-2.72.97-.88 2.34-.8 2.9-.66"/></g><path fill="url(#n)" d="M24.02 21.4h-7.56a1.08 1.08 0 1 0 0 2.16h7.56a1.08 1.08 0 0 0 0-2.17"/><path fill="url(#o)" d="M24.02 21.4h-7.56a1.08 1.08 0 1 0 0 2.16h7.56a1.08 1.08 0 0 0 0-2.17"/><path fill="url(#p)" d="M24.02 21.4h-7.56a1.08 1.08 0 1 0 0 2.16h7.56a1.08 1.08 0 0 0 0-2.17"/><g filter="url(#q)"><path fill="#baafc6" d="M17.09 6.86a4.33 4.33 0 1 0-8.64.5l-6.12 4.28a2.13 2.13 0 0 0 1.23 3.9h6.55a3.23 3.23 0 0 0 3.23-3.24v-.92c0-.13.1-.23.22-.25 2-.38 3.53-2.14 3.53-4.27"/><path fill="url(#r)" d="M17.09 6.86a4.33 4.33 0 1 0-8.64.5l-6.12 4.28a2.13 2.13 0 0 0 1.23 3.9h6.55a3.23 3.23 0 0 0 3.23-3.24v-.92c0-.13.1-.23.22-.25 2-.38 3.53-2.14 3.53-4.27"/></g><path fill="url(#s)" d="M6.34 12.56a.5.5 0 1 0 0-1 .5.5 0 0 0 0 1"/><path fill="url(#t)" d="M6.34 12.56a.5.5 0 1 0 0-1 .5.5 0 0 0 0 1"/><path fill="url(#u)" d="M22.42 30.53H18.4a2.99 2.99 0 0 1 .01-5.99l5.64.01a3.37 3.37 0 0 0 3.37-3.37v-1.46a1 1 0 0 1 1-1 1 1 0 0 1 1 1v1.46a5.4 5.4 0 0 1-5.37 5.37h-5.64a1 1 0 0 0-.99.98 1 1 0 0 0 .99 1h4.02a1 1 0 0 1 1 1c-.01.56-.46 1-1.01 1"/><path fill="url(#v)" d="M22.42 30.53H18.4a2.99 2.99 0 0 1 .01-5.99l5.64.01a3.37 3.37 0 0 0 3.37-3.37v-1.46a1 1 0 0 1 1-1 1 1 0 0 1 1 1v1.46a5.4 5.4 0 0 1-5.37 5.37h-5.64a1 1 0 0 0-.99.98 1 1 0 0 0 .99 1h4.02a1 1 0 0 1 1 1c-.01.56-.46 1-1.01 1"/><path fill="url(#w)" d="M22.42 30.53H18.4a2.99 2.99 0 0 1 .01-5.99l5.64.01a3.37 3.37 0 0 0 3.37-3.37v-1.46a1 1 0 0 1 1-1 1 1 0 0 1 1 1v1.46a5.4 5.4 0 0 1-5.37 5.37h-5.64a1 1 0 0 0-.99.98 1 1 0 0 0 .99 1h4.02a1 1 0 0 1 1 1c-.01.56-.46 1-1.01 1"/><path fill="url(#x)" d="M22.42 30.53H18.4a2.99 2.99 0 0 1 .01-5.99l5.64.01a3.37 3.37 0 0 0 3.37-3.37v-1.46a1 1 0 0 1 1-1 1 1 0 0 1 1 1v1.46a5.4 5.4 0 0 1-5.37 5.37h-5.64a1 1 0 0 0-.99.98 1 1 0 0 0 .99 1h4.02a1 1 0 0 1 1 1c-.01.56-.46 1-1.01 1"/><path fill="url(#y)" d="M22.42 30.53H18.4a2.99 2.99 0 0 1 .01-5.99l5.64.01a3.37 3.37 0 0 0 3.37-3.37v-1.46a1 1 0 0 1 1-1 1 1 0 0 1 1 1v1.46a5.4 5.4 0 0 1-5.37 5.37h-5.64a1 1 0 0 0-.99.98 1 1 0 0 0 .99 1h4.02a1 1 0 0 1 1 1c-.01.56-.46 1-1.01 1"/><path fill="url(#z)" d="M18.83 19.72a3.83 3.83 0 0 1 3.83-3.83h3.51c1.8 0 3.25 1.46 3.25 3.25v1.16c0 1.8-1.46 3.25-3.25 3.25h-3.5a3.83 3.83 0 0 1-3.84-3.83"/><path fill="url(#A)" d="M18.83 19.72a3.83 3.83 0 0 1 3.83-3.83h3.51c1.8 0 3.25 1.46 3.25 3.25v1.16c0 1.8-1.46 3.25-3.25 3.25h-3.5a3.83 3.83 0 0 1-3.84-3.83"/><path fill="url(#B)" d="M18.83 19.72a3.83 3.83 0 0 1 3.83-3.83h3.51c1.8 0 3.25 1.46 3.25 3.25v1.16c0 1.8-1.46 3.25-3.25 3.25h-3.5a3.83 3.83 0 0 1-3.84-3.83"/><path fill="url(#C)" d="M18.83 19.72a3.83 3.83 0 0 1 3.83-3.83h3.51c1.8 0 3.25 1.46 3.25 3.25v1.16c0 1.8-1.46 3.25-3.25 3.25h-3.5a3.83 3.83 0 0 1-3.84-3.83"/><path fill="url(#D)" d="M18.83 19.72a3.83 3.83 0 0 1 3.83-3.83h3.51c1.8 0 3.25 1.46 3.25 3.25v1.16c0 1.8-1.46 3.25-3.25 3.25h-3.5a3.83 3.83 0 0 1-3.84-3.83"/><path fill="url(#E)" d="M1.78 14.79a2.1 2.1 0 0 1-.27-2.14q.09-.18.28-.22c.25-.05.48.1.53.35l.3 1.57a.5.5 0 0 1-.3.56.5.5 0 0 1-.54-.12"/><path fill="url(#F)" d="M1.78 14.79a2.1 2.1 0 0 1-.27-2.14q.09-.18.28-.22c.25-.05.48.1.53.35l.3 1.57a.5.5 0 0 1-.3.56.5.5 0 0 1-.54-.12"/><path fill="url(#G)" d="M1.78 14.79a2.1 2.1 0 0 1-.27-2.14q.09-.18.28-.22c.25-.05.48.1.53.35l.3 1.57a.5.5 0 0 1-.3.56.5.5 0 0 1-.54-.12"/><path fill="#baafc2" d="m8.95 19.25.22-.85.59-2.4 3.05 1.2-.9 3.25h-.01l-.16.6-.02.1-.43 1.64c-.14.54-.45.74-.87.74H8.26c-.2 0-.35-.2-.3-.4l.94-3.67z"/><path fill="url(#H)" d="m8.95 19.25.22-.85.59-2.4 3.05 1.2-.9 3.25h-.01l-.16.6-.02.1-.43 1.64c-.14.54-.45.74-.87.74H8.26c-.2 0-.35-.2-.3-.4l.94-3.67z"/><path fill="url(#I)" d="m8.95 19.25.22-.85.59-2.4 3.05 1.2-.9 3.25h-.01l-.16.6-.02.1-.43 1.64c-.14.54-.45.74-.87.74H8.26c-.2 0-.35-.2-.3-.4l.94-3.67z"/><path fill="url(#J)" d="m8.95 19.25.22-.85.59-2.4 3.05 1.2-.9 3.25h-.01l-.16.6-.02.1-.43 1.64c-.14.54-.45.74-.87.74H8.26c-.2 0-.35-.2-.3-.4l.94-3.67z"/><g filter="url(#K)"><circle cx="26.93" cy="18.91" r="1.94" fill="url(#L)" transform="rotate(7.65 26.93 18.9)"/></g><path fill="url(#M)" d="M9.17 18.41a8 8 0 0 1-1.77-2.88h1.7l.7.47z"/><path fill="url(#N)" d="M9.17 18.41a8 8 0 0 1-1.77-2.88h1.7l.7.47z"/><g filter="url(#O)"><path stroke="url(#P)" stroke-linecap="round" stroke-width=".6" d="M12.2 10.42v1.72a2 2 0 0 1-.94 1.7l-.07.04"/></g><circle cx="12.8" cy="6.8" r="4.36" fill="#baafc6"/><circle cx="12.8" cy="6.8" r="4.36" fill="url(#Q)"/><circle cx="12.8" cy="6.8" r="4.36" fill="url(#R)"/><circle cx="12.8" cy="6.8" r="4.36" fill="url(#S)"/><path fill="url(#T)" d="M12.75 10.11a3.25 3.25 0 1 0 0-6.5 3.25 3.25 0 0 0 0 6.5"/><path fill="url(#U)" d="M12.75 10.11a3.25 3.25 0 1 0 0-6.5 3.25 3.25 0 0 0 0 6.5"/><g filter="url(#V)"><path stroke="url(#W)" stroke-linecap="round" stroke-width=".1" d="M9.23 5.94c-.22.78-.2 2.7 1.63 4.1"/></g><g filter="url(#X)"><path stroke="url(#Y)" stroke-linecap="round" stroke-width=".1" d="M16.65 6.58c0-.8-.5-2.65-2.63-3.53"/></g><g filter="url(#Z)"><path stroke="url(#aa)" stroke-linecap="round" stroke-width=".5" d="M16.69 26.75c0-.39.33-1.16 1.65-1.16h6.2c.68.04 2.07-.4 2.96-1.62"/></g><g filter="url(#ab)"><path stroke="url(#ac)" stroke-linecap="round" stroke-width=".5" d="M16.69 27.17c0 1.04.39 1.93 1.71 1.93h3.58"/></g><g filter="url(#ad)"><circle cx="22.66" cy="29.23" r=".39" fill="#fdb1bb" fill-opacity=".75"/></g><defs><radialGradient id="b" cx="0" cy="0" r="1" gradientTransform="rotate(233.53 17.72 3.05)scale(7.15017 6.67845)" gradientUnits="userSpaceOnUse"><stop stop-color="#b3abb8"/><stop offset="1" stop-color="#b3abb8" stop-opacity="0"/></radialGradient><radialGradient id="c" cx="0" cy="0" r="1" gradientTransform="rotate(182.7 11.21 9)scale(4.63017 4.7477)" gradientUnits="userSpaceOnUse"><stop stop-color="#b3abb8"/><stop offset="1" stop-color="#b3abb8" stop-opacity="0"/></radialGradient><radialGradient id="d" cx="0" cy="0" r="1" gradientTransform="rotate(-65.14 25.5 -.57)scale(4.23642 4.50059)" gradientUnits="userSpaceOnUse"><stop offset=".22" stop-color="#a47ec2"/><stop offset="1" stop-color="#a47ec2" stop-opacity="0"/></radialGradient><radialGradient id="e" cx="0" cy="0" r="1" gradientTransform="rotate(150.07 7.35 13.57)scale(4.75986 5.37614)" gradientUnits="userSpaceOnUse"><stop stop-color="#907c9d"/><stop offset="1" stop-color="#907c9d" stop-opacity="0"/></radialGradient><radialGradient id="f" cx="0" cy="0" r="1" gradientTransform="rotate(61.45 -3.42 14.18)scale(4.8384 5.46486)" gradientUnits="userSpaceOnUse"><stop stop-color="#907c9d"/><stop offset="1" stop-color="#907c9d" stop-opacity="0"/></radialGradient><radialGradient id="h" cx="0" cy="0" r="1" gradientTransform="rotate(15.72 -30.5 69.06)scale(11.8969 9.68932)" gradientUnits="userSpaceOnUse"><stop offset=".52" stop-color="#e3e1e6" stop-opacity="0"/><stop offset="1" stop-color="#e3e1e6"/></radialGradient><radialGradient id="j" cx="0" cy="0" r="1" gradientTransform="rotate(214.95 5.35 2.45)scale(3.54574 4.63364)" gradientUnits="userSpaceOnUse"><stop stop-color="#9b9b9b"/><stop offset="1" stop-color="#b0adb1"/></radialGradient><radialGradient id="k" cx="0" cy="0" r="1" gradientTransform="rotate(116.86 5.26 4.46)scale(4.13343)" gradientUnits="userSpaceOnUse"><stop stop-color="#c0bbbd"/><stop offset="1" stop-color="#c0bbbd" stop-opacity="0"/></radialGradient><radialGradient id="p" cx="0" cy="0" r="1" gradientTransform="rotate(-28.47 53.2 -18.96)scale(1.47522 1.51614)" gradientUnits="userSpaceOnUse"><stop stop-color="#d18496"/><stop offset=".55" stop-color="#d18496" stop-opacity="0"/></radialGradient><radialGradient id="s" cx="0" cy="0" r="1" gradientTransform="rotate(125.84 .2 7.6)scale(.69906 .62324)" gradientUnits="userSpaceOnUse"><stop offset=".01" stop-color="#433437"/><stop offset="1" stop-color="#3b2838"/></radialGradient><radialGradient id="t" cx="0" cy="0" r="1" gradientTransform="rotate(126.38 .23 7.62)scale(.37152 .31318)" gradientUnits="userSpaceOnUse"><stop stop-color="#5c5051"/><stop offset="1" stop-color="#5c5051" stop-opacity="0"/></radialGradient><radialGradient id="w" cx="0" cy="0" r="1" gradientTransform="rotate(-64.1 30.02 1.51)scale(4.27491 4.12115)" gradientUnits="userSpaceOnUse"><stop stop-color="#d18496"/><stop offset=".55" stop-color="#d18496" stop-opacity="0"/></radialGradient><radialGradient id="x" cx="0" cy="0" r="1" gradientTransform="translate(31.51 23.38)scale(-4.375)" gradientUnits="userSpaceOnUse"><stop stop-color="#d18496"/><stop offset="1" stop-color="#d18496" stop-opacity="0"/></radialGradient><radialGradient id="y" cx="0" cy="0" r="1" gradientTransform="matrix(-5.15625 0 0 -6.11111 29.76 23.03)" gradientUnits="userSpaceOnUse"><stop stop-color="#e88e9a"/><stop offset="1" stop-color="#e88e9a" stop-opacity="0"/></radialGradient><radialGradient id="A" cx="0" cy="0" r="1" gradientTransform="matrix(0 -5.84375 12.2175 0 24.58 25.06)" gradientUnits="userSpaceOnUse"><stop stop-color="#a980b5"/><stop offset="1" stop-color="#a980b5" stop-opacity="0"/></radialGradient><radialGradient id="C" cx="0" cy="0" r="1" gradientTransform="rotate(34.78 -18.57 37.61)scale(6.35421 7.59825)" gradientUnits="userSpaceOnUse"><stop stop-color="#9e96a4"/><stop offset="1" stop-color="#9e96a4" stop-opacity="0"/></radialGradient><radialGradient id="E" cx="0" cy="0" r="1" gradientTransform="rotate(167.9 .59 6.99)scale(1.23044 3.24334)" gradientUnits="userSpaceOnUse"><stop stop-color="#de7d8b"/><stop offset="1" stop-color="#d56b77"/></radialGradient><radialGradient id="G" cx="0" cy="0" r="1" gradientTransform="rotate(79.11 -6.67 7.75)scale(1.03423 .56536)" gradientUnits="userSpaceOnUse"><stop stop-color="#e58e94"/><stop offset=".88" stop-color="#e58e94" stop-opacity="0"/></radialGradient><radialGradient id="L" cx="0" cy="0" r="1" gradientTransform="rotate(126.87 9.15 16.06)scale(3.4375 2.34375)" gradientUnits="userSpaceOnUse"><stop stop-color="#e2dfe6"/><stop offset=".81" stop-color="#e2dfe6" stop-opacity="0"/></radialGradient><radialGradient id="Q" cx="0" cy="0" r="1" gradientTransform="rotate(44.81 -.46 17.28)scale(6.75543 7.48028)" gradientUnits="userSpaceOnUse"><stop offset=".8" stop-color="#a47ec2" stop-opacity="0"/><stop offset="1" stop-color="#a47ec2"/></radialGradient><radialGradient id="R" cx="0" cy="0" r="1" gradientTransform="rotate(141.18 7.2 4.93)scale(6.90483 16.2921)" gradientUnits="userSpaceOnUse"><stop stop-color="#b0a4b3"/><stop offset="1" stop-color="#b0a4b3" stop-opacity="0"/></radialGradient><radialGradient id="S" cx="0" cy="0" r="1" gradientTransform="rotate(203.66 7.24 2.2)scale(4.98333 4.92817)" gradientUnits="userSpaceOnUse"><stop offset=".87" stop-color="#cec2d1" stop-opacity="0"/><stop offset="1" stop-color="#cec2d1"/></radialGradient><radialGradient id="T" cx="0" cy="0" r="1" gradientTransform="rotate(131.96 6.02 5.83)scale(5.84183 7.50972)" gradientUnits="userSpaceOnUse"><stop stop-color="#d06b6e"/><stop offset="1" stop-color="#b7454b"/></radialGradient><radialGradient id="U" cx="0" cy="0" r="1" gradientTransform="rotate(-40.43 16.81 -10.84)scale(3.32515)" gradientUnits="userSpaceOnUse"><stop stop-color="#d27a7b"/><stop offset="1" stop-color="#d27a7b" stop-opacity="0"/></radialGradient><linearGradient id="a" x1="18.48" x2="18.48" y1="8.34" y2="23.55" gradientUnits="userSpaceOnUse"><stop stop-color="#c7c3c9"/><stop offset="1" stop-color="#ac9bbb"/></linearGradient><linearGradient id="m" x1="10.54" x2="7.25" y1="3.69" y2="7.25" gradientUnits="userSpaceOnUse"><stop stop-color="#c0bbbd"/><stop offset="1" stop-color="#c0bbbd" stop-opacity="0"/></linearGradient><linearGradient id="n" x1="17.23" x2="25.1" y1="22.47" y2="22.47" gradientUnits="userSpaceOnUse"><stop stop-color="#cd717c"/><stop offset="1" stop-color="#c14b76"/></linearGradient><linearGradient id="o" x1="20.24" x2="20.24" y1="23.73" y2="22.83" gradientUnits="userSpaceOnUse"><stop stop-color="#c35385"/><stop offset="1" stop-color="#c35385" stop-opacity="0"/></linearGradient><linearGradient id="r" x1="8.77" x2="8.77" y1="16.72" y2="13.72" gradientUnits="userSpaceOnUse"><stop stop-color="#a47ec2"/><stop offset=".84" stop-color="#a47ec2" stop-opacity="0"/></linearGradient><linearGradient id="u" x1="18.09" x2="29.42" y1="24.63" y2="24.63" gradientUnits="userSpaceOnUse"><stop stop-color="#cd717c"/><stop offset="1" stop-color="#c14b76"/></linearGradient><linearGradient id="v" x1="22.42" x2="22.42" y1="31.53" y2="29.84" gradientUnits="userSpaceOnUse"><stop stop-color="#c35385"/><stop offset="1" stop-color="#c35385" stop-opacity="0"/></linearGradient><linearGradient id="z" x1="21.05" x2="21.05" y1="23.55" y2="15.28" gradientUnits="userSpaceOnUse"><stop stop-color="#bbb7be"/><stop offset="1" stop-color="#c4c0c8"/></linearGradient><linearGradient id="B" x1="24.58" x2="24.58" y1="23.97" y2="20.28" gradientUnits="userSpaceOnUse"><stop offset=".02" stop-color="#a980b5"/><stop offset=".38" stop-color="#a980b5" stop-opacity="0"/></linearGradient><linearGradient id="D" x1="22.89" x2="23.01" y1="13.66" y2="17.09" gradientUnits="userSpaceOnUse"><stop stop-color="#9e96a4"/><stop offset="1" stop-color="#9e96a4" stop-opacity="0"/></linearGradient><linearGradient id="F" x1="2.31" x2="2.08" y1="15.23" y2="14.24" gradientUnits="userSpaceOnUse"><stop stop-color="#d26483"/><stop offset="1" stop-color="#d26483" stop-opacity="0"/></linearGradient><linearGradient id="H" x1="9.73" x2="9.86" y1="24.56" y2="22.69" gradientUnits="userSpaceOnUse"><stop offset=".22" stop-color="#a47ec2"/><stop offset="1" stop-color="#a47ec2" stop-opacity="0"/></linearGradient><linearGradient id="I" x1="11.79" x2="10.79" y1="23.03" y2="22.81" gradientUnits="userSpaceOnUse"><stop stop-color="#c9bad7"/><stop offset="1" stop-color="#c9bad7" stop-opacity="0"/></linearGradient><linearGradient id="J" x1="12.86" x2="12.41" y1="17.6" y2="18.99" gradientUnits="userSpaceOnUse"><stop stop-color="#baafc2"/><stop offset="1" stop-color="#baafc2" stop-opacity="0"/></linearGradient><linearGradient id="M" x1="9.65" x2="9.03" y1="17.69" y2="17.34" gradientUnits="userSpaceOnUse"><stop stop-color="#d1cbd8"/><stop offset="1" stop-color="#d1cbd8" stop-opacity="0"/></linearGradient><linearGradient id="N" x1="8.23" x2="9.26" y1="17.8" y2="16.88" gradientUnits="userSpaceOnUse"><stop stop-color="#d1cbd8"/><stop offset="1" stop-color="#d1cbd8" stop-opacity="0"/></linearGradient><linearGradient id="P" x1="11.83" x2="9.4" y1="12.8" y2="16.58" gradientUnits="userSpaceOnUse"><stop stop-color="#d3cbd9"/><stop offset="1" stop-color="#d3cbd9" stop-opacity="0"/></linearGradient><linearGradient id="W" x1="11.29" x2="7.76" y1="10.03" y2="8.7" gradientUnits="userSpaceOnUse"><stop stop-color="#ded8de" stop-opacity="0"/><stop offset=".33" stop-color="#ded8de"/><stop offset=".65" stop-color="#ded8de"/><stop offset="1" stop-color="#ded8de" stop-opacity="0"/></linearGradient><linearGradient id="Y" x1="13.6" x2="17.35" y1="3.16" y2="3.53" gradientUnits="userSpaceOnUse"><stop stop-color="#ded8de" stop-opacity="0"/><stop offset=".33" stop-color="#ded8de"/><stop offset=".65" stop-color="#ded8de"/><stop offset="1" stop-color="#ded8de" stop-opacity="0"/></linearGradient><linearGradient id="aa" x1="17.05" x2="21.12" y1="26.47" y2="19.37" gradientUnits="userSpaceOnUse"><stop stop-color="#e88e9a"/><stop offset="1" stop-color="#e88e9a" stop-opacity="0"/></linearGradient><linearGradient id="ac" x1="17.11" x2="21.18" y1="28.23" y2="35.32" gradientUnits="userSpaceOnUse"><stop stop-color="#fdb1bb"/><stop offset="1" stop-color="#e88e9a" stop-opacity="0"/></linearGradient><filter id="g" width="12.73" height="14.45" x="17.77" y="6.14" color-interpolation-filters="sRGB" filterUnits="userSpaceOnUse"><feFlood flood-opacity="0" result="BackgroundImageFix"/><feBlend in="SourceGraphic" in2="BackgroundImageFix" result="shape"/><feGaussianBlur result="effect1_foregroundBlur_28327_3693" stdDeviation=".75"/></filter><filter id="i" width="8.79" height="8.74" x="5.42" y="2.43" color-interpolation-filters="sRGB" filterUnits="userSpaceOnUse"><feFlood flood-opacity="0" result="BackgroundImageFix"/><feBlend in="SourceGraphic" in2="BackgroundImageFix" result="shape"/><feColorMatrix in="SourceAlpha" result="hardAlpha" values="0 0 0 0 0 0 0 0 0 0 0 0 0 0 0 0 0 0 127 0"/><feOffset dx=".15" dy="-.1"/><feGaussianBlur stdDeviation=".25"/><feComposite in2="hardAlpha" k2="-1" k3="1" operator="arithmetic"/><feColorMatrix values="0 0 0 0 0.803922 0 0 0 0 0.796078 0 0 0 0 0.807843 0 0 0 1 0"/><feBlend in2="shape" result="effect1_innerShadow_28327_3693"/></filter><filter id="l" width="6.4" height="5.96" x="5.83" y="2.44" color-interpolation-filters="sRGB" filterUnits="userSpaceOnUse"><feFlood flood-opacity="0" result="BackgroundImageFix"/><feBlend in="SourceGraphic" in2="BackgroundImageFix" result="shape"/><feGaussianBlur result="effect1_foregroundBlur_28327_3693" stdDeviation=".5"/></filter><filter id="q" width="15.67" height="13.75" x="1.42" y="2.53" color-interpolation-filters="sRGB" filterUnits="userSpaceOnUse"><feFlood flood-opacity="0" result="BackgroundImageFix"/><feBlend in="SourceGraphic" in2="BackgroundImageFix" result="shape"/><feColorMatrix in="SourceAlpha" result="hardAlpha" values="0 0 0 0 0 0 0 0 0 0 0 0 0 0 0 0 0 0 127 0"/><feOffset dy=".75"/><feGaussianBlur stdDeviation=".75"/><feComposite in2="hardAlpha" k2="-1" k3="1" operator="arithmetic"/><feColorMatrix values="0 0 0 0 0.701961 0 0 0 0 0.682353 0 0 0 0 0.72549 0 0 0 1 0"/><feBlend in2="shape" result="effect1_innerShadow_28327_3693"/><feColorMatrix in="SourceAlpha" result="hardAlpha" values="0 0 0 0 0 0 0 0 0 0 0 0 0 0 0 0 0 0 127 0"/><feOffset dy=".25"/><feGaussianBlur stdDeviation=".25"/><feComposite in2="hardAlpha" k2="-1" k3="1" operator="arithmetic"/><feColorMatrix values="0 0 0 0 0.809819 0 0 0 0 0.780799 0 0 0 0 0.829167 0 0 0 1 0"/><feBlend in2="effect1_innerShadow_28327_3693" result="effect2_innerShadow_28327_3693"/></filter><filter id="K" width="5.88" height="5.88" x="23.99" y="15.97" color-interpolation-filters="sRGB" filterUnits="userSpaceOnUse"><feFlood flood-opacity="0" result="BackgroundImageFix"/><feBlend in="SourceGraphic" in2="BackgroundImageFix" result="shape"/><feGaussianBlur result="effect1_foregroundBlur_28327_3693" stdDeviation=".5"/></filter><filter id="O" width="3.61" height="6.06" x="9.89" y="9.12" color-interpolation-filters="sRGB" filterUnits="userSpaceOnUse"><feFlood flood-opacity="0" result="BackgroundImageFix"/><feBlend in="SourceGraphic" in2="BackgroundImageFix" result="shape"/><feGaussianBlur result="effect1_foregroundBlur_28327_3693" stdDeviation=".5"/></filter><filter id="V" width="2.42" height="4.79" x="8.79" y="5.59" color-interpolation-filters="sRGB" filterUnits="userSpaceOnUse"><feFlood flood-opacity="0" result="BackgroundImageFix"/><feBlend in="SourceGraphic" in2="BackgroundImageFix" result="shape"/><feGaussianBlur result="effect1_foregroundBlur_28327_3693" stdDeviation=".15"/></filter><filter id="X" width="3.33" height="4.23" x="13.67" y="2.7" color-interpolation-filters="sRGB" filterUnits="userSpaceOnUse"><feFlood flood-opacity="0" result="BackgroundImageFix"/><feBlend in="SourceGraphic" in2="BackgroundImageFix" result="shape"/><feGaussianBlur result="effect1_foregroundBlur_28327_3693" stdDeviation=".15"/></filter><filter id="Z" width="12.81" height="4.78" x="15.69" y="22.97" color-interpolation-filters="sRGB" filterUnits="userSpaceOnUse"><feFlood flood-opacity="0" result="BackgroundImageFix"/><feBlend in="SourceGraphic" in2="BackgroundImageFix" result="shape"/><feGaussianBlur result="effect1_foregroundBlur_28327_3693" stdDeviation=".38"/></filter><filter id="ab" width="7.3" height="3.94" x="15.69" y="26.17" color-interpolation-filters="sRGB" filterUnits="userSpaceOnUse"><feFlood flood-opacity="0" result="BackgroundImageFix"/><feBlend in="SourceGraphic" in2="BackgroundImageFix" result="shape"/><feGaussianBlur result="effect1_foregroundBlur_28327_3693" stdDeviation=".38"/></filter><filter id="ad" width="1.78" height="1.78" x="21.77" y="28.34" color-interpolation-filters="sRGB" filterUnits="userSpaceOnUse"><feFlood flood-opacity="0" result="BackgroundImageFix"/><feBlend in="SourceGraphic" in2="BackgroundImageFix" result="shape"/><feGaussianBlur result="effect1_foregroundBlur_28327_3693" stdDeviation=".25"/></filter></defs></svg>