<svg xmlns="http://www.w3.org/2000/svg" width="32" height="32" fill="none" viewBox="0 0 32 32"><path fill="#484749" d="M25.13 8.21c2.46 3.22 1.96 3.6 1.96 4.97l.85.77a4.2 4.2 0 0 0 .78-5.05c-.5-.81-3.75-3.72-3.75-3.72a2.6 2.6 0 0 0 .16 3.03"/><path fill="url(#a)" d="M25.13 8.21c2.46 3.22 1.96 3.6 1.96 4.97l.85.77a4.2 4.2 0 0 0 .78-5.05c-.5-.81-3.75-3.72-3.75-3.72a2.6 2.6 0 0 0 .16 3.03"/><g filter="url(#b)"><path fill="url(#c)" d="M24.94 5.23c0 .7.31 1.77 2.01 3.46 1.99 1.97 1.36 3.49.62 4.93l.37.33a4.2 4.2 0 0 0 .78-5.05c-.5-.81-3.75-3.72-3.75-3.72z"/></g><path fill="url(#d)" d="m17.5 21.43 3.04 2.28a2.4 2.4 0 0 1 .48 3.36l-2.24 2.99a.23.23 0 0 0 .18.37h1.22q.31 0 .52-.25l3.24-4.05c.36-.45.56-1.02.56-1.6v-4.1h-7z"/><path fill="url(#e)" d="m17.5 21.43 3.04 2.28a2.4 2.4 0 0 1 .48 3.36l-2.24 2.99a.23.23 0 0 0 .18.37h1.22q.31 0 .52-.25l3.24-4.05c.36-.45.56-1.02.56-1.6v-4.1h-7z"/><path fill="url(#f)" d="m17.5 21.43 3.04 2.28a2.4 2.4 0 0 1 .48 3.36l-2.24 2.99a.23.23 0 0 0 .18.37h1.22q.31 0 .52-.25l3.24-4.05c.36-.45.56-1.02.56-1.6v-4.1h-7z"/><path fill="url(#g)" d="m17.5 21.43 3.04 2.28a2.4 2.4 0 0 1 .48 3.36l-2.24 2.99a.23.23 0 0 0 .18.37h1.22q.31 0 .52-.25l3.24-4.05c.36-.45.56-1.02.56-1.6v-4.1h-7z"/><path fill="url(#h)" d="m17.5 21.43 3.04 2.28a2.4 2.4 0 0 1 .48 3.36l-2.24 2.99a.23.23 0 0 0 .18.37h1.22q.31 0 .52-.25l3.24-4.05c.36-.45.56-1.02.56-1.6v-4.1h-7z"/><path fill="url(#i)" d="M12.5 21.43v8.74c0 .14-.12.26-.26.26h-.55a.3.3 0 0 1-.25-.19l-1.36-4.67a15 15 0 0 1-.58-4.14v-2h3z"/><path fill="url(#j)" d="M12.5 21.43v8.74c0 .14-.12.26-.26.26h-.55a.3.3 0 0 1-.25-.19l-1.36-4.67a15 15 0 0 1-.58-4.14v-2h3z"/><path fill="url(#k)" d="M12.5 21.43v8.74c0 .14-.12.26-.26.26h-.55a.3.3 0 0 1-.25-.19l-1.36-4.67a15 15 0 0 1-.58-4.14v-2h3z"/><path fill="#3b3444" d="M12.5 27.46v-1h-2.15l.29 1z"/><path fill="#3e3745" d="M12.5 24.43v-1H9.64q.07.5.17 1z"/><path fill="#5e5c61" d="M12.18 4.6a7.4 7.4 0 0 0-4.56-1.9 6 6 0 0 0-3.7 1.35.5.5 0 0 0-.02.76l2.72 2.63.41-.05.4.39q.32-.28.8-.31c.47-.02.92.3 1.12.72q.18.3.17.64-.04.6-.13 1.2-.12 1.4-.35 2.8h5.48v-3a7 7 0 0 0-2.34-5.22"/><path fill="url(#l)" d="M12.18 4.6a7.4 7.4 0 0 0-4.56-1.9 6 6 0 0 0-3.7 1.35.5.5 0 0 0-.02.76l2.72 2.63.41-.05.4.39q.32-.28.8-.31c.47-.02.92.3 1.12.72q.18.3.17.64-.04.6-.13 1.2-.12 1.4-.35 2.8h5.48v-3a7 7 0 0 0-2.34-5.22"/><path fill="url(#m)" d="M12.18 4.6a7.4 7.4 0 0 0-4.56-1.9 6 6 0 0 0-3.7 1.35.5.5 0 0 0-.02.76l2.72 2.63.41-.05.4.39q.32-.28.8-.31c.47-.02.92.3 1.12.72q.18.3.17.64-.04.6-.13 1.2-.12 1.4-.35 2.8h5.48v-3a7 7 0 0 0-2.34-5.22"/><path fill="url(#n)" d="M24.5 12.43H13a.5.5 0 0 1-.5-.5v-2.5a6 6 0 0 0-4.35-5.77 4 4 0 0 1-1.17-.5l-1.02-.69a.31.31 0 0 0-.46.27c0 .88-.33 1.72-.92 2.36L1.76 8.13c-.22.25-.31.6-.23.94.15.68.84 1.01 1.48.75l3.15-1.27c.16-.07.34.05.34.23v7.65a5 5 0 0 0 4.75 5q.23.02.25.25.03 1.99.59 3.89l1.36 4.67q.06.18.25.19h.55c.14 0 .26-.12.26-.26v-8.34c0-.22.18-.4.4-.4h6.95q.66 0 1.18.39l2.52 1.89a2.4 2.4 0 0 1 .48 3.36l-2.24 2.99a.22.22 0 0 0 .16.37h1.22q.31 0 .52-.25l3.24-4.05c.36-.45.56-1.02.56-1.6v-7.1a5 5 0 0 0-5-5"/><path fill="url(#o)" d="M24.5 12.43H13a.5.5 0 0 1-.5-.5v-2.5a6 6 0 0 0-4.35-5.77 4 4 0 0 1-1.17-.5l-1.02-.69a.31.31 0 0 0-.46.27c0 .88-.33 1.72-.92 2.36L1.76 8.13c-.22.25-.31.6-.23.94.15.68.84 1.01 1.48.75l3.15-1.27c.16-.07.34.05.34.23v7.65a5 5 0 0 0 4.75 5q.23.02.25.25.03 1.99.59 3.89l1.36 4.67q.06.18.25.19h.55c.14 0 .26-.12.26-.26v-8.34c0-.22.18-.4.4-.4h6.95q.66 0 1.18.39l2.52 1.89a2.4 2.4 0 0 1 .48 3.36l-2.24 2.99a.22.22 0 0 0 .16.37h1.22q.31 0 .52-.25l3.24-4.05c.36-.45.56-1.02.56-1.6v-7.1a5 5 0 0 0-5-5"/><path fill="url(#p)" d="M24.5 12.43H13a.5.5 0 0 1-.5-.5v-2.5a6 6 0 0 0-4.35-5.77 4 4 0 0 1-1.17-.5l-1.02-.69a.31.31 0 0 0-.46.27c0 .88-.33 1.72-.92 2.36L1.76 8.13c-.22.25-.31.6-.23.94.15.68.84 1.01 1.48.75l3.15-1.27c.16-.07.34.05.34.23v7.65a5 5 0 0 0 4.75 5q.23.02.25.25.03 1.99.59 3.89l1.36 4.67q.06.18.25.19h.55c.14 0 .26-.12.26-.26v-8.34c0-.22.18-.4.4-.4h6.95q.66 0 1.18.39l2.52 1.89a2.4 2.4 0 0 1 .48 3.36l-2.24 2.99a.22.22 0 0 0 .16.37h1.22q.31 0 .52-.25l3.24-4.05c.36-.45.56-1.02.56-1.6v-7.1a5 5 0 0 0-5-5"/><path fill="url(#q)" d="M24.5 12.43H13a.5.5 0 0 1-.5-.5v-2.5a6 6 0 0 0-4.35-5.77 4 4 0 0 1-1.17-.5l-1.02-.69a.31.31 0 0 0-.46.27c0 .88-.33 1.72-.92 2.36L1.76 8.13c-.22.25-.31.6-.23.94.15.68.84 1.01 1.48.75l3.15-1.27c.16-.07.34.05.34.23v7.65a5 5 0 0 0 4.75 5q.23.02.25.25.03 1.99.59 3.89l1.36 4.67q.06.18.25.19h.55c.14 0 .26-.12.26-.26v-8.34c0-.22.18-.4.4-.4h6.95q.66 0 1.18.39l2.52 1.89a2.4 2.4 0 0 1 .48 3.36l-2.24 2.99a.22.22 0 0 0 .16.37h1.22q.31 0 .52-.25l3.24-4.05c.36-.45.56-1.02.56-1.6v-7.1a5 5 0 0 0-5-5"/><path fill="url(#r)" d="M24.5 12.43H13a.5.5 0 0 1-.5-.5v-2.5a6 6 0 0 0-4.35-5.77 4 4 0 0 1-1.17-.5l-1.02-.69a.31.31 0 0 0-.46.27c0 .88-.33 1.72-.92 2.36L1.76 8.13c-.22.25-.31.6-.23.94.15.68.84 1.01 1.48.75l3.15-1.27c.16-.07.34.05.34.23v7.65a5 5 0 0 0 4.75 5q.23.02.25.25.03 1.99.59 3.89l1.36 4.67q.06.18.25.19h.55c.14 0 .26-.12.26-.26v-8.34c0-.22.18-.4.4-.4h6.95q.66 0 1.18.39l2.52 1.89a2.4 2.4 0 0 1 .48 3.36l-2.24 2.99a.22.22 0 0 0 .16.37h1.22q.31 0 .52-.25l3.24-4.05c.36-.45.56-1.02.56-1.6v-7.1a5 5 0 0 0-5-5"/><path fill="url(#s)" d="M24.5 12.43H13a.5.5 0 0 1-.5-.5v-2.5a6 6 0 0 0-4.35-5.77 4 4 0 0 1-1.17-.5l-1.02-.69a.31.31 0 0 0-.46.27c0 .88-.33 1.72-.92 2.36L1.76 8.13c-.22.25-.31.6-.23.94.15.68.84 1.01 1.48.75l3.15-1.27c.16-.07.34.05.34.23v7.65a5 5 0 0 0 4.75 5q.23.02.25.25.03 1.99.59 3.89l1.36 4.67q.06.18.25.19h.55c.14 0 .26-.12.26-.26v-8.34c0-.22.18-.4.4-.4h6.95q.66 0 1.18.39l2.52 1.89a2.4 2.4 0 0 1 .48 3.36l-2.24 2.99a.22.22 0 0 0 .16.37h1.22q.31 0 .52-.25l3.24-4.05c.36-.45.56-1.02.56-1.6v-7.1a5 5 0 0 0-5-5"/><path fill="url(#t)" d="M24.5 12.43H13a.5.5 0 0 1-.5-.5v-2.5a6 6 0 0 0-4.35-5.77 4 4 0 0 1-1.17-.5l-1.02-.69a.31.31 0 0 0-.46.27c0 .88-.33 1.72-.92 2.36L1.76 8.13c-.22.25-.31.6-.23.94.15.68.84 1.01 1.48.75l3.15-1.27c.16-.07.34.05.34.23v7.65a5 5 0 0 0 4.75 5q.23.02.25.25.03 1.99.59 3.89l1.36 4.67q.06.18.25.19h.55c.14 0 .26-.12.26-.26v-8.34c0-.22.18-.4.4-.4h6.95q.66 0 1.18.39l2.52 1.89a2.4 2.4 0 0 1 .48 3.36l-2.24 2.99a.22.22 0 0 0 .16.37h1.22q.31 0 .52-.25l3.24-4.05c.36-.45.56-1.02.56-1.6v-7.1a5 5 0 0 0-5-5"/><path fill="url(#u)" d="M24.5 12.43H13a.5.5 0 0 1-.5-.5v-2.5a6 6 0 0 0-4.35-5.77 4 4 0 0 1-1.17-.5l-1.02-.69a.31.31 0 0 0-.46.27c0 .88-.33 1.72-.92 2.36L1.76 8.13c-.22.25-.31.6-.23.94.15.68.84 1.01 1.48.75l3.15-1.27c.16-.07.34.05.34.23v7.65a5 5 0 0 0 4.75 5q.23.02.25.25.03 1.99.59 3.89l1.36 4.67q.06.18.25.19h.55c.14 0 .26-.12.26-.26v-8.34c0-.22.18-.4.4-.4h6.95q.66 0 1.18.39l2.52 1.89a2.4 2.4 0 0 1 .48 3.36l-2.24 2.99a.22.22 0 0 0 .16.37h1.22q.31 0 .52-.25l3.24-4.05c.36-.45.56-1.02.56-1.6v-7.1a5 5 0 0 0-5-5"/><path fill="url(#v)" d="M24.5 12.43H13a.5.5 0 0 1-.5-.5v-2.5a6 6 0 0 0-4.35-5.77 4 4 0 0 1-1.17-.5l-1.02-.69a.31.31 0 0 0-.46.27c0 .88-.33 1.72-.92 2.36L1.76 8.13c-.22.25-.31.6-.23.94.15.68.84 1.01 1.48.75l3.15-1.27c.16-.07.34.05.34.23v7.65a5 5 0 0 0 4.75 5q.23.02.25.25.03 1.99.59 3.89l1.36 4.67q.06.18.25.19h.55c.14 0 .26-.12.26-.26v-8.34c0-.22.18-.4.4-.4h6.95q.66 0 1.18.39l2.52 1.89a2.4 2.4 0 0 1 .48 3.36l-2.24 2.99a.22.22 0 0 0 .16.37h1.22q.31 0 .52-.25l3.24-4.05c.36-.45.56-1.02.56-1.6v-7.1a5 5 0 0 0-5-5"/><g filter="url(#w)"><path stroke="#ebeaec" stroke-width=".75" d="M13.34 13.61h10.82a4.2 4.2 0 0 1 4.22 4.22v7.16"/></g><path fill="url(#x)" d="M12.1 25.57q-.6-2.03-.6-4.14c0-.7.95-.9 1.5-.9s1.52.2 1.52 1.22v8.42c0 .14-.13.26-.27.26h-.55a.3.3 0 0 1-.25-.19z"/><path fill="url(#y)" d="M12.1 25.57q-.6-2.03-.6-4.14c0-.7.95-.9 1.5-.9s1.52.2 1.52 1.22v8.42c0 .14-.13.26-.27.26h-.55a.3.3 0 0 1-.25-.19z"/><path fill="url(#z)" d="M12.1 25.57q-.6-2.03-.6-4.14c0-.7.95-.9 1.5-.9s1.52.2 1.52 1.22v8.42c0 .14-.13.26-.27.26h-.55a.3.3 0 0 1-.25-.19z"/><path fill="url(#A)" d="M12.5 12.43v-3a6 6 0 0 0-4.35-5.77 4 4 0 0 1-1.17-.5l-1.02-.69a.31.31 0 0 0-.46.27c0 .88-.33 1.72-.92 2.36L1.76 8.13c-.22.25-.31.6-.23.94.15.68.84 1.01 1.48.75l3.15-1.27c.16-.07.34.05.34.23v7.65c0 1.14.22 2.07 1.02 3.03 2.23-3.03 3.48-4.59 4.98-7.03"/><path fill="url(#B)" d="M12.5 12.43v-3a6 6 0 0 0-4.35-5.77 4 4 0 0 1-1.17-.5l-1.02-.69a.31.31 0 0 0-.46.27c0 .88-.33 1.72-.92 2.36L1.76 8.13c-.22.25-.31.6-.23.94.15.68.84 1.01 1.48.75l3.15-1.27c.16-.07.34.05.34.23v7.65c0 1.14.22 2.07 1.02 3.03 2.23-3.03 3.48-4.59 4.98-7.03"/><path fill="url(#C)" d="M12.5 12.43v-3a6 6 0 0 0-4.35-5.77 4 4 0 0 1-1.17-.5l-1.02-.69a.31.31 0 0 0-.46.27c0 .88-.33 1.72-.92 2.36L1.76 8.13c-.22.25-.31.6-.23.94.15.68.84 1.01 1.48.75l3.15-1.27c.16-.07.34.05.34.23v7.65c0 1.14.22 2.07 1.02 3.03 2.23-3.03 3.48-4.59 4.98-7.03"/><path fill="#636363" d="m21.83 28.76-1.2-1.19-.6.81 1.17 1.17zm-.65-4.33q.27.46.3 1h2.86q.16-.44.16-.9v-.1z"/><path fill="url(#D)" d="M7.53 3.45v1.28q0 .33-.24.58a.5.5 0 1 0 .7.7c.34-.34.54-.8.54-1.28v-.95c-.32-.11-.64-.18-1-.33"/><path fill="#6f6e70" fill-rule="evenodd" d="M9.25 4.1v1.65c0 .89.71 1.6 1.6 1.6h1.28a6 6 0 0 0-.48-1h-.8a.6.6 0 0 1-.6-.6v-1a6 6 0 0 0-1-.65" clip-rule="evenodd"/><path fill="url(#E)" d="m6.5 11.34.2-.26a2.8 2.8 0 0 1 2.24-1.13h3.56v-.52l-.02-.48H8.93c-.9 0-1.76.32-2.43.89z"/><path fill="url(#F)" d="M12.5 11.93c0 .2.14.45.45.5h-1.76q-.3.01-.48.26a.6.6 0 0 0-.04.54l1.28 2.89a1.9 1.9 0 0 0 1.74 1.13h4.49a3 3 0 0 0 2.37-1.14l2.93-3.68h1.04l.23.01-3.42 4.29a4 4 0 0 1-3.15 1.52h-4.5a2.9 2.9 0 0 1-2.64-1.73l-1.28-2.89a1.57 1.57 0 0 1 1.43-2.2h1.3z"/><path fill="url(#G)" d="m20.02 12.43-1.83 2.25a.9.9 0 0 1-1.58-.56v-1.69h-1v1.68A1.9 1.9 0 0 0 17.5 16c.57 0 1.1-.25 1.46-.7l2.35-2.87z"/><path fill="url(#H)" d="m26.53 12.86-6.62 8.57h1.26l6.23-8.06q-.4-.3-.87-.51"/><path fill="url(#I)" d="M29.5 19.19H27a.4.4 0 0 1-.34-.21.4.4 0 0 1 .04-.4l2.38-3.15a6 6 0 0 0-.54-.94l-2.64 3.5c-.32.42-.37.97-.13 1.45.23.47.7.76 1.23.76h2.5z"/><path fill="url(#J)" d="M29.5 22.23h-5.92l1.34 1h4.58z"/><path fill="url(#K)" d="m26.2 26.79 3.12-1.32q.18-.46.18-.94v-.22l-3 1.27v.05q0 .62-.3 1.16"/><path fill="url(#L)" d="M27.08 28.46h-2.1l-.75 1h2.05z"/><path fill="url(#M)" d="M9.7 18.69c.33-.49.4-1.1.19-1.65l-.9-2.3a1.3 1.3 0 0 0-1.17-.81H6.5v1h1.32q.16.01.25.17l.89 2.3a.8.8 0 0 1-.08.72.8.8 0 0 1-.65.35h-1.3q.24.54.59 1h.7c.6 0 1.15-.29 1.48-.78"/><path fill="#5b5660" d="M14.52 27.46v-1h-2.15l.29 1z"/><path fill="#646169" d="M14.5 24.43v-1h-2.86q.07.5.17 1z"/><path fill="url(#N)" d="m2.32 7.53-.56.6c-.22.25-.31.6-.23.94.15.68.84 1.01 1.48.75l.77-.31z"/><path fill="url(#O)" d="m21.83 28.76-1.2-1.19-.6.81 1.17 1.17z"/><path fill="url(#P)" d="M21.18 24.43q.27.46.3 1h2.86q.16-.44.16-.9v-.1z"/><g filter="url(#Q)"><ellipse cx="4.87" cy="7.03" fill="#9e99a3" rx=".43" ry=".5" transform="rotate(49.46 4.87 7.03)"/></g><circle cx="5" cy="6.93" r=".5" fill="url(#R)"/><g filter="url(#S)"><path stroke="#7b7a7c" stroke-width=".15" d="M8.72 3.27c3.62 1.3 5.69 3.62 5.25 8.87"/></g><g filter="url(#T)"><path stroke="#ebeaec" stroke-linecap="round" stroke-width=".3" d="M11.64 20.94c.44-.31 1.6-.75 2.7 0"/></g><g filter="url(#U)"><path stroke="#ebeaec" stroke-linecap="round" stroke-width=".2" d="M13.94 21v8.44"/></g><g filter="url(#V)"><path fill="url(#W)" d="m6.78 4.97-.87-2.22 1.36 1.02z"/></g><defs><linearGradient id="d" x1="21" x2="21" y1="17.6" y2="31" gradientUnits="userSpaceOnUse"><stop stop-color="#69587a"/><stop offset="1" stop-color="#beb4c8"/></linearGradient><linearGradient id="e" x1="23.19" x2="21.25" y1="20" y2="22.27" gradientUnits="userSpaceOnUse"><stop stop-color="#5c4c6b"/><stop offset="1" stop-color="#5c4c6b" stop-opacity="0"/></linearGradient><linearGradient id="f" x1="21" x2="21" y1="20.13" y2="22.53" gradientUnits="userSpaceOnUse"><stop stop-color="#5c4c6b"/><stop offset="1" stop-color="#5c4c6b" stop-opacity="0"/></linearGradient><linearGradient id="h" x1="21.44" x2="21.44" y1="31.94" y2="26.5" gradientUnits="userSpaceOnUse"><stop offset=".15" stop-color="#896ba4"/><stop offset=".43" stop-color="#9179a7" stop-opacity="0"/></linearGradient><linearGradient id="i" x1="13.88" x2="11" y1="21.28" y2="31.06" gradientUnits="userSpaceOnUse"><stop stop-color="#69587a"/><stop offset="1" stop-color="#beb4c8"/></linearGradient><linearGradient id="j" x1="13.69" x2="11.5" y1="28.1" y2="28.1" gradientUnits="userSpaceOnUse"><stop stop-color="#69587a"/><stop offset="1" stop-color="#69587a" stop-opacity="0"/></linearGradient><linearGradient id="k" x1="11.19" x2="11.19" y1="32.09" y2="26.11" gradientUnits="userSpaceOnUse"><stop offset=".15" stop-color="#896ba4"/><stop offset=".43" stop-color="#9179a7" stop-opacity="0"/></linearGradient><linearGradient id="n" x1="15.5" x2="15.5" y1="2.43" y2="39.72" gradientUnits="userSpaceOnUse"><stop stop-color="#cbcacd"/><stop offset="1" stop-color="#bcb2c8"/></linearGradient><linearGradient id="p" x1="16.19" x2="27.75" y1="20.16" y2="19.78" gradientUnits="userSpaceOnUse"><stop stop-color="#cbcacd" stop-opacity="0"/><stop offset="1" stop-color="#bcb2c8"/></linearGradient><linearGradient id="s" x1="17.25" x2="17.25" y1="34.66" y2="19.43" gradientUnits="userSpaceOnUse"><stop offset=".15" stop-color="#896ba4"/><stop offset=".18" stop-color="#896ba4"/><stop offset=".35" stop-color="#9179a7" stop-opacity="0"/></linearGradient><linearGradient id="u" x1="21.63" x2="27.75" y1="19.78" y2="19.78" gradientUnits="userSpaceOnUse"><stop stop-color="#cbcacd" stop-opacity="0"/><stop offset="1" stop-color="#ddd5e6"/></linearGradient><linearGradient id="x" x1="14.52" x2="11.5" y1="23.93" y2="24.53" gradientUnits="userSpaceOnUse"><stop stop-color="#d4cddc"/><stop offset="1" stop-color="#a8a0b1"/></linearGradient><linearGradient id="y" x1="13.2" x2="13.2" y1="32.03" y2="26.54" gradientUnits="userSpaceOnUse"><stop offset=".15" stop-color="#896ba4"/><stop offset=".43" stop-color="#9179a7" stop-opacity="0"/></linearGradient><linearGradient id="z" x1="13.01" x2="13.01" y1="19.72" y2="21.97" gradientUnits="userSpaceOnUse"><stop stop-color="#9279a9"/><stop offset="1" stop-color="#9279a9" stop-opacity="0"/></linearGradient><linearGradient id="A" x1="8.19" x2="12.5" y1="10.41" y2="7.85" gradientUnits="userSpaceOnUse"><stop stop-color="#e6e6e6" stop-opacity="0"/><stop offset=".89" stop-color="#e6e6e6"/></linearGradient><linearGradient id="D" x1="7.83" x2="7.83" y1="4.22" y2="7.1" gradientUnits="userSpaceOnUse"><stop stop-color="#696869"/><stop offset="1" stop-color="#58545b"/></linearGradient><linearGradient id="E" x1="11.5" x2="6.06" y1="11.34" y2="11.34" gradientUnits="userSpaceOnUse"><stop stop-color="#636363"/><stop offset="1" stop-color="#4b494e"/></linearGradient><linearGradient id="F" x1="13.56" x2="19.88" y1="11.43" y2="17.22" gradientUnits="userSpaceOnUse"><stop stop-color="#69676c"/><stop offset="1" stop-color="#5f5d61"/></linearGradient><linearGradient id="G" x1="18.46" x2="18.46" y1="12.43" y2="16.53" gradientUnits="userSpaceOnUse"><stop stop-color="#5f5f5f"/><stop offset="1" stop-color="#605867"/></linearGradient><linearGradient id="H" x1="27.75" x2="22.75" y1="13.35" y2="21.43" gradientUnits="userSpaceOnUse"><stop stop-color="#686869"/><stop offset="1" stop-color="#58535d"/></linearGradient><linearGradient id="I" x1="30" x2="26.63" y1="15.72" y2="20.2" gradientUnits="userSpaceOnUse"><stop stop-color="#747375"/><stop offset="1" stop-color="#5d5961"/></linearGradient><linearGradient id="J" x1="31.31" x2="24.06" y1="23.23" y2="23.23" gradientUnits="userSpaceOnUse"><stop stop-color="#6c6a6e"/><stop offset="1" stop-color="#453a50"/></linearGradient><linearGradient id="K" x1="29.94" x2="26.94" y1="24.31" y2="26.28" gradientUnits="userSpaceOnUse"><stop stop-color="#666369"/><stop offset="1" stop-color="#524d58"/></linearGradient><linearGradient id="L" x1="24.61" x2="26.59" y1="29.46" y2="29.46" gradientUnits="userSpaceOnUse"><stop stop-color="#5d5763"/><stop offset="1" stop-color="#56515a"/></linearGradient><linearGradient id="M" x1="8.25" x2="8.25" y1="15.56" y2="19.47" gradientUnits="userSpaceOnUse"><stop stop-color="#545158"/><stop offset="1" stop-color="#4e4854"/></linearGradient><linearGradient id="N" x1="2.06" x2="2.95" y1="8.38" y2="10.11" gradientUnits="userSpaceOnUse"><stop stop-color="#595959"/><stop offset="1" stop-color="#493d55"/></linearGradient><linearGradient id="O" x1="20.42" x2="21.5" y1="28.3" y2="29.25" gradientUnits="userSpaceOnUse"><stop stop-color="#4c4653"/><stop offset="1" stop-color="#413c47"/></linearGradient><linearGradient id="P" x1="20.5" x2="24.5" y1="25.43" y2="25.43" gradientUnits="userSpaceOnUse"><stop stop-color="#4c4653"/><stop offset="1" stop-color="#413c47"/></linearGradient><linearGradient id="W" x1="6.34" x2="7.47" y1="2.53" y2="4.6" gradientUnits="userSpaceOnUse"><stop stop-color="#e2e1e3"/><stop offset="1" stop-color="#e2e1e3" stop-opacity="0"/></linearGradient><radialGradient id="a" cx="0" cy="0" r="1" gradientTransform="rotate(-31.42 31.23 -41.12)scale(3.7764 9.43981)" gradientUnits="userSpaceOnUse"><stop offset=".54" stop-color="#7d7c7e" stop-opacity="0"/><stop offset="1" stop-color="#7d7c7e"/></radialGradient><radialGradient id="c" cx="0" cy="0" r="1" gradientTransform="rotate(-29.1 33.13 -46.2)scale(2.95518 4.19812)" gradientUnits="userSpaceOnUse"><stop stop-color="#c3bdc9"/><stop offset="1" stop-color="#7d7c7e" stop-opacity="0"/></radialGradient><radialGradient id="g" cx="0" cy="0" r="1" gradientTransform="rotate(-47.86 35.91 -8.46)scale(2.21247 4.44425)" gradientUnits="userSpaceOnUse"><stop offset=".37" stop-color="#6e4694"/><stop offset="1" stop-color="#8152ac" stop-opacity="0"/></radialGradient><radialGradient id="l" cx="0" cy="0" r="1" gradientTransform="rotate(140.08 4.32 8.27)scale(.99829 1.14369)" gradientUnits="userSpaceOnUse"><stop stop-color="#555456"/><stop offset="1" stop-color="#555456" stop-opacity="0"/></radialGradient><radialGradient id="m" cx="0" cy="0" r="1" gradientTransform="rotate(164.86 2.74 2.27)scale(2.06383 1.6416)" gradientUnits="userSpaceOnUse"><stop offset=".14" stop-color="#444246"/><stop offset="1" stop-color="#444246" stop-opacity="0"/></radialGradient><radialGradient id="o" cx="0" cy="0" r="1" gradientTransform="rotate(114.09 3.63 10.77)scale(11.6384 18.2254)" gradientUnits="userSpaceOnUse"><stop offset=".67" stop-color="#9179a7" stop-opacity="0"/><stop offset=".93" stop-color="#896ba4"/></radialGradient><radialGradient id="q" cx="0" cy="0" r="1" gradientTransform="matrix(0 -6.72652 20.1875 0 16.94 23.16)" gradientUnits="userSpaceOnUse"><stop offset=".2" stop-color="#896ba4"/><stop offset=".7" stop-color="#9179a7" stop-opacity="0"/></radialGradient><radialGradient id="r" cx="0" cy="0" r="1" gradientTransform="rotate(-60.8 32.81 -9.18)scale(5.76399 6.60381)" gradientUnits="userSpaceOnUse"><stop stop-color="#896ba4"/><stop offset=".57" stop-color="#9179a7" stop-opacity="0"/></radialGradient><radialGradient id="t" cx="0" cy="0" r="1" gradientTransform="rotate(44.32 -4.22 5.57)scale(3.71257 6.63102)" gradientUnits="userSpaceOnUse"><stop stop-color="#b2b1b3"/><stop offset="1" stop-color="#b2b1b3" stop-opacity="0"/></radialGradient><radialGradient id="v" cx="0" cy="0" r="1" gradientTransform="rotate(104.88 7.41 15.97)scale(4.13871 9.5714)" gradientUnits="userSpaceOnUse"><stop stop-color="#ddd5e6"/><stop offset=".62" stop-color="#cbcacd" stop-opacity="0"/></radialGradient><radialGradient id="B" cx="0" cy="0" r="1" gradientTransform="rotate(-61.8 16.12 6.67)scale(12.6949 9.01568)" gradientUnits="userSpaceOnUse"><stop offset=".35" stop-color="#afa9b6"/><stop offset=".88" stop-color="#afa9b6" stop-opacity="0"/></radialGradient><radialGradient id="C" cx="0" cy="0" r="1" gradientTransform="rotate(-55.74 12.99 1.69)scale(5.21791 3.45752)" gradientUnits="userSpaceOnUse"><stop offset=".19" stop-color="#896ba4"/><stop offset=".88" stop-color="#9179a7" stop-opacity="0"/></radialGradient><radialGradient id="R" cx="0" cy="0" r="1" gradientTransform="rotate(118.12 .56 4.95)scale(.72923 .63463)" gradientUnits="userSpaceOnUse"><stop stop-color="#605255"/><stop offset="1" stop-color="#3c273a"/></radialGradient><filter id="b" width="5.3" height="9.77" x="24.44" y="4.68" color-interpolation-filters="sRGB" filterUnits="userSpaceOnUse"><feFlood flood-opacity="0" result="BackgroundImageFix"/><feBlend in="SourceGraphic" in2="BackgroundImageFix" result="shape"/><feGaussianBlur result="effect1_foregroundBlur_28327_2572" stdDeviation=".25"/></filter><filter id="w" width="18.41" height="14.75" x="11.84" y="11.74" color-interpolation-filters="sRGB" filterUnits="userSpaceOnUse"><feFlood flood-opacity="0" result="BackgroundImageFix"/><feBlend in="SourceGraphic" in2="BackgroundImageFix" result="shape"/><feGaussianBlur result="effect1_foregroundBlur_28327_2572" stdDeviation=".75"/></filter><filter id="Q" width="1.44" height="1.42" x="4.15" y="6.32" color-interpolation-filters="sRGB" filterUnits="userSpaceOnUse"><feFlood flood-opacity="0" result="BackgroundImageFix"/><feBlend in="SourceGraphic" in2="BackgroundImageFix" result="shape"/><feGaussianBlur result="effect1_foregroundBlur_28327_2572" stdDeviation=".13"/></filter><filter id="S" width="6.21" height="9.75" x="8.29" y="2.8" color-interpolation-filters="sRGB" filterUnits="userSpaceOnUse"><feFlood flood-opacity="0" result="BackgroundImageFix"/><feBlend in="SourceGraphic" in2="BackgroundImageFix" result="shape"/><feGaussianBlur result="effect1_foregroundBlur_28327_2572" stdDeviation=".2"/></filter><filter id="T" width="5" height="2.71" x="10.49" y="19.38" color-interpolation-filters="sRGB" filterUnits="userSpaceOnUse"><feFlood flood-opacity="0" result="BackgroundImageFix"/><feBlend in="SourceGraphic" in2="BackgroundImageFix" result="shape"/><feGaussianBlur result="effect1_foregroundBlur_28327_2572" stdDeviation=".5"/></filter><filter id="U" width="1.6" height="10.04" x="13.14" y="20.2" color-interpolation-filters="sRGB" filterUnits="userSpaceOnUse"><feFlood flood-opacity="0" result="BackgroundImageFix"/><feBlend in="SourceGraphic" in2="BackgroundImageFix" result="shape"/><feGaussianBlur result="effect1_foregroundBlur_28327_2572" stdDeviation=".35"/></filter><filter id="V" width="1.96" height="2.82" x="5.61" y="2.45" color-interpolation-filters="sRGB" filterUnits="userSpaceOnUse"><feFlood flood-opacity="0" result="BackgroundImageFix"/><feBlend in="SourceGraphic" in2="BackgroundImageFix" result="shape"/><feGaussianBlur result="effect1_foregroundBlur_28327_2572" stdDeviation=".15"/></filter></defs></svg>